<svg width="316" height="255" viewBox="0 0 316 255" fill="none" xmlns="http://www.w3.org/2000/svg">
<path d="M0 2C0 0.89543 0.895431 0 2 0H314C315.105 0 316 0.895431 316 2V253C316 254.105 315.105 255 314 255H2C0.895432 255 0 254.105 0 253V2Z" fill="#404040"/>
<rect x="4" y="23" width="308" height="1" rx="0.5" fill="white" fill-opacity="0.12"/>
<path d="M24.0801 12.6348C24.0801 13.5996 23.9004 14.4062 23.541 15.0547C23.1816 15.6992 22.6602 16.1855 21.9766 16.5137C21.293 16.8379 20.4688 17 19.5039 17H17.125V8.43359H19.7617C20.6484 8.43359 21.4141 8.59375 22.0586 8.91406C22.7031 9.23047 23.2012 9.70117 23.5527 10.3262C23.9043 10.9473 24.0801 11.7168 24.0801 12.6348ZM22.6152 12.6758C22.6152 11.9727 22.5039 11.3945 22.2812 10.9414C22.0625 10.4883 21.7383 10.1523 21.3086 9.93359C20.8828 9.71094 20.3574 9.59961 19.7324 9.59961H18.5312V15.8223H19.5273C20.5625 15.8223 21.3359 15.5586 21.8477 15.0312C22.3594 14.5039 22.6152 13.7188 22.6152 12.6758ZM31.9023 17H27.0508V8.43359H31.9023V9.61719H28.457V11.9434H31.6855V13.1211H28.457V15.8105H31.9023V17ZM37.3691 8.43359C38.4746 8.43359 39.2812 8.66016 39.7891 9.11328C40.2969 9.56641 40.5508 10.2012 40.5508 11.0176C40.5508 11.3887 40.4922 11.7422 40.375 12.0781C40.2617 12.4102 40.0742 12.7051 39.8125 12.9629C39.5508 13.2168 39.2051 13.418 38.7754 13.5664C38.3496 13.7148 37.8242 13.7891 37.1992 13.7891H36.2852V17H34.8789V8.43359H37.3691ZM37.2754 9.59961H36.2852V12.6172H37.0527C37.4941 12.6172 37.8691 12.5664 38.1777 12.4648C38.4863 12.3594 38.7207 12.1934 38.8809 11.9668C39.041 11.7402 39.1211 11.4414 39.1211 11.0703C39.1211 10.5742 38.9707 10.2051 38.6699 9.96289C38.373 9.7207 37.9082 9.59961 37.2754 9.59961ZM46.3574 17H44.9453V9.62891H42.4375V8.43359H48.8594V9.62891H46.3574V17ZM58.0527 17H56.6523V13.1328H52.7031V17H51.2969V8.43359H52.7031V11.9375H56.6523V8.43359H58.0527V17Z" fill="white" fill-opacity="0.5"/>
<path d="M29.8672 194.613L23.8789 194.613L23.8789 193.353L26.0293 191.18C26.4629 190.734 26.8105 190.363 27.0723 190.066C27.3379 189.766 27.5293 189.492 27.6465 189.246C27.7676 189 27.8281 188.736 27.8281 188.455C27.8281 188.115 27.7324 187.861 27.541 187.693C27.3535 187.521 27.1016 187.435 26.7852 187.435C26.4531 187.435 26.1309 187.512 25.8184 187.664C25.5059 187.816 25.1797 188.033 24.8398 188.314L23.8555 187.148C24.1016 186.937 24.3613 186.738 24.6348 186.551C24.9121 186.363 25.2324 186.213 25.5957 186.1C25.9629 185.982 26.4023 185.924 26.9141 185.924C27.4766 185.924 27.959 186.025 28.3613 186.228C28.7676 186.432 29.0801 186.709 29.2988 187.06C29.5176 187.408 29.627 187.803 29.627 188.244C29.627 188.717 29.5332 189.148 29.3457 189.539C29.1582 189.93 28.8848 190.316 28.5254 190.699C28.1699 191.082 27.7402 191.506 27.2363 191.971L26.1348 193.008L26.1348 193.09L29.8672 193.09L29.8672 194.613ZM36.6875 190.33C36.6875 191.021 36.6328 191.639 36.5234 192.182C36.418 192.725 36.2461 193.185 36.0078 193.564C35.7734 193.943 35.4648 194.232 35.082 194.432C34.6992 194.631 34.2344 194.73 33.6875 194.73C33 194.73 32.4355 194.557 31.9941 194.209C31.5527 193.857 31.2266 193.353 31.0156 192.697C30.8047 192.037 30.6992 191.248 30.6992 190.33C30.6992 189.404 30.7949 188.613 30.9863 187.957C31.1816 187.297 31.498 186.791 31.9355 186.439C32.373 186.088 32.957 185.912 33.6875 185.912C34.3711 185.912 34.9336 186.088 35.375 186.439C35.8203 186.787 36.1504 187.291 36.3652 187.951C36.5801 188.607 36.6875 189.4 36.6875 190.33ZM32.498 190.33C32.498 190.982 32.5332 191.527 32.6035 191.965C32.6777 192.398 32.8008 192.725 32.9727 192.943C33.1445 193.162 33.3828 193.271 33.6875 193.271C33.9883 193.271 34.2246 193.164 34.3965 192.949C34.5723 192.73 34.6973 192.404 34.7715 191.971C34.8457 191.533 34.8828 190.986 34.8828 190.33C34.8828 189.678 34.8457 189.133 34.7715 188.695C34.6973 188.258 34.5723 187.93 34.3965 187.711C34.2246 187.488 33.9883 187.377 33.6875 187.377C33.3828 187.377 33.1445 187.488 32.9727 187.711C32.8008 187.93 32.6777 188.258 32.6035 188.695C32.5332 189.133 32.498 189.678 32.498 190.33ZM43.5547 190.33C43.5547 191.021 43.5 191.639 43.3906 192.182C43.2852 192.725 43.1133 193.185 42.875 193.564C42.6406 193.943 42.332 194.232 41.9492 194.432C41.5664 194.631 41.1016 194.73 40.5547 194.73C39.8672 194.73 39.3027 194.557 38.8613 194.209C38.4199 193.857 38.0938 193.353 37.8828 192.697C37.6719 192.037 37.5664 191.248 37.5664 190.33C37.5664 189.404 37.6621 188.613 37.8535 187.957C38.0488 187.297 38.3652 186.791 38.8027 186.439C39.2402 186.088 39.8242 185.912 40.5547 185.912C41.2383 185.912 41.8008 186.088 42.2422 186.439C42.6875 186.787 43.0176 187.291 43.2324 187.951C43.4473 188.607 43.5547 189.4 43.5547 190.33ZM39.3652 190.33C39.3652 190.982 39.4004 191.527 39.4707 191.965C39.5449 192.398 39.668 192.725 39.8398 192.943C40.0117 193.162 40.25 193.271 40.5547 193.271C40.8555 193.271 41.0918 193.164 41.2637 192.949C41.4395 192.73 41.5645 192.404 41.6387 191.971C41.7129 191.533 41.75 190.986 41.75 190.33C41.75 189.678 41.7129 189.133 41.6387 188.695C41.5645 188.258 41.4395 187.93 41.2637 187.711C41.0918 187.488 40.8555 187.377 40.5547 187.377C40.25 187.377 40.0117 187.488 39.8398 187.711C39.668 187.93 39.5449 188.258 39.4707 188.695C39.4004 189.133 39.3652 189.678 39.3652 190.33Z" fill="white"/>
<path d="M43.5547 48.9163C43.5547 49.6077 43.5 50.2249 43.3906 50.7679C43.2852 51.3108 43.1133 51.7718 42.875 52.1507C42.6406 52.5296 42.332 52.8186 41.9492 53.0179C41.5664 53.2171 41.1016 53.3167 40.5547 53.3167C39.8672 53.3167 39.3027 53.1429 38.8613 52.7952C38.4199 52.4436 38.0938 51.9397 37.8828 51.2835C37.6719 50.6233 37.5664 49.8343 37.5664 48.9163C37.5664 47.9905 37.6621 47.1995 37.8535 46.5433C38.0488 45.8831 38.3652 45.3772 38.8027 45.0257C39.2402 44.6741 39.8242 44.4983 40.5547 44.4983C41.2383 44.4983 41.8008 44.6741 42.2422 45.0257C42.6875 45.3733 43.0176 45.8772 43.2324 46.5374C43.4473 47.1936 43.5547 47.9866 43.5547 48.9163ZM39.3652 48.9163C39.3652 49.5686 39.4004 50.1136 39.4707 50.5511C39.5449 50.9847 39.668 51.3108 39.8398 51.5296C40.0117 51.7483 40.25 51.8577 40.5547 51.8577C40.8555 51.8577 41.0918 51.7503 41.2637 51.5354C41.4395 51.3167 41.5645 50.9905 41.6387 50.5569C41.7129 50.1194 41.75 49.5726 41.75 48.9163C41.75 48.264 41.7129 47.719 41.6387 47.2815C41.5645 46.844 41.4395 46.5159 41.2637 46.2972C41.0918 46.0745 40.8555 45.9632 40.5547 45.9632C40.25 45.9632 40.0117 46.0745 39.8398 46.2972C39.668 46.5159 39.5449 46.844 39.4707 47.2815C39.4004 47.719 39.3652 48.264 39.3652 48.9163Z" fill="white"/>
<path d="M48 48.6979H276V190.112H48V48.6979Z" fill="#383838"/>
<path d="M276 189.198L48 189.198M276 49.1979L48 49.1979" stroke="#999999"/>
<g clip-path="url(#clip0_1_7103)">
<path d="M93.7644 115.156C78.9485 115.156 61.9925 123.144 48.274 123.144V190.112H276L275.726 93.0597C259.538 93.0597 244.618 78.4878 230.51 82.6916C211.578 88.3325 195.159 130.963 184.745 137.421C174.332 143.88 154.619 123.144 139.255 123.144C123.89 123.144 108.58 115.156 93.7644 115.156Z" fill="#33BBFF" fill-opacity="0.3"/>
<path d="M48.274 123.144C61.9925 123.144 78.9485 115.156 93.7644 115.156C108.58 115.156 123.89 123.144 139.255 123.144C154.619 123.144 174.332 143.88 184.745 137.421C195.159 130.963 211.578 88.3325 230.51 82.6916C244.618 78.4878 259.812 93.0597 276 93.0597" stroke="#33BBFF" stroke-width="2"/>
</g>
<path d="M48 48.6979V47.6979H47V48.6979H48ZM276 48.6979H277V47.6979H276V48.6979ZM276 190.112V191.112H277V190.112H276ZM48 190.112H47V191.112H48V190.112ZM48 49.6979H276V47.6979H48V49.6979ZM275 48.6979V190.112H277V48.6979H275ZM276 189.112H48V191.112H276V189.112ZM49 190.112V48.6979H47V190.112H49Z" fill="#4D4D4D"/>
<path d="M292 87.5037C292 88.3089 291.097 88.7839 290.433 88.3278L280 81.1547L268.75 81.1548C268.336 81.1548 268 80.8191 268 80.4048C268 79.9906 268.336 79.6548 268.75 79.6548L280 79.6547L290.433 72.4817C291.097 72.0256 292 72.5006 292 73.3058L292 87.5037Z" fill="#33BBFF"/>
<path d="M235.117 232.667H233.273V225.315C233.273 225.07 233.276 224.826 233.281 224.581C233.286 224.336 233.292 224.096 233.297 223.862C233.307 223.628 233.32 223.404 233.336 223.19C233.227 223.31 233.091 223.44 232.93 223.581C232.773 223.721 232.607 223.867 232.43 224.018L231.117 225.065L230.195 223.901L233.586 221.245H235.117V232.667ZM246.609 232.667H238.875V231.284L241.836 228.284C242.409 227.701 242.88 227.198 243.25 226.776C243.62 226.349 243.893 225.945 244.07 225.565C244.253 225.185 244.344 224.771 244.344 224.323C244.344 223.771 244.185 223.354 243.867 223.073C243.549 222.786 243.13 222.643 242.609 222.643C242.115 222.643 241.656 222.742 241.234 222.94C240.818 223.133 240.385 223.409 239.938 223.768L238.93 222.557C239.247 222.286 239.586 222.039 239.945 221.815C240.31 221.591 240.716 221.414 241.164 221.284C241.612 221.148 242.122 221.081 242.695 221.081C243.419 221.081 244.044 221.211 244.57 221.471C245.096 221.727 245.5 222.083 245.781 222.542C246.068 223 246.211 223.534 246.211 224.143C246.211 224.758 246.089 225.326 245.844 225.846C245.599 226.367 245.25 226.883 244.797 227.393C244.344 227.898 243.805 228.448 243.18 229.042L241.203 230.971V231.057H246.609V232.667ZM248.359 231.698C248.359 231.271 248.469 230.971 248.688 230.799C248.911 230.622 249.182 230.534 249.5 230.534C249.818 230.534 250.089 230.622 250.312 230.799C250.542 230.971 250.656 231.271 250.656 231.698C250.656 232.115 250.542 232.417 250.312 232.604C250.089 232.786 249.818 232.878 249.5 232.878C249.182 232.878 248.911 232.786 248.688 232.604C248.469 232.417 248.359 232.115 248.359 231.698ZM259.719 223.854C259.719 224.37 259.615 224.818 259.406 225.198C259.198 225.578 258.911 225.891 258.547 226.135C258.188 226.375 257.771 226.547 257.297 226.651V226.706C258.208 226.82 258.896 227.107 259.359 227.565C259.828 228.023 260.062 228.63 260.062 229.385C260.062 230.047 259.904 230.638 259.586 231.159C259.268 231.674 258.781 232.081 258.125 232.378C257.469 232.674 256.625 232.823 255.594 232.823C254.974 232.823 254.398 232.773 253.867 232.674C253.341 232.576 252.841 232.417 252.367 232.198V230.565C252.852 230.805 253.367 230.99 253.914 231.12C254.461 231.25 254.979 231.315 255.469 231.315C256.422 231.315 257.102 231.138 257.508 230.784C257.914 230.424 258.117 229.93 258.117 229.299C258.117 228.893 258.01 228.56 257.797 228.299C257.589 228.039 257.263 227.844 256.82 227.714C256.383 227.583 255.818 227.518 255.125 227.518H254.117V226.042H255.133C255.794 226.042 256.326 225.964 256.727 225.807C257.128 225.646 257.417 225.424 257.594 225.143C257.776 224.862 257.867 224.534 257.867 224.159C257.867 223.669 257.708 223.289 257.391 223.018C257.073 222.742 256.602 222.604 255.977 222.604C255.591 222.604 255.24 222.648 254.922 222.737C254.609 222.826 254.32 222.938 254.055 223.073C253.789 223.208 253.536 223.354 253.297 223.51L252.414 222.237C252.846 221.914 253.362 221.641 253.961 221.417C254.56 221.193 255.258 221.081 256.055 221.081C257.227 221.081 258.13 221.333 258.766 221.839C259.401 222.339 259.719 223.01 259.719 223.854Z" fill="#33BBFF"/>
<path d="M271.664 223.948C272.607 223.948 273.318 224.195 273.797 224.69C274.276 225.18 274.516 225.969 274.516 227.057V232.667H273.234V227.12C273.234 226.427 273.083 225.909 272.781 225.565C272.484 225.216 272.042 225.042 271.453 225.042C270.625 225.042 270.023 225.281 269.648 225.76C269.273 226.24 269.086 226.945 269.086 227.878V232.667H267.797V227.12C267.797 226.656 267.729 226.271 267.594 225.964C267.464 225.656 267.266 225.427 267 225.276C266.74 225.12 266.409 225.042 266.008 225.042C265.44 225.042 264.984 225.159 264.641 225.393C264.297 225.628 264.047 225.977 263.891 226.44C263.74 226.898 263.664 227.464 263.664 228.135V232.667H262.367V224.104H263.414L263.609 225.315H263.68C263.852 225.018 264.068 224.768 264.328 224.565C264.589 224.362 264.88 224.208 265.203 224.104C265.526 224 265.87 223.948 266.234 223.948C266.885 223.948 267.43 224.07 267.867 224.315C268.31 224.555 268.63 224.922 268.828 225.417H268.898C269.18 224.922 269.565 224.555 270.055 224.315C270.544 224.07 271.081 223.948 271.664 223.948Z" fill="white" fill-opacity="0.5"/>
<path d="M22.5625 221.339H25.7969C27.224 221.339 28.2969 221.552 29.0156 221.98C29.7344 222.407 30.0938 223.133 30.0938 224.159C30.0938 224.602 30.0078 225 29.8359 225.355C29.6693 225.703 29.4245 225.993 29.1016 226.222C28.7786 226.451 28.3802 226.61 27.9062 226.698V226.776C28.4062 226.855 28.849 226.998 29.2344 227.206C29.6198 227.414 29.9219 227.706 30.1406 228.081C30.3594 228.456 30.4688 228.933 30.4688 229.511C30.4688 230.214 30.3047 230.808 29.9766 231.292C29.6536 231.776 29.1953 232.144 28.6016 232.394C28.0078 232.638 27.3047 232.761 26.4922 232.761H22.5625V221.339ZM23.8906 226.237H26.0781C27.0729 226.237 27.7604 226.073 28.1406 225.745C28.526 225.417 28.7188 224.938 28.7188 224.308C28.7188 223.657 28.4896 223.188 28.0312 222.901C27.5781 222.615 26.8542 222.472 25.8594 222.472H23.8906V226.237ZM23.8906 227.355V231.628H26.2656C27.2812 231.628 28 231.43 28.4219 231.034C28.8438 230.633 29.0547 230.094 29.0547 229.417C29.0547 228.985 28.9583 228.615 28.7656 228.308C28.5781 228 28.2708 227.766 27.8438 227.605C27.4219 227.438 26.8568 227.355 26.1484 227.355H23.8906ZM36.0078 224.042C36.737 224.042 37.362 224.203 37.8828 224.526C38.4036 224.849 38.8021 225.302 39.0781 225.886C39.3542 226.464 39.4922 227.141 39.4922 227.917V228.722H33.5781C33.5938 229.727 33.8438 230.493 34.3281 231.019C34.8125 231.545 35.4948 231.808 36.375 231.808C36.9167 231.808 37.3958 231.758 37.8125 231.659C38.2292 231.56 38.6615 231.414 39.1094 231.222V232.362C38.6771 232.555 38.2474 232.696 37.8203 232.784C37.3984 232.873 36.8984 232.917 36.3203 232.917C35.4974 232.917 34.7786 232.75 34.1641 232.417C33.5547 232.078 33.0807 231.584 32.7422 230.933C32.4036 230.282 32.2344 229.485 32.2344 228.542C32.2344 227.62 32.388 226.823 32.6953 226.151C33.0078 225.474 33.4453 224.953 34.0078 224.589C34.5755 224.224 35.2422 224.042 36.0078 224.042ZM35.9922 225.105C35.2995 225.105 34.7474 225.331 34.3359 225.784C33.9245 226.237 33.6797 226.87 33.6016 227.683H38.1328C38.1276 227.172 38.0469 226.724 37.8906 226.339C37.7396 225.948 37.5078 225.646 37.1953 225.433C36.8828 225.214 36.4818 225.105 35.9922 225.105ZM43 232.761H41.6953V220.605H43V232.761ZM53.125 228.464C53.125 229.167 53.0339 229.795 52.8516 230.347C52.6693 230.899 52.4062 231.365 52.0625 231.745C51.7188 232.125 51.3021 232.417 50.8125 232.62C50.3281 232.818 49.7786 232.917 49.1641 232.917C48.5911 232.917 48.0651 232.818 47.5859 232.62C47.112 232.417 46.7005 232.125 46.3516 231.745C46.0078 231.365 45.7396 230.899 45.5469 230.347C45.3594 229.795 45.2656 229.167 45.2656 228.464C45.2656 227.526 45.4245 226.73 45.7422 226.073C46.0599 225.412 46.513 224.909 47.1016 224.565C47.6953 224.217 48.401 224.042 49.2188 224.042C50 224.042 50.6823 224.217 51.2656 224.565C51.8542 224.914 52.3099 225.42 52.6328 226.081C52.9609 226.737 53.125 227.532 53.125 228.464ZM46.6094 228.464C46.6094 229.151 46.7005 229.748 46.8828 230.253C47.0651 230.758 47.3464 231.149 47.7266 231.425C48.1068 231.701 48.5964 231.839 49.1953 231.839C49.7891 231.839 50.276 231.701 50.6562 231.425C51.0417 231.149 51.3255 230.758 51.5078 230.253C51.6901 229.748 51.7812 229.151 51.7812 228.464C51.7812 227.782 51.6901 227.193 51.5078 226.698C51.3255 226.198 51.0443 225.813 50.6641 225.542C50.2839 225.271 49.7917 225.136 49.1875 225.136C48.2969 225.136 47.6432 225.43 47.2266 226.019C46.8151 226.607 46.6094 227.422 46.6094 228.464ZM62.3359 232.745L60.8125 227.761C60.7448 227.547 60.6797 227.339 60.6172 227.136C60.5599 226.927 60.5052 226.73 60.4531 226.542C60.4062 226.349 60.362 226.172 60.3203 226.011C60.2839 225.844 60.2526 225.701 60.2266 225.581H60.1719C60.151 225.701 60.1224 225.844 60.0859 226.011C60.0495 226.172 60.0052 226.349 59.9531 226.542C59.9062 226.735 59.8542 226.938 59.7969 227.151C59.7396 227.36 59.6745 227.571 59.6016 227.784L58.0078 232.745H56.5469L54.1875 224.183H55.5312L56.7656 228.909C56.849 229.222 56.9271 229.532 57 229.839C57.0781 230.141 57.1432 230.427 57.1953 230.698C57.2526 230.964 57.2943 231.196 57.3203 231.394H57.3828C57.4141 231.263 57.4479 231.107 57.4844 230.925C57.526 230.743 57.5703 230.55 57.6172 230.347C57.6693 230.138 57.724 229.933 57.7812 229.73C57.8385 229.521 57.8958 229.326 57.9531 229.144L59.5312 224.183H60.9297L62.4531 229.136C62.5312 229.386 62.6068 229.646 62.6797 229.917C62.7578 230.188 62.8281 230.451 62.8906 230.706C62.9531 230.956 62.9974 231.18 63.0234 231.378H63.0859C63.1068 231.201 63.1458 230.982 63.2031 230.722C63.2604 230.461 63.3255 230.175 63.3984 229.862C63.4766 229.55 63.5573 229.232 63.6406 228.909L64.8906 224.183H66.2109L63.8438 232.745H62.3359ZM74.6953 231.855C74.9089 231.855 75.1276 231.836 75.3516 231.8C75.5755 231.763 75.7578 231.719 75.8984 231.667V232.675C75.7474 232.743 75.5365 232.8 75.2656 232.847C75 232.894 74.7396 232.917 74.4844 232.917C74.0312 232.917 73.6198 232.839 73.25 232.683C72.8802 232.521 72.5833 232.25 72.3594 231.87C72.1406 231.49 72.0312 230.964 72.0312 230.292V225.214H70.8125V224.581L72.0391 224.073L72.5547 222.214H73.3359V224.198H75.8438V225.214H73.3359V230.253C73.3359 230.789 73.4583 231.19 73.7031 231.456C73.9531 231.722 74.2839 231.855 74.6953 231.855ZM81.5234 224.042C81.6953 224.042 81.875 224.052 82.0625 224.073C82.25 224.089 82.4167 224.112 82.5625 224.144L82.3984 225.347C82.2578 225.31 82.1016 225.282 81.9297 225.261C81.7578 225.24 81.5964 225.23 81.4453 225.23C81.1016 225.23 80.776 225.3 80.4688 225.44C80.1667 225.576 79.901 225.774 79.6719 226.034C79.4427 226.289 79.263 226.599 79.1328 226.964C79.0026 227.323 78.9375 227.724 78.9375 228.167V232.761H77.6328V224.198H78.7109L78.8516 225.776H78.9062C79.0833 225.459 79.2969 225.17 79.5469 224.909C79.7969 224.644 80.0859 224.433 80.4141 224.276C80.7474 224.12 81.1172 224.042 81.5234 224.042ZM87.3828 224.058C88.4036 224.058 89.1615 224.287 89.6562 224.745C90.151 225.203 90.3984 225.935 90.3984 226.94V232.761H89.4531L89.2031 231.495H89.1406C88.901 231.808 88.651 232.071 88.3906 232.284C88.1302 232.493 87.8281 232.651 87.4844 232.761C87.1458 232.865 86.7292 232.917 86.2344 232.917C85.7135 232.917 85.25 232.826 84.8438 232.644C84.4427 232.461 84.125 232.185 83.8906 231.815C83.6615 231.446 83.5469 230.977 83.5469 230.409C83.5469 229.555 83.8854 228.899 84.5625 228.44C85.2396 227.982 86.2708 227.732 87.6562 227.69L89.1328 227.628V227.105C89.1328 226.365 88.974 225.847 88.6562 225.55C88.3385 225.253 87.8906 225.105 87.3125 225.105C86.8646 225.105 86.4375 225.17 86.0312 225.3C85.625 225.43 85.2396 225.584 84.875 225.761L84.4766 224.776C84.862 224.578 85.3047 224.409 85.8047 224.269C86.3047 224.128 86.8307 224.058 87.3828 224.058ZM89.1172 228.542L87.8125 228.597C86.7448 228.638 85.9922 228.813 85.5547 229.12C85.1172 229.427 84.8984 229.862 84.8984 230.425C84.8984 230.914 85.0469 231.276 85.3438 231.511C85.6406 231.745 86.0339 231.862 86.5234 231.862C87.2839 231.862 87.9062 231.651 88.3906 231.23C88.875 230.808 89.1172 230.175 89.1172 229.331V228.542ZM97.125 224.042C98.1406 224.042 98.9089 224.292 99.4297 224.792C99.9505 225.287 100.211 226.084 100.211 227.183V232.761H98.9297V227.269C98.9297 226.555 98.7656 226.021 98.4375 225.667C98.1146 225.313 97.6172 225.136 96.9453 225.136C95.9974 225.136 95.3307 225.404 94.9453 225.94C94.5599 226.477 94.3672 227.256 94.3672 228.276V232.761H93.0703V224.198H94.1172L94.3125 225.433H94.3828C94.5651 225.131 94.7969 224.878 95.0781 224.675C95.3594 224.467 95.6745 224.31 96.0234 224.206C96.3724 224.097 96.7396 224.042 97.125 224.042ZM108.422 230.417C108.422 230.964 108.284 231.425 108.008 231.8C107.737 232.17 107.346 232.448 106.836 232.636C106.331 232.823 105.727 232.917 105.023 232.917C104.424 232.917 103.906 232.87 103.469 232.776C103.031 232.683 102.648 232.55 102.32 232.378V231.183C102.669 231.355 103.086 231.511 103.57 231.651C104.055 231.792 104.549 231.862 105.055 231.862C105.794 231.862 106.331 231.743 106.664 231.503C106.997 231.263 107.164 230.938 107.164 230.526C107.164 230.292 107.096 230.086 106.961 229.909C106.831 229.727 106.609 229.552 106.297 229.386C105.984 229.214 105.552 229.026 105 228.823C104.453 228.615 103.979 228.409 103.578 228.206C103.182 227.998 102.875 227.745 102.656 227.448C102.443 227.151 102.336 226.766 102.336 226.292C102.336 225.568 102.628 225.013 103.211 224.628C103.799 224.237 104.57 224.042 105.523 224.042C106.039 224.042 106.521 224.094 106.969 224.198C107.422 224.297 107.844 224.433 108.234 224.605L107.797 225.644C107.443 225.493 107.065 225.365 106.664 225.261C106.263 225.157 105.854 225.105 105.438 225.105C104.839 225.105 104.378 225.203 104.055 225.401C103.737 225.599 103.578 225.87 103.578 226.214C103.578 226.48 103.651 226.698 103.797 226.87C103.948 227.042 104.188 227.203 104.516 227.355C104.844 227.506 105.276 227.683 105.812 227.886C106.349 228.084 106.812 228.289 107.203 228.503C107.594 228.711 107.893 228.967 108.102 229.269C108.315 229.565 108.422 229.948 108.422 230.417ZM113.555 232.917C112.471 232.917 111.612 232.547 110.977 231.808C110.346 231.068 110.031 229.969 110.031 228.511C110.031 227.037 110.354 225.925 111 225.175C111.646 224.42 112.505 224.042 113.578 224.042C114.031 224.042 114.427 224.102 114.766 224.222C115.104 224.342 115.396 224.503 115.641 224.706C115.885 224.904 116.091 225.131 116.258 225.386H116.352C116.331 225.224 116.31 225.003 116.289 224.722C116.268 224.44 116.258 224.211 116.258 224.034V220.605H117.555V232.761H116.508L116.312 231.542H116.258C116.096 231.797 115.891 232.029 115.641 232.237C115.396 232.446 115.102 232.612 114.758 232.737C114.419 232.857 114.018 232.917 113.555 232.917ZM113.758 231.839C114.674 231.839 115.323 231.578 115.703 231.058C116.083 230.537 116.273 229.763 116.273 228.737V228.503C116.273 227.414 116.091 226.578 115.727 225.995C115.367 225.412 114.711 225.12 113.758 225.12C112.961 225.12 112.365 225.427 111.969 226.042C111.573 226.651 111.375 227.485 111.375 228.542C111.375 229.594 111.57 230.407 111.961 230.98C112.357 231.552 112.956 231.839 113.758 231.839ZM127.375 224.198V232.761H126.312L126.125 231.558H126.055C125.878 231.855 125.648 232.105 125.367 232.308C125.086 232.511 124.768 232.662 124.414 232.761C124.065 232.865 123.693 232.917 123.297 232.917C122.62 232.917 122.052 232.808 121.594 232.589C121.135 232.37 120.789 232.032 120.555 231.573C120.326 231.115 120.211 230.526 120.211 229.808V224.198H121.523V229.714C121.523 230.427 121.685 230.961 122.008 231.315C122.331 231.664 122.823 231.839 123.484 231.839C124.12 231.839 124.625 231.719 125 231.48C125.38 231.24 125.654 230.888 125.82 230.425C125.987 229.956 126.07 229.383 126.07 228.706V224.198H127.375ZM133.547 232.917C132.776 232.917 132.096 232.758 131.508 232.44C130.919 232.123 130.461 231.638 130.133 230.987C129.805 230.336 129.641 229.516 129.641 228.526C129.641 227.49 129.812 226.644 130.156 225.987C130.505 225.326 130.984 224.836 131.594 224.519C132.203 224.201 132.896 224.042 133.672 224.042C134.099 224.042 134.51 224.086 134.906 224.175C135.307 224.258 135.635 224.365 135.891 224.495L135.5 225.581C135.24 225.477 134.938 225.383 134.594 225.3C134.255 225.217 133.938 225.175 133.641 225.175C133.047 225.175 132.552 225.302 132.156 225.558C131.766 225.813 131.471 226.188 131.273 226.683C131.081 227.177 130.984 227.787 130.984 228.511C130.984 229.203 131.078 229.795 131.266 230.284C131.458 230.774 131.742 231.149 132.117 231.409C132.497 231.664 132.971 231.792 133.539 231.792C133.992 231.792 134.401 231.745 134.766 231.651C135.13 231.552 135.461 231.438 135.758 231.308V232.464C135.471 232.61 135.151 232.722 134.797 232.8C134.448 232.878 134.031 232.917 133.547 232.917ZM141.086 224.042C141.815 224.042 142.44 224.203 142.961 224.526C143.482 224.849 143.88 225.302 144.156 225.886C144.432 226.464 144.57 227.141 144.57 227.917V228.722H138.656C138.672 229.727 138.922 230.493 139.406 231.019C139.891 231.545 140.573 231.808 141.453 231.808C141.995 231.808 142.474 231.758 142.891 231.659C143.307 231.56 143.74 231.414 144.188 231.222V232.362C143.755 232.555 143.326 232.696 142.898 232.784C142.477 232.873 141.977 232.917 141.398 232.917C140.576 232.917 139.857 232.75 139.242 232.417C138.633 232.078 138.159 231.584 137.82 230.933C137.482 230.282 137.312 229.485 137.312 228.542C137.312 227.62 137.466 226.823 137.773 226.151C138.086 225.474 138.523 224.953 139.086 224.589C139.654 224.224 140.32 224.042 141.086 224.042ZM141.07 225.105C140.378 225.105 139.826 225.331 139.414 225.784C139.003 226.237 138.758 226.87 138.68 227.683H143.211C143.206 227.172 143.125 226.724 142.969 226.339C142.818 225.948 142.586 225.646 142.273 225.433C141.961 225.214 141.56 225.105 141.07 225.105ZM150.664 224.042C150.836 224.042 151.016 224.052 151.203 224.073C151.391 224.089 151.557 224.112 151.703 224.144L151.539 225.347C151.398 225.31 151.242 225.282 151.07 225.261C150.898 225.24 150.737 225.23 150.586 225.23C150.242 225.23 149.917 225.3 149.609 225.44C149.307 225.576 149.042 225.774 148.812 226.034C148.583 226.289 148.404 226.599 148.273 226.964C148.143 227.323 148.078 227.724 148.078 228.167V232.761H146.773V224.198H147.852L147.992 225.776H148.047C148.224 225.459 148.438 225.17 148.688 224.909C148.938 224.644 149.227 224.433 149.555 224.276C149.888 224.12 150.258 224.042 150.664 224.042Z" fill="white"/>
<path d="M168.584 224.761L173.584 229.761L178.584 224.761H168.584Z" fill="white" fill-opacity="0.5"/>
<defs>
<clipPath id="clip0_1_7103">
<rect width="228" height="141.414" fill="white" transform="translate(48 48.6979)"/>
</clipPath>
</defs>
</svg>
