<svg width="316" height="257" viewBox="0 0 316 257" fill="none" xmlns="http://www.w3.org/2000/svg">
<path d="M0 2C0 0.895431 0.895431 0 2 0H314C315.105 0 316 0.895431 316 2V255C316 256.105 315.105 257 314 257H2C0.895432 257 0 256.105 0 255V2Z" fill="#404040"/>
<rect x="4" y="23" width="308" height="1" rx="0.5" fill="white" fill-opacity="0.12"/>
<path d="M19.6152 8.43359C20.7207 8.43359 21.5273 8.66016 22.0352 9.11328C22.543 9.56641 22.7969 10.2012 22.7969 11.0176C22.7969 11.3887 22.7383 11.7422 22.6211 12.0781C22.5078 12.4102 22.3203 12.7051 22.0586 12.9629C21.7969 13.2168 21.4512 13.418 21.0215 13.5664C20.5957 13.7148 20.0703 13.7891 19.4453 13.7891H18.5312V17H17.125V8.43359H19.6152ZM19.5215 9.59961H18.5312V12.6172H19.2988C19.7402 12.6172 20.1152 12.5664 20.4238 12.4648C20.7324 12.3594 20.9668 12.1934 21.127 11.9668C21.2871 11.7402 21.3672 11.4414 21.3672 11.0703C21.3672 10.5742 21.2168 10.2051 20.916 9.96289C20.6191 9.7207 20.1543 9.59961 19.5215 9.59961ZM25.6328 17V8.43359H27.0391V17H25.6328ZM33.3965 17H31.9844V9.62891H29.4766V8.43359H35.8984V9.62891H33.3965V17ZM41.9863 9.50586C41.5762 9.50586 41.209 9.58008 40.8848 9.72852C40.5645 9.87695 40.293 10.0918 40.0703 10.373C39.8477 10.6504 39.6777 10.9883 39.5605 11.3867C39.4434 11.7812 39.3848 12.2266 39.3848 12.7227C39.3848 13.3867 39.4785 13.959 39.666 14.4395C39.8535 14.916 40.1387 15.2832 40.5215 15.541C40.9043 15.7949 41.3887 15.9219 41.9746 15.9219C42.3379 15.9219 42.6914 15.8867 43.0352 15.8164C43.3789 15.7461 43.7344 15.6504 44.1016 15.5293V16.7246C43.7539 16.8613 43.4023 16.9609 43.0469 17.0234C42.6914 17.0859 42.2812 17.1172 41.8164 17.1172C40.9414 17.1172 40.2148 16.9355 39.6367 16.5723C39.0625 16.209 38.6328 15.6973 38.3477 15.0371C38.0664 14.377 37.9258 13.6035 37.9258 12.7168C37.9258 12.0684 38.0156 11.4746 38.1953 10.9355C38.375 10.3965 38.6367 9.93164 38.9805 9.54102C39.3242 9.14648 39.748 8.84375 40.252 8.63281C40.7598 8.41797 41.3398 8.31055 41.9922 8.31055C42.4219 8.31055 42.8438 8.35938 43.2578 8.45703C43.6758 8.55078 44.0625 8.68555 44.418 8.86133L43.9258 10.0215C43.6289 9.88086 43.3184 9.75977 42.9941 9.6582C42.6699 9.55664 42.334 9.50586 41.9863 9.50586ZM53.8223 17H52.4219V13.1328H48.4727V17H47.0664V8.43359H48.4727V11.9375H52.4219V8.43359H53.8223V17ZM63.8652 8.43359C64.6035 8.43359 65.2129 8.52344 65.6934 8.70312C66.1777 8.88281 66.5371 9.15625 66.7715 9.52344C67.0098 9.89062 67.1289 10.3574 67.1289 10.9238C67.1289 11.3457 67.0508 11.7051 66.8945 12.002C66.7383 12.2988 66.5332 12.5449 66.2793 12.7402C66.0254 12.9355 65.7539 13.0918 65.4648 13.209L67.8965 17H66.3086L64.2402 13.5664H62.8633V17H61.457V8.43359H63.8652ZM63.7715 9.60547H62.8633V12.4062H63.8359C64.4883 12.4062 64.9609 12.2852 65.2539 12.043C65.5508 11.8008 65.6992 11.4434 65.6992 10.9707C65.6992 10.4746 65.541 10.123 65.2246 9.91602C64.9121 9.70898 64.4277 9.60547 63.7715 9.60547ZM77.8516 12.7051C77.8516 13.3652 77.7676 13.9668 77.5996 14.5098C77.4355 15.0488 77.1875 15.5137 76.8555 15.9043C76.5234 16.291 76.1074 16.5898 75.6074 16.8008C75.1074 17.0117 74.5215 17.1172 73.8496 17.1172C73.166 17.1172 72.5723 17.0117 72.0684 16.8008C71.5684 16.5898 71.1523 16.2891 70.8203 15.8984C70.4922 15.5078 70.2461 15.041 70.082 14.498C69.918 13.9551 69.8359 13.3535 69.8359 12.6934C69.8359 11.8105 69.9805 11.041 70.2695 10.3848C70.5625 9.72461 71.0059 9.21289 71.5996 8.84961C72.1973 8.48242 72.9512 8.29883 73.8613 8.29883C74.752 8.29883 75.4922 8.48047 76.082 8.84375C76.6719 9.20703 77.1133 9.71875 77.4062 10.3789C77.7031 11.0352 77.8516 11.8105 77.8516 12.7051ZM71.3125 12.7051C71.3125 13.3652 71.4023 13.9375 71.582 14.4219C71.7617 14.9023 72.0371 15.2734 72.4082 15.5352C72.7832 15.793 73.2637 15.9219 73.8496 15.9219C74.4395 15.9219 74.9199 15.793 75.291 15.5352C75.6621 15.2734 75.9355 14.9023 76.1113 14.4219C76.2871 13.9375 76.375 13.3652 76.375 12.7051C76.375 11.7012 76.1738 10.916 75.7715 10.3496C75.373 9.7793 74.7363 9.49414 73.8613 9.49414C73.2754 9.49414 72.793 9.62305 72.4141 9.88086C72.0391 10.1387 71.7617 10.5078 71.582 10.9883C71.4023 11.4648 71.3125 12.0371 71.3125 12.7051ZM80.8164 17V8.43359H82.2227V15.8047H85.8613V17H80.8164ZM88.4688 17V8.43359H89.875V15.8047H93.5137V17H88.4688Z" fill="white" fill-opacity="0.5"/>
<path d="M34.1172 205.566C35.5911 205.566 36.6667 205.855 37.3438 206.433C38.026 207.006 38.3672 207.829 38.3672 208.902C38.3672 209.387 38.2865 209.847 38.125 210.285C37.9688 210.717 37.7135 211.1 37.3594 211.433C37.0052 211.762 36.5391 212.022 35.9609 212.215C35.388 212.402 34.6849 212.496 33.8516 212.496H32.4609V216.988H31.1328V205.566H34.1172ZM33.9922 206.699H32.4609V211.355H33.7031C34.4323 211.355 35.0391 211.277 35.5234 211.121C36.013 210.965 36.3802 210.712 36.625 210.363C36.8698 210.009 36.9922 209.54 36.9922 208.957C36.9922 208.196 36.75 207.631 36.2656 207.262C35.7812 206.887 35.0234 206.699 33.9922 206.699ZM41.8594 208.426V216.988H40.5625V208.426H41.8594ZM41.2266 205.222C41.4401 205.222 41.6224 205.293 41.7734 205.433C41.9297 205.569 42.0078 205.782 42.0078 206.074C42.0078 206.36 41.9297 206.574 41.7734 206.715C41.6224 206.855 41.4401 206.926 41.2266 206.926C41.0026 206.926 40.8151 206.855 40.6641 206.715C40.5182 206.574 40.4453 206.36 40.4453 206.074C40.4453 205.782 40.5182 205.569 40.6641 205.433C40.8151 205.293 41.0026 205.222 41.2266 205.222ZM47.375 216.082C47.5885 216.082 47.8073 216.064 48.0312 216.027C48.2552 215.991 48.4375 215.946 48.5781 215.894V216.902C48.4271 216.97 48.2161 217.027 47.9453 217.074C47.6797 217.121 47.4193 217.144 47.1641 217.144C46.7109 217.144 46.2995 217.066 45.9297 216.91C45.5599 216.749 45.263 216.478 45.0391 216.097C44.8203 215.717 44.7109 215.191 44.7109 214.519V209.441H43.4922V208.808L44.7188 208.301L45.2344 206.441H46.0156V208.426H48.5234V209.441H46.0156V214.48C46.0156 215.017 46.138 215.418 46.3828 215.683C46.6328 215.949 46.9635 216.082 47.375 216.082ZM53.7422 217.144C52.9714 217.144 52.2917 216.985 51.7031 216.668C51.1146 216.35 50.6562 215.866 50.3281 215.215C50 214.564 49.8359 213.743 49.8359 212.754C49.8359 211.717 50.0078 210.871 50.3516 210.215C50.7005 209.553 51.1797 209.064 51.7891 208.746C52.3984 208.428 53.0911 208.269 53.8672 208.269C54.2943 208.269 54.7057 208.314 55.1016 208.402C55.5026 208.485 55.8307 208.592 56.0859 208.722L55.6953 209.808C55.4349 209.704 55.1328 209.61 54.7891 209.527C54.4505 209.444 54.1328 209.402 53.8359 209.402C53.2422 209.402 52.7474 209.53 52.3516 209.785C51.9609 210.04 51.6667 210.415 51.4688 210.91C51.276 211.405 51.1797 212.014 51.1797 212.738C51.1797 213.431 51.2734 214.022 51.4609 214.512C51.6536 215.001 51.9375 215.376 52.3125 215.637C52.6927 215.892 53.1667 216.019 53.7344 216.019C54.1875 216.019 54.5964 215.972 54.9609 215.879C55.3255 215.78 55.6562 215.665 55.9531 215.535V216.691C55.6667 216.837 55.3464 216.949 54.9922 217.027C54.6432 217.105 54.2266 217.144 53.7422 217.144ZM59.2812 204.832V208.465C59.2812 208.673 59.276 208.884 59.2656 209.097C59.2552 209.306 59.237 209.499 59.2109 209.676H59.2969C59.474 209.374 59.6979 209.121 59.9688 208.918C60.2448 208.709 60.5573 208.553 60.9062 208.449C61.2552 208.34 61.625 208.285 62.0156 208.285C62.7031 208.285 63.276 208.394 63.7344 208.613C64.1979 208.832 64.5443 209.17 64.7734 209.629C65.0078 210.087 65.125 210.681 65.125 211.41V216.988H63.8438V211.496C63.8438 210.782 63.6797 210.249 63.3516 209.894C63.0286 209.54 62.5312 209.363 61.8594 209.363C61.224 209.363 60.7161 209.485 60.3359 209.73C59.9609 209.97 59.6901 210.324 59.5234 210.793C59.362 211.262 59.2812 211.834 59.2812 212.512V216.988H57.9844V204.832H59.2812Z" fill="white" fill-opacity="0.5"/>
<path d="M41.4531 231.269C41.4531 232.191 41.3802 233.017 41.2344 233.746C41.0938 234.47 40.8698 235.084 40.5625 235.59C40.2552 236.095 39.8542 236.48 39.3594 236.746C38.8646 237.012 38.2656 237.144 37.5625 237.144C36.6823 237.144 35.9557 236.913 35.3828 236.449C34.8099 235.98 34.3854 235.308 34.1094 234.433C33.8333 233.553 33.6953 232.499 33.6953 231.269C33.6953 230.04 33.8203 228.988 34.0703 228.113C34.3255 227.233 34.737 226.558 35.3047 226.09C35.8724 225.621 36.625 225.387 37.5625 225.387C38.4479 225.387 39.1771 225.621 39.75 226.09C40.3281 226.553 40.7552 227.225 41.0312 228.105C41.3125 228.98 41.4531 230.035 41.4531 231.269ZM35.5469 231.269C35.5469 232.233 35.6094 233.038 35.7344 233.683C35.8646 234.329 36.0781 234.814 36.375 235.137C36.6719 235.454 37.0677 235.613 37.5625 235.613C38.0573 235.613 38.4531 235.454 38.75 235.137C39.0469 234.819 39.2604 234.337 39.3906 233.691C39.526 233.045 39.5938 232.238 39.5938 231.269C39.5938 230.311 39.5286 229.509 39.3984 228.863C39.2682 228.217 39.0547 227.733 38.7578 227.41C38.4609 227.082 38.0625 226.918 37.5625 226.918C37.0625 226.918 36.6641 227.082 36.3672 227.41C36.0755 227.733 35.8646 228.217 35.7344 228.863C35.6094 229.509 35.5469 230.311 35.5469 231.269ZM43.2031 236.019C43.2031 235.592 43.3125 235.293 43.5312 235.121C43.7552 234.944 44.026 234.855 44.3438 234.855C44.6615 234.855 44.9323 234.944 45.1562 235.121C45.3854 235.293 45.5 235.592 45.5 236.019C45.5 236.436 45.3854 236.738 45.1562 236.926C44.9323 237.108 44.6615 237.199 44.3438 237.199C44.026 237.199 43.7552 237.108 43.5312 236.926C43.3125 236.738 43.2031 236.436 43.2031 236.019ZM55 231.269C55 232.191 54.9271 233.017 54.7812 233.746C54.6406 234.47 54.4167 235.084 54.1094 235.59C53.8021 236.095 53.401 236.48 52.9062 236.746C52.4115 237.012 51.8125 237.144 51.1094 237.144C50.2292 237.144 49.5026 236.913 48.9297 236.449C48.3568 235.98 47.9323 235.308 47.6562 234.433C47.3802 233.553 47.2422 232.499 47.2422 231.269C47.2422 230.04 47.3672 228.988 47.6172 228.113C47.8724 227.233 48.2839 226.558 48.8516 226.09C49.4193 225.621 50.1719 225.387 51.1094 225.387C51.9948 225.387 52.724 225.621 53.2969 226.09C53.875 226.553 54.3021 227.225 54.5781 228.105C54.8594 228.98 55 230.035 55 231.269ZM49.0938 231.269C49.0938 232.233 49.1562 233.038 49.2812 233.683C49.4115 234.329 49.625 234.814 49.9219 235.137C50.2188 235.454 50.6146 235.613 51.1094 235.613C51.6042 235.613 52 235.454 52.2969 235.137C52.5938 234.819 52.8073 234.337 52.9375 233.691C53.0729 233.045 53.1406 232.238 53.1406 231.269C53.1406 230.311 53.0755 229.509 52.9453 228.863C52.8151 228.217 52.6016 227.733 52.3047 227.41C52.0078 227.082 51.6094 226.918 51.1094 226.918C50.6094 226.918 50.2109 227.082 49.9141 227.41C49.6224 227.733 49.4115 228.217 49.2812 228.863C49.1562 229.509 49.0938 230.311 49.0938 231.269ZM59.125 230.535C58.6042 230.535 58.1432 230.428 57.7422 230.215C57.3464 229.996 57.0365 229.694 56.8125 229.308C56.5885 228.923 56.4766 228.478 56.4766 227.972C56.4766 227.472 56.5859 227.03 56.8047 226.644C57.0286 226.254 57.3385 225.949 57.7344 225.73C58.1354 225.512 58.599 225.402 59.125 225.402C59.651 225.402 60.112 225.512 60.5078 225.73C60.9036 225.949 61.2135 226.251 61.4375 226.637C61.6667 227.022 61.7812 227.467 61.7812 227.972C61.7812 228.478 61.6667 228.923 61.4375 229.308C61.2135 229.694 60.9036 229.996 60.5078 230.215C60.112 230.428 59.651 230.535 59.125 230.535ZM59.1328 229.347C59.5599 229.347 59.8958 229.222 60.1406 228.972C60.3854 228.722 60.5078 228.389 60.5078 227.972C60.5078 227.54 60.3828 227.199 60.1328 226.949C59.8828 226.699 59.5495 226.574 59.1328 226.574C58.7057 226.574 58.3672 226.699 58.1172 226.949C57.8724 227.199 57.75 227.54 57.75 227.972C57.75 228.389 57.8724 228.722 58.1172 228.972C58.362 229.222 58.7005 229.347 59.1328 229.347Z" fill="#33BBFF"/>
<path d="M148.796 205.566C149.734 205.566 150.507 205.683 151.116 205.918C151.731 206.147 152.189 206.499 152.491 206.972C152.793 207.446 152.944 208.051 152.944 208.785C152.944 209.389 152.835 209.894 152.616 210.301C152.398 210.702 152.111 211.027 151.757 211.277C151.403 211.527 151.025 211.72 150.624 211.855L153.757 216.988H152.21L149.413 212.222H147.038V216.988H145.71V205.566H148.796ZM148.718 206.715H147.038V211.097H148.851C149.783 211.097 150.468 210.907 150.905 210.527C151.348 210.147 151.569 209.587 151.569 208.847C151.569 208.071 151.335 207.522 150.866 207.199C150.403 206.876 149.687 206.715 148.718 206.715ZM162.773 212.691C162.773 213.394 162.681 214.022 162.499 214.574C162.317 215.126 162.054 215.592 161.71 215.972C161.366 216.353 160.95 216.644 160.46 216.847C159.976 217.045 159.426 217.144 158.812 217.144C158.239 217.144 157.713 217.045 157.234 216.847C156.76 216.644 156.348 216.353 155.999 215.972C155.655 215.592 155.387 215.126 155.194 214.574C155.007 214.022 154.913 213.394 154.913 212.691C154.913 211.754 155.072 210.957 155.39 210.301C155.707 209.639 156.161 209.137 156.749 208.793C157.343 208.444 158.049 208.269 158.866 208.269C159.648 208.269 160.33 208.444 160.913 208.793C161.502 209.142 161.957 209.647 162.28 210.308C162.609 210.965 162.773 211.759 162.773 212.691ZM156.257 212.691C156.257 213.379 156.348 213.975 156.53 214.48C156.713 214.985 156.994 215.376 157.374 215.652C157.754 215.928 158.244 216.066 158.843 216.066C159.437 216.066 159.924 215.928 160.304 215.652C160.689 215.376 160.973 214.985 161.155 214.48C161.338 213.975 161.429 213.379 161.429 212.691C161.429 212.009 161.338 211.42 161.155 210.926C160.973 210.426 160.692 210.04 160.312 209.769C159.931 209.499 159.439 209.363 158.835 209.363C157.944 209.363 157.291 209.657 156.874 210.246C156.463 210.834 156.257 211.65 156.257 212.691ZM166.319 216.988H165.015V204.832H166.319V216.988ZM170.366 216.988H169.062V204.832H170.366V216.988Z" fill="white" fill-opacity="0.5"/>
<path d="M151.398 231.269C151.398 232.191 151.325 233.017 151.179 233.746C151.038 234.47 150.814 235.084 150.507 235.59C150.2 236.095 149.799 236.48 149.304 236.746C148.809 237.012 148.21 237.144 147.507 237.144C146.627 237.144 145.9 236.913 145.327 236.449C144.754 235.98 144.33 235.308 144.054 234.433C143.778 233.553 143.64 232.499 143.64 231.269C143.64 230.04 143.765 228.988 144.015 228.113C144.27 227.233 144.681 226.558 145.249 226.09C145.817 225.621 146.569 225.387 147.507 225.387C148.392 225.387 149.122 225.621 149.694 226.09C150.273 226.553 150.7 227.225 150.976 228.105C151.257 228.98 151.398 230.035 151.398 231.269ZM145.491 231.269C145.491 232.233 145.554 233.038 145.679 233.683C145.809 234.329 146.023 234.814 146.319 235.137C146.616 235.454 147.012 235.613 147.507 235.613C148.002 235.613 148.398 235.454 148.694 235.137C148.991 234.819 149.205 234.337 149.335 233.691C149.47 233.045 149.538 232.238 149.538 231.269C149.538 230.311 149.473 229.509 149.343 228.863C149.213 228.217 148.999 227.733 148.702 227.41C148.405 227.082 148.007 226.918 147.507 226.918C147.007 226.918 146.609 227.082 146.312 227.41C146.02 227.733 145.809 228.217 145.679 228.863C145.554 229.509 145.491 230.311 145.491 231.269ZM153.148 236.019C153.148 235.592 153.257 235.293 153.476 235.121C153.7 234.944 153.97 234.855 154.288 234.855C154.606 234.855 154.877 234.944 155.101 235.121C155.33 235.293 155.444 235.592 155.444 236.019C155.444 236.436 155.33 236.738 155.101 236.926C154.877 237.108 154.606 237.199 154.288 237.199C153.97 237.199 153.7 237.108 153.476 236.926C153.257 236.738 153.148 236.436 153.148 236.019ZM164.929 230.433C164.929 231.11 164.879 231.775 164.78 232.426C164.687 233.077 164.52 233.686 164.28 234.254C164.046 234.821 163.72 235.324 163.304 235.762C162.892 236.194 162.372 236.532 161.741 236.777C161.111 237.022 160.351 237.144 159.46 237.144C159.236 237.144 158.976 237.131 158.679 237.105C158.387 237.084 158.148 237.053 157.96 237.012V235.48C158.158 235.538 158.379 235.584 158.624 235.621C158.874 235.652 159.122 235.668 159.366 235.668C160.33 235.668 161.08 235.488 161.616 235.129C162.158 234.769 162.541 234.275 162.765 233.644C162.994 233.014 163.124 232.298 163.155 231.496H163.062C162.911 231.746 162.72 231.975 162.491 232.183C162.262 232.387 161.978 232.551 161.64 232.676C161.301 232.795 160.89 232.855 160.405 232.855C159.749 232.855 159.176 232.717 158.687 232.441C158.202 232.165 157.825 231.764 157.554 231.238C157.288 230.707 157.155 230.069 157.155 229.324C157.155 228.517 157.309 227.821 157.616 227.238C157.924 226.655 158.359 226.207 158.921 225.894C159.484 225.577 160.145 225.418 160.905 225.418C161.478 225.418 162.007 225.522 162.491 225.73C162.981 225.933 163.408 226.246 163.773 226.668C164.137 227.084 164.421 227.608 164.624 228.238C164.827 228.863 164.929 229.595 164.929 230.433ZM160.929 226.933C160.351 226.933 159.879 227.129 159.515 227.519C159.15 227.905 158.968 228.499 158.968 229.301C158.968 229.952 159.124 230.467 159.437 230.847C159.749 231.228 160.228 231.418 160.874 231.418C161.322 231.418 161.707 231.327 162.03 231.144C162.359 230.957 162.611 230.72 162.788 230.433C162.97 230.147 163.062 229.855 163.062 229.558C163.062 229.251 163.017 228.944 162.929 228.637C162.845 228.329 162.715 228.048 162.538 227.793C162.361 227.538 162.137 227.332 161.866 227.176C161.601 227.014 161.288 226.933 160.929 226.933ZM169.069 230.535C168.549 230.535 168.088 230.428 167.687 230.215C167.291 229.996 166.981 229.694 166.757 229.308C166.533 228.923 166.421 228.478 166.421 227.972C166.421 227.472 166.53 227.03 166.749 226.644C166.973 226.254 167.283 225.949 167.679 225.73C168.08 225.512 168.543 225.402 169.069 225.402C169.595 225.402 170.056 225.512 170.452 225.73C170.848 225.949 171.158 226.251 171.382 226.637C171.611 227.022 171.726 227.467 171.726 227.972C171.726 228.478 171.611 228.923 171.382 229.308C171.158 229.694 170.848 229.996 170.452 230.215C170.056 230.428 169.595 230.535 169.069 230.535ZM169.077 229.347C169.504 229.347 169.84 229.222 170.085 228.972C170.33 228.722 170.452 228.389 170.452 227.972C170.452 227.54 170.327 227.199 170.077 226.949C169.827 226.699 169.494 226.574 169.077 226.574C168.65 226.574 168.312 226.699 168.062 226.949C167.817 227.199 167.694 227.54 167.694 227.972C167.694 228.389 167.817 228.722 168.062 228.972C168.306 229.222 168.645 229.347 169.077 229.347Z" fill="#33BBFF"/>
<path d="M254.78 216.988H253.451V211.605H247.451V216.988H246.123V205.566H247.451V210.433H253.451V205.566H254.78V216.988ZM261.022 208.269C261.751 208.269 262.376 208.431 262.897 208.754C263.418 209.077 263.816 209.53 264.092 210.113C264.368 210.691 264.506 211.368 264.506 212.144V212.949H258.592C258.608 213.954 258.858 214.72 259.342 215.246C259.826 215.772 260.509 216.035 261.389 216.035C261.931 216.035 262.41 215.985 262.826 215.887C263.243 215.788 263.675 215.642 264.123 215.449V216.59C263.691 216.782 263.261 216.923 262.834 217.012C262.412 217.1 261.912 217.144 261.334 217.144C260.511 217.144 259.793 216.978 259.178 216.644C258.569 216.306 258.095 215.811 257.756 215.16C257.418 214.509 257.248 213.712 257.248 212.769C257.248 211.847 257.402 211.051 257.709 210.379C258.022 209.702 258.459 209.181 259.022 208.816C259.589 208.452 260.256 208.269 261.022 208.269ZM261.006 209.332C260.313 209.332 259.761 209.558 259.35 210.012C258.938 210.465 258.694 211.097 258.615 211.91H263.147C263.142 211.4 263.061 210.952 262.905 210.566C262.753 210.176 262.522 209.874 262.209 209.66C261.897 209.441 261.496 209.332 261.006 209.332ZM269.912 208.285C270.933 208.285 271.691 208.514 272.186 208.972C272.681 209.431 272.928 210.163 272.928 211.168V216.988H271.983L271.733 215.722H271.67C271.431 216.035 271.181 216.298 270.92 216.512C270.66 216.72 270.358 216.879 270.014 216.988C269.675 217.092 269.259 217.144 268.764 217.144C268.243 217.144 267.78 217.053 267.373 216.871C266.972 216.689 266.655 216.413 266.42 216.043C266.191 215.673 266.076 215.204 266.076 214.637C266.076 213.782 266.415 213.126 267.092 212.668C267.769 212.209 268.8 211.959 270.186 211.918L271.662 211.855V211.332C271.662 210.592 271.503 210.074 271.186 209.777C270.868 209.48 270.42 209.332 269.842 209.332C269.394 209.332 268.967 209.397 268.561 209.527C268.155 209.657 267.769 209.811 267.405 209.988L267.006 209.004C267.392 208.806 267.834 208.637 268.334 208.496C268.834 208.355 269.36 208.285 269.912 208.285ZM271.647 212.769L270.342 212.824C269.274 212.866 268.522 213.04 268.084 213.347C267.647 213.655 267.428 214.09 267.428 214.652C267.428 215.142 267.576 215.504 267.873 215.738C268.17 215.972 268.563 216.09 269.053 216.09C269.813 216.09 270.436 215.879 270.92 215.457C271.405 215.035 271.647 214.402 271.647 213.558V212.769ZM277.483 216.988L274.233 208.426H275.623L277.506 213.605C277.636 213.959 277.769 214.35 277.905 214.777C278.04 215.204 278.134 215.548 278.186 215.808H278.24C278.303 215.548 278.407 215.204 278.553 214.777C278.699 214.345 278.832 213.954 278.951 213.605L280.834 208.426H282.225L278.967 216.988H277.483ZM286.897 208.269C287.626 208.269 288.251 208.431 288.772 208.754C289.293 209.077 289.691 209.53 289.967 210.113C290.243 210.691 290.381 211.368 290.381 212.144V212.949H284.467C284.483 213.954 284.733 214.72 285.217 215.246C285.701 215.772 286.384 216.035 287.264 216.035C287.806 216.035 288.285 215.985 288.701 215.887C289.118 215.788 289.55 215.642 289.998 215.449V216.59C289.566 216.782 289.136 216.923 288.709 217.012C288.287 217.1 287.787 217.144 287.209 217.144C286.386 217.144 285.668 216.978 285.053 216.644C284.444 216.306 283.97 215.811 283.631 215.16C283.293 214.509 283.123 213.712 283.123 212.769C283.123 211.847 283.277 211.051 283.584 210.379C283.897 209.702 284.334 209.181 284.897 208.816C285.464 208.452 286.131 208.269 286.897 208.269ZM286.881 209.332C286.188 209.332 285.636 209.558 285.225 210.012C284.813 210.465 284.569 211.097 284.49 211.91H289.022C289.017 211.4 288.936 210.952 288.78 210.566C288.628 210.176 288.397 209.874 288.084 209.66C287.772 209.441 287.371 209.332 286.881 209.332Z" fill="white" fill-opacity="0.5"/>
<path d="M241.342 231.269C241.342 232.191 241.269 233.017 241.123 233.746C240.983 234.47 240.759 235.084 240.451 235.59C240.144 236.095 239.743 236.48 239.248 236.746C238.753 237.012 238.155 237.144 237.451 237.144C236.571 237.144 235.845 236.913 235.272 236.449C234.699 235.98 234.274 235.308 233.998 234.433C233.722 233.553 233.584 232.499 233.584 231.269C233.584 230.04 233.709 228.988 233.959 228.113C234.214 227.233 234.626 226.558 235.194 226.09C235.761 225.621 236.514 225.387 237.451 225.387C238.337 225.387 239.066 225.621 239.639 226.09C240.217 226.553 240.644 227.225 240.92 228.105C241.201 228.98 241.342 230.035 241.342 231.269ZM235.436 231.269C235.436 232.233 235.498 233.038 235.623 233.683C235.753 234.329 235.967 234.814 236.264 235.137C236.561 235.454 236.957 235.613 237.451 235.613C237.946 235.613 238.342 235.454 238.639 235.137C238.936 234.819 239.149 234.337 239.28 233.691C239.415 233.045 239.483 232.238 239.483 231.269C239.483 230.311 239.418 229.509 239.287 228.863C239.157 228.217 238.944 227.733 238.647 227.41C238.35 227.082 237.951 226.918 237.451 226.918C236.951 226.918 236.553 227.082 236.256 227.41C235.964 227.733 235.753 228.217 235.623 228.863C235.498 229.509 235.436 230.311 235.436 231.269ZM243.092 236.019C243.092 235.592 243.201 235.293 243.42 235.121C243.644 234.944 243.915 234.855 244.233 234.855C244.55 234.855 244.821 234.944 245.045 235.121C245.274 235.293 245.389 235.592 245.389 236.019C245.389 236.436 245.274 236.738 245.045 236.926C244.821 237.108 244.55 237.199 244.233 237.199C243.915 237.199 243.644 237.108 243.42 236.926C243.201 236.738 243.092 236.436 243.092 236.019ZM252.553 236.988H250.709V229.637C250.709 229.392 250.712 229.147 250.717 228.902C250.722 228.657 250.727 228.418 250.733 228.183C250.743 227.949 250.756 227.725 250.772 227.512C250.662 227.631 250.527 227.762 250.365 227.902C250.209 228.043 250.043 228.189 249.865 228.34L248.553 229.387L247.631 228.222L251.022 225.566H252.553V236.988ZM264.045 236.988H256.311V235.605L259.272 232.605C259.845 232.022 260.316 231.519 260.686 231.097C261.056 230.67 261.329 230.267 261.506 229.887C261.688 229.506 261.78 229.092 261.78 228.644C261.78 228.092 261.621 227.676 261.303 227.394C260.985 227.108 260.566 226.965 260.045 226.965C259.55 226.965 259.092 227.064 258.67 227.262C258.253 227.454 257.821 227.73 257.373 228.09L256.365 226.879C256.683 226.608 257.022 226.36 257.381 226.137C257.746 225.913 258.152 225.735 258.6 225.605C259.048 225.47 259.558 225.402 260.131 225.402C260.855 225.402 261.48 225.532 262.006 225.793C262.532 226.048 262.936 226.405 263.217 226.863C263.503 227.321 263.647 227.855 263.647 228.465C263.647 229.079 263.524 229.647 263.28 230.168C263.035 230.689 262.686 231.204 262.233 231.715C261.78 232.22 261.24 232.769 260.615 233.363L258.639 235.293V235.379H264.045V236.988Z" fill="#33BBFF"/>
<path d="M275.553 228.269C276.496 228.269 277.207 228.517 277.686 229.012C278.165 229.501 278.405 230.29 278.405 231.379V236.988H277.123V231.441C277.123 230.749 276.972 230.23 276.67 229.887C276.373 229.538 275.931 229.363 275.342 229.363C274.514 229.363 273.912 229.603 273.537 230.082C273.162 230.561 272.975 231.267 272.975 232.199V236.988H271.686V231.441C271.686 230.978 271.618 230.592 271.483 230.285C271.352 229.978 271.155 229.749 270.889 229.597C270.628 229.441 270.298 229.363 269.897 229.363C269.329 229.363 268.873 229.48 268.53 229.715C268.186 229.949 267.936 230.298 267.78 230.762C267.628 231.22 267.553 231.785 267.553 232.457V236.988H266.256V228.426H267.303L267.498 229.637H267.569C267.74 229.34 267.957 229.09 268.217 228.887C268.477 228.683 268.769 228.53 269.092 228.426C269.415 228.321 269.759 228.269 270.123 228.269C270.774 228.269 271.319 228.392 271.756 228.637C272.199 228.876 272.519 229.243 272.717 229.738H272.787C273.069 229.243 273.454 228.876 273.944 228.637C274.433 228.392 274.97 228.269 275.553 228.269ZM285.397 225.566L281.147 236.988H279.865L284.123 225.566H285.397ZM292.483 234.644C292.483 235.191 292.345 235.652 292.069 236.027C291.798 236.397 291.407 236.676 290.897 236.863C290.392 237.051 289.787 237.144 289.084 237.144C288.485 237.144 287.967 237.097 287.53 237.004C287.092 236.91 286.709 236.777 286.381 236.605V235.41C286.73 235.582 287.147 235.738 287.631 235.879C288.115 236.019 288.61 236.09 289.115 236.09C289.855 236.09 290.392 235.97 290.725 235.73C291.058 235.491 291.225 235.165 291.225 234.754C291.225 234.519 291.157 234.314 291.022 234.137C290.892 233.954 290.67 233.78 290.358 233.613C290.045 233.441 289.613 233.254 289.061 233.051C288.514 232.842 288.04 232.637 287.639 232.433C287.243 232.225 286.936 231.972 286.717 231.676C286.503 231.379 286.397 230.993 286.397 230.519C286.397 229.795 286.688 229.241 287.272 228.855C287.86 228.465 288.631 228.269 289.584 228.269C290.1 228.269 290.582 228.321 291.03 228.426C291.483 228.525 291.905 228.66 292.295 228.832L291.858 229.871C291.503 229.72 291.126 229.592 290.725 229.488C290.324 229.384 289.915 229.332 289.498 229.332C288.899 229.332 288.438 229.431 288.115 229.629C287.798 229.827 287.639 230.097 287.639 230.441C287.639 230.707 287.712 230.926 287.858 231.097C288.009 231.269 288.248 231.431 288.576 231.582C288.905 231.733 289.337 231.91 289.873 232.113C290.41 232.311 290.873 232.517 291.264 232.73C291.655 232.939 291.954 233.194 292.162 233.496C292.376 233.793 292.483 234.176 292.483 234.644ZM301.475 236.988H293.99V235.902L297.045 232.801C297.613 232.228 298.089 231.717 298.475 231.269C298.865 230.821 299.162 230.381 299.365 229.949C299.569 229.512 299.67 229.032 299.67 228.512C299.67 227.866 299.477 227.374 299.092 227.035C298.712 226.691 298.209 226.519 297.584 226.519C297.037 226.519 296.553 226.613 296.131 226.801C295.709 226.988 295.277 227.254 294.834 227.597L294.139 226.722C294.441 226.467 294.769 226.241 295.123 226.043C295.483 225.845 295.865 225.689 296.272 225.574C296.683 225.459 297.121 225.402 297.584 225.402C298.287 225.402 298.894 225.525 299.405 225.769C299.915 226.014 300.308 226.363 300.584 226.816C300.865 227.269 301.006 227.808 301.006 228.433C301.006 229.038 300.886 229.6 300.647 230.121C300.407 230.637 300.071 231.15 299.639 231.66C299.207 232.165 298.701 232.702 298.123 233.269L295.639 235.746V235.801H301.475V236.988Z" fill="white" fill-opacity="0.5"/>
<rect width="86.125" height="1.625" transform="translate(224.625 61.9375) rotate(90)" fill="#999999"/>
<path d="M236 104.938L223 104.937M236 147.438L223 147.437M236 62.4375L223 62.4375" stroke="#999999"/>
<path d="M210 79.6039V90.6456L223 85.1247L210 79.6039Z" fill="#33BBFF"/>
<rect width="11.375" height="43.0625" transform="matrix(-1 0 0 1 236 83.4688)" fill="#33BBFF" fill-opacity="0.3"/>
<mask id="mask0_1_7111" style="mask-type:alpha" maskUnits="userSpaceOnUse" x="85" y="70" width="70" height="71">
<path d="M94.612 139.499C88.6439 129.162 85.502 117.436 85.502 105.5C85.502 93.5639 88.6439 81.838 94.612 71.501L153.5 105.5L94.612 139.499Z" fill="#C4C4C4"/>
<path d="M94.612 139.499L94.179 139.749L94.429 140.182L94.862 139.932L94.612 139.499ZM94.612 71.501L94.862 71.068L94.429 70.818L94.179 71.251L94.612 71.501ZM153.5 105.5L153.75 105.933L154.5 105.5L153.75 105.067L153.5 105.5ZM95.045 139.249C89.1208 128.988 86.002 117.348 86.002 105.5H85.002C85.002 117.524 88.167 129.336 94.179 139.749L95.045 139.249ZM86.002 105.5C86.002 93.6516 89.1208 82.012 95.045 71.751L94.179 71.251C88.167 81.664 85.002 93.4761 85.002 105.5H86.002ZM94.362 71.934L153.25 105.933L153.75 105.067L94.862 71.068L94.362 71.934ZM153.25 105.067L94.362 139.066L94.862 139.932L153.75 105.933L153.25 105.067Z" fill="black"/>
</mask>
<g mask="url(#mask0_1_7111)">
<circle cx="153.5" cy="105.5" r="67.5312" stroke="#999999"/>
<path d="M153.5 43.625V48.7812M142.756 44.565L143.651 49.643M132.338 47.3565L134.101 52.2018M122.562 51.9147L125.141 56.3801M113.728 58.101L117.042 62.0509M106.101 65.7275L110.051 69.0419M99.9147 74.5625L104.38 77.1406M95.3565 84.3375L100.202 86.101M92.565 94.7556L97.6429 95.6509M91.625 105.5H96.7812M92.565 116.244L97.6429 115.349M95.3565 126.663L100.202 124.899M99.9147 136.438L104.38 133.859M106.101 145.273L110.051 141.958M113.728 152.899L117.042 148.949M122.562 159.085L125.141 154.62M132.338 163.643L134.101 158.798M142.756 166.435L143.651 161.357M153.5 167.375V162.219M164.244 166.435L163.349 161.357M174.662 163.643L172.899 158.798M184.438 159.085L181.859 154.62M193.272 152.899L189.958 148.949M200.899 145.273L196.949 141.958M207.085 136.438L202.62 133.859M211.643 126.663L206.798 124.899M214.435 116.244L209.357 115.349M215.375 105.5H210.219M214.435 94.7556L209.357 95.6509M211.643 84.3375L206.798 86.101M207.085 74.5625L202.62 77.1406M200.899 65.7275L196.949 69.0419M193.272 58.101L189.958 62.0509M184.438 51.9147L181.859 56.3801M174.662 47.3565L172.899 52.2018M164.244 44.565L163.349 49.643" stroke="#999999" stroke-linejoin="round"/>
<path d="M187.016 47.4492L181.859 56.3801M125.141 154.62L119.984 163.551M95.4492 71.9844L104.38 77.1406M202.62 133.859L211.551 139.016M211.551 71.9844L202.62 77.1406M104.38 133.859L95.4493 139.016M119.984 47.4492L125.141 56.3801M181.859 154.62L187.016 163.551M153.5 38.4688V48.7812M153.5 162.219V172.531M86.4688 105.5H96.7812M210.219 105.5H220.531" stroke="#999999"/>
</g>
<mask id="path-19-inside-1_1_7111" fill="white">
<path fill-rule="evenodd" clip-rule="evenodd" d="M143.188 95.1875H122.562C122.562 106.578 131.797 115.812 143.188 115.812H184.438V95.1875H143.188Z"/>
</mask>
<path fill-rule="evenodd" clip-rule="evenodd" d="M143.188 95.1875H122.562C122.562 106.578 131.797 115.812 143.188 115.812H184.438V95.1875H143.188Z" fill="#383838"/>
<path d="M122.562 95.1875V94.1875H121.562V95.1875H122.562ZM184.438 115.812V116.812H185.438V115.812H184.438ZM184.438 95.1875H185.438V94.1875H184.438V95.1875ZM122.562 96.1875H143.188V94.1875H122.562V96.1875ZM143.188 114.812C132.349 114.812 123.562 106.026 123.562 95.1875H121.562C121.562 107.131 131.244 116.812 143.188 116.812V114.812ZM184.438 114.812H143.188V116.812H184.438V114.812ZM183.438 95.1875V115.812H185.438V95.1875H183.438ZM143.188 96.1875H184.438V94.1875H143.188V96.1875Z" fill="#999999" mask="url(#path-19-inside-1_1_7111)"/>
<path fill-rule="evenodd" clip-rule="evenodd" d="M153 115.812V95.1875H154V115.812H153Z" fill="#999999"/>
<circle cx="153.5" cy="105.5" r="1.28906" fill="#33BBFF"/>
<path d="M153.5 104.711L91.625 104.711" stroke="#33BBFF"/>
<path fill-rule="evenodd" clip-rule="evenodd" d="M98.0342 93.5881C97.2133 97.4291 96.7812 101.414 96.7812 105.5C96.7812 109.513 97.1981 113.429 97.9907 117.207L87.9115 119.332C85.9706 110.129 85.9882 100.621 87.9631 91.4252L98.0342 93.5881Z" fill="#33BBFF" fill-opacity="0.3"/>
<mask id="mask1_1_7111" style="mask-type:alpha" maskUnits="userSpaceOnUse" x="118" y="104" width="71" height="70">
<path d="M187.499 164.388C177.162 170.356 165.436 173.498 153.5 173.498C141.564 173.498 129.838 170.356 119.501 164.388L153.5 105.5L187.499 164.388Z" fill="#C4C4C4"/>
<path d="M187.499 164.388L187.749 164.821L188.182 164.571L187.932 164.138L187.499 164.388ZM153.5 173.498V173.998V173.498ZM119.501 164.388L119.068 164.138L118.818 164.571L119.251 164.821L119.501 164.388ZM153.5 105.5L153.933 105.25L153.5 104.5L153.067 105.25L153.5 105.5ZM187.249 163.955C176.988 169.879 165.348 172.998 153.5 172.998V173.998C165.524 173.998 177.336 170.833 187.749 164.821L187.249 163.955ZM153.5 172.998C141.652 172.998 130.012 169.879 119.751 163.955L119.251 164.821C129.664 170.833 141.476 173.998 153.5 173.998V172.998ZM119.934 164.638L153.933 105.75L153.067 105.25L119.068 164.138L119.934 164.638ZM153.067 105.75L187.066 164.638L187.932 164.138L153.933 105.25L153.067 105.75Z" fill="black"/>
</mask>
<g mask="url(#mask1_1_7111)">
<circle cx="153.5" cy="105.5" r="67.5312" stroke="#999999"/>
<path d="M153.5 43.625V48.7812M142.756 44.565L143.651 49.643M132.338 47.3565L134.101 52.2018M122.562 51.9147L125.141 56.3801M113.728 58.101L117.042 62.0509M106.101 65.7275L110.051 69.0419M99.9147 74.5625L104.38 77.1406M95.3565 84.3375L100.202 86.101M92.565 94.7556L97.6429 95.6509M91.625 105.5H96.7812M92.565 116.244L97.6429 115.349M95.3565 126.663L100.202 124.899M99.9147 136.438L104.38 133.859M106.101 145.273L110.051 141.958M113.728 152.899L117.042 148.949M122.562 159.085L125.141 154.62M132.338 163.643L134.101 158.798M142.756 166.435L143.651 161.357M153.5 167.375V162.219M164.244 166.435L163.349 161.357M174.662 163.643L172.899 158.798M184.438 159.085L181.859 154.62M193.272 152.899L189.958 148.949M200.899 145.273L196.949 141.958M207.085 136.438L202.62 133.859M211.643 126.663L206.798 124.899M214.435 116.244L209.357 115.349M215.375 105.5H210.219M214.435 94.7556L209.357 95.6509M211.643 84.3375L206.798 86.101M207.085 74.5625L202.62 77.1406M200.899 65.7275L196.949 69.0419M193.272 58.101L189.958 62.0509M184.438 51.9147L181.859 56.3801M174.662 47.3565L172.899 52.2018M164.244 44.565L163.349 49.643" stroke="#999999" stroke-linejoin="round"/>
<path d="M187.016 47.4492L181.859 56.3801M125.141 154.62L119.984 163.551M95.4492 71.9844L104.38 77.1406M202.62 133.859L211.551 139.016M211.551 71.9844L202.62 77.1406M104.38 133.859L95.4493 139.016M119.984 47.4492L125.141 56.3801M181.859 154.62L187.016 163.551M153.5 38.4688V48.7812M153.5 162.219V172.531M86.4688 105.5H96.7812M210.219 105.5H220.531" stroke="#999999"/>
</g>
<path d="M143.688 95.6875L163.688 95.6875L163.688 105.688C163.688 111.21 159.21 115.688 153.688 115.688C148.165 115.688 143.688 111.21 143.688 105.688L143.688 95.6875Z" fill="#383838" stroke="#999999"/>
<path fill-rule="evenodd" clip-rule="evenodd" d="M152.688 116.188L152.688 95.1875H153.688L153.688 116.188H152.688Z" fill="#999999"/>
<ellipse cx="153.5" cy="105.5" rx="1.28906" ry="1.28907" transform="rotate(-90 153.5 105.5)" fill="#33BBFF"/>
<path d="M152.711 105.5L152.711 167.375" stroke="#33BBFF"/>
<path fill-rule="evenodd" clip-rule="evenodd" d="M165.315 160.987C161.504 161.794 157.551 162.219 153.5 162.219C149.452 162.219 145.504 161.795 141.696 160.989L139.553 171.064C148.752 173.021 158.261 173.021 167.46 171.062L165.315 160.987Z" fill="#33BBFF" fill-opacity="0.3"/>
</svg>
