<svg width="652" height="646" viewBox="0 0 652 646" fill="none" xmlns="http://www.w3.org/2000/svg">
<path d="M398.917 471.325C482.604 430.941 517.709 330.361 477.325 246.673C436.94 162.986 336.361 127.881 252.673 168.265C168.985 208.649 133.881 309.229 174.265 392.917C214.649 476.604 315.229 511.709 398.917 471.325ZM490.158 240.48C533.963 331.256 495.885 440.354 405.11 484.159C314.334 527.963 205.236 489.885 161.431 399.11C117.627 308.334 155.704 199.236 246.48 155.431C337.255 111.627 446.354 149.705 490.158 240.48Z" fill="#383838" stroke="#4D4D4D"/>
<path d="M252.89 168.716L398.699 470.874M476.874 246.89L174.715 392.699" stroke="#4D4D4D"/>
<g clip-path="url(#clip0_1_7182)">
<path d="M249.577 161.848L252.89 168.716M236.101 169.092L240 175.644M223.307 177.483L227.763 183.671M211.294 186.957L216.272 192.732M200.152 197.442L205.615 202.762M189.966 208.858L195.872 213.681M180.815 221.118L187.118 225.409M172.766 234.13L179.419 237.854M165.882 247.793L172.835 250.924M160.215 262.004L167.414 264.517M155.808 276.655L163.199 278.531M152.695 291.635L160.221 292.859M150.9 306.829L158.504 307.392M150.435 322.121L158.06 322.02M151.305 337.396L158.892 336.63M153.503 352.537L160.994 351.113M157.013 367.428L164.351 365.357M161.806 381.957L168.936 379.255M167.848 396.013L174.715 392.699M175.092 409.489L181.644 405.589M183.483 422.283L189.67 417.827M192.957 434.296L198.732 429.317M203.442 445.438L208.761 439.975M214.858 455.623L219.681 449.718M227.118 464.775L231.408 458.472M240.129 472.824L243.854 466.17M253.793 479.708L256.923 472.755M268.004 485.375L270.517 478.176M282.655 489.781L284.531 482.391M297.635 492.894L298.859 485.368M312.828 494.69L313.392 487.086M328.121 495.155L328.02 487.53M343.396 494.284L342.63 486.698M358.536 492.086L357.113 484.596M373.428 488.577L371.357 481.239M387.957 483.783L385.254 476.654M402.013 477.742L398.699 470.874M415.489 470.498L411.589 463.945M428.282 462.107L423.826 455.919M440.296 452.633L435.317 446.857M451.438 442.148L445.975 436.828M461.623 430.732L455.718 425.909M470.775 418.472L464.472 414.181M478.824 405.46L472.17 401.736M485.708 391.797L478.755 388.666M491.375 377.586L484.175 375.073M495.781 362.935L488.39 361.059M498.894 347.955L491.368 346.731M500.69 332.761L493.086 332.198M501.154 317.469L493.53 317.57M500.284 302.194L492.698 302.959M498.086 287.053L490.595 288.477M494.577 272.162L487.239 274.233M489.783 257.633L482.653 260.335M483.742 243.577L476.874 246.89M476.498 230.101L469.945 234M468.107 217.307L461.919 221.763M458.633 205.294L452.857 210.272M448.148 194.152L442.828 199.615M436.732 183.967L431.909 189.872M424.472 174.815L420.181 181.118M411.46 166.766L407.736 173.419M397.797 159.882L394.666 166.835M383.586 154.215L381.073 161.414M368.934 149.809L367.059 157.199M353.955 146.696L352.731 154.222M338.761 144.9L338.197 152.504M323.469 144.435L323.57 152.06M308.194 145.305L308.959 152.892M293.053 147.503L294.477 154.994M278.162 151.013L280.233 158.351M263.633 155.806L266.335 162.936" stroke="#999999" stroke-linejoin="round"/>
</g>
<path d="M246.263 154.981L252.89 168.716M153.016 259.492L167.414 264.517M160.981 399.327L174.715 392.699M265.491 492.574L270.517 478.175M405.327 484.609L398.699 470.874M498.574 380.098L484.175 375.073M490.609 240.263L476.874 246.89M386.098 147.016L381.073 161.414" stroke="#999999" stroke-linejoin="round"/>
<path d="M258.613 165.954L247.168 171.477L246.263 154.981L258.613 165.954Z" fill="white"/>
<mask id="path-6-outside-1_1_7182" maskUnits="userSpaceOnUse" x="423.467" y="130.404" width="86.9515" height="86.9743" fill="black">
<rect fill="white" x="423.467" y="130.404" width="86.9515" height="86.9743"/>
<path d="M468.505 175.415L483.119 160.323L480.573 157.857L465.958 172.949L468.505 175.415Z"/>
<path fill-rule="evenodd" clip-rule="evenodd" d="M465.492 189.045L452.607 189.252L452.4 176.367L455.899 176.311L456.05 185.697L465.436 185.546L465.492 189.045Z"/>
<path fill-rule="evenodd" clip-rule="evenodd" d="M471.78 182.031L458.895 182.238L458.687 169.353L462.187 169.297L462.338 178.683L471.724 178.532L471.78 182.031Z"/>
</mask>
<path d="M468.505 175.415L483.119 160.323L480.573 157.857L465.958 172.949L468.505 175.415Z" fill="#33BBFF"/>
<path fill-rule="evenodd" clip-rule="evenodd" d="M465.492 189.045L452.607 189.252L452.4 176.367L455.899 176.311L456.05 185.697L465.436 185.546L465.492 189.045Z" fill="#33BBFF"/>
<path fill-rule="evenodd" clip-rule="evenodd" d="M471.78 182.031L458.895 182.238L458.687 169.353L462.187 169.297L462.338 178.683L471.724 178.532L471.78 182.031Z" fill="#33BBFF"/>
<path d="M468.505 175.415L467.809 176.133L468.528 176.829L469.223 176.111L468.505 175.415ZM483.119 160.323L483.838 161.019L484.533 160.3L483.815 159.605L483.119 160.323ZM480.573 157.857L481.268 157.139L480.55 156.443L479.854 157.161L480.573 157.857ZM465.958 172.949L465.24 172.253L464.544 172.972L465.263 173.667L465.958 172.949ZM465.492 189.045L465.509 190.045L466.508 190.029L466.492 189.029L465.492 189.045ZM452.607 189.252L451.607 189.269L451.623 190.268L452.623 190.252L452.607 189.252ZM452.4 176.367L452.384 175.367L451.384 175.383L451.4 176.383L452.4 176.367ZM455.899 176.311L456.899 176.295L456.883 175.295L455.883 175.311L455.899 176.311ZM456.05 185.697L455.051 185.713L455.067 186.713L456.066 186.696L456.05 185.697ZM465.436 185.546L466.436 185.529L466.42 184.53L465.42 184.546L465.436 185.546ZM471.78 182.031L471.796 183.031L472.796 183.015L472.78 182.015L471.78 182.031ZM458.895 182.238L457.895 182.255L457.911 183.254L458.911 183.238L458.895 182.238ZM458.687 169.353L458.671 168.353L457.671 168.369L457.688 169.369L458.687 169.353ZM462.187 169.297L463.187 169.281L463.171 168.281L462.171 168.297L462.187 169.297ZM462.338 178.683L461.338 178.699L461.354 179.699L462.354 179.682L462.338 178.683ZM471.724 178.532L472.724 178.515L472.707 177.516L471.708 177.532L471.724 178.532ZM469.223 176.111L483.838 161.019L482.401 159.627L467.787 174.719L469.223 176.111ZM483.815 159.605L481.268 157.139L479.877 158.575L482.423 161.041L483.815 159.605ZM479.854 157.161L465.24 172.253L466.677 173.645L481.291 158.553L479.854 157.161ZM465.263 173.667L467.809 176.133L469.201 174.697L466.654 172.231L465.263 173.667ZM455.883 175.311L452.384 175.367L452.416 177.367L455.915 177.311L455.883 175.311ZM457.05 185.68L456.899 176.295L454.9 176.327L455.051 185.713L457.05 185.68ZM465.42 184.546L456.034 184.697L456.066 186.696L465.452 186.545L465.42 184.546ZM466.492 189.029L466.436 185.529L464.436 185.562L464.493 189.061L466.492 189.029ZM452.623 190.252L465.509 190.045L465.476 188.045L452.591 188.253L452.623 190.252ZM451.4 176.383L451.607 189.269L453.607 189.236L453.4 176.351L451.4 176.383ZM462.171 168.297L458.671 168.353L458.703 170.353L462.203 170.297L462.171 168.297ZM463.338 178.666L463.187 169.281L461.187 169.313L461.338 178.699L463.338 178.666ZM471.708 177.532L462.322 177.683L462.354 179.682L471.74 179.531L471.708 177.532ZM472.78 182.015L472.724 178.515L470.724 178.548L470.78 182.047L472.78 182.015ZM458.911 183.238L471.796 183.031L471.764 181.031L458.879 181.239L458.911 183.238ZM457.688 169.369L457.895 182.255L459.895 182.222L459.687 169.337L457.688 169.369Z" fill="#404040" mask="url(#path-6-outside-1_1_7182)"/>
<mask id="path-8-outside-2_1_7182" maskUnits="userSpaceOnUse" x="370.81" y="98.2637" width="63.2644" height="67.2817" fill="black">
<rect fill="white" x="370.81" y="98.2637" width="63.2644" height="67.2817"/>
<path d="M408.122 111.588L404.855 110.331L394.166 138.094L390.899 136.836L391.397 150.155L400.698 140.609L397.432 139.352L408.122 111.588Z"/>
<path d="M417.92 115.361L417.292 116.994L407.493 113.222L408.122 111.588L417.92 115.361Z"/>
<path d="M416.034 120.261L415.405 121.894L405.606 118.121L406.235 116.488L416.034 120.261Z"/>
<path d="M409.248 123.274L408.619 124.907L403.72 123.02L404.349 121.387L409.248 123.274Z"/>
</mask>
<path d="M408.122 111.588L404.855 110.331L394.166 138.094L390.899 136.836L391.397 150.155L400.698 140.609L397.432 139.352L408.122 111.588Z" fill="#33BBFF"/>
<path d="M417.92 115.361L417.292 116.994L407.493 113.222L408.122 111.588L417.92 115.361Z" fill="#33BBFF"/>
<path d="M416.034 120.261L415.405 121.894L405.606 118.121L406.235 116.488L416.034 120.261Z" fill="#33BBFF"/>
<path d="M409.248 123.274L408.619 124.907L403.72 123.02L404.349 121.387L409.248 123.274Z" fill="#33BBFF"/>
<path d="M408.122 111.588L408.481 110.655L408.122 111.588ZM404.855 110.331L405.215 109.398L404.281 109.038L403.922 109.971L404.855 110.331ZM394.166 138.094L393.806 139.027L394.739 139.386L395.099 138.453L394.166 138.094ZM390.899 136.836L391.259 135.903L389.843 135.358L389.9 136.874L390.899 136.836ZM391.397 150.155L390.398 150.192L390.485 152.524L392.113 150.852L391.397 150.155ZM400.698 140.609L401.414 141.307L402.473 140.221L401.057 139.676L400.698 140.609ZM397.432 139.352L396.499 138.992L396.139 139.925L397.072 140.285L397.432 139.352ZM417.92 115.361L418.854 115.721L419.213 114.787L418.28 114.428L417.92 115.361ZM417.292 116.994L416.932 117.928L417.865 118.287L418.225 117.354L417.292 116.994ZM407.493 113.222L406.56 112.862L406.2 113.795L407.133 114.155L407.493 113.222ZM416.034 120.261L416.967 120.62L417.326 119.687L416.393 119.327L416.034 120.261ZM415.405 121.894L415.046 122.827L415.979 123.186L416.338 122.253L415.405 121.894ZM405.606 118.121L404.673 117.762L404.314 118.695L405.247 119.054L405.606 118.121ZM406.235 116.488L406.594 115.555L405.661 115.195L405.302 116.128L406.235 116.488ZM409.248 123.274L410.181 123.633L410.541 122.7L409.607 122.34L409.248 123.274ZM408.619 124.907L408.26 125.84L409.193 126.199L409.553 125.266L408.619 124.907ZM403.72 123.02L402.787 122.661L402.427 123.594L403.361 123.953L403.72 123.02ZM404.349 121.387L404.708 120.454L403.775 120.095L403.416 121.028L404.349 121.387ZM408.481 110.655L405.215 109.398L404.496 111.264L407.762 112.522L408.481 110.655ZM403.922 109.971L393.232 137.735L395.099 138.453L405.789 110.69L403.922 109.971ZM394.525 137.161L391.259 135.903L390.54 137.769L393.806 139.027L394.525 137.161ZM389.9 136.874L390.398 150.192L392.396 150.117L391.899 136.799L389.9 136.874ZM392.113 150.852L401.414 141.307L399.982 139.911L390.681 149.457L392.113 150.852ZM401.057 139.676L397.791 138.418L397.072 140.285L400.339 141.542L401.057 139.676ZM398.365 139.711L409.055 111.948L407.188 111.229L396.499 138.992L398.365 139.711ZM416.987 115.002L416.358 116.635L418.225 117.354L418.854 115.721L416.987 115.002ZM417.651 116.061L407.852 112.288L407.133 114.155L416.932 117.928L417.651 116.061ZM408.426 113.581L409.055 111.948L407.188 111.229L406.56 112.862L408.426 113.581ZM407.762 112.522L417.561 116.294L418.28 114.428L408.481 110.655L407.762 112.522ZM415.101 119.901L414.472 121.534L416.338 122.253L416.967 120.62L415.101 119.901ZM415.764 120.961L405.966 117.188L405.247 119.054L415.046 122.827L415.764 120.961ZM406.54 118.48L407.168 116.847L405.302 116.128L404.673 117.762L406.54 118.48ZM405.876 117.421L415.675 121.194L416.393 119.327L406.594 115.555L405.876 117.421ZM408.315 122.914L407.686 124.547L409.553 125.266L410.181 123.633L408.315 122.914ZM408.979 123.973L404.079 122.087L403.361 123.953L408.26 125.84L408.979 123.973ZM404.653 123.38L405.282 121.746L403.416 121.028L402.787 122.661L404.653 123.38ZM403.989 122.32L408.889 124.207L409.607 122.34L404.708 120.454L403.989 122.32Z" fill="#404040" mask="url(#path-8-outside-2_1_7182)"/>
<path d="M263.656 257.078C263.656 212.921 307.902 169.5 325.406 169.5C342.91 169.5 387.156 211.449 387.156 257.078V442.625C387.156 449.183 380.245 454.5 371.719 454.5H279.094C270.568 454.5 263.656 449.183 263.656 442.625V257.078Z" fill="#383838" stroke="#999999"/>
<path d="M296.125 248H292.438V233.297C292.438 232.807 292.443 232.318 292.453 231.828C292.464 231.339 292.474 230.859 292.484 230.391C292.505 229.922 292.531 229.474 292.562 229.047C292.344 229.286 292.073 229.547 291.75 229.828C291.438 230.109 291.104 230.401 290.75 230.703L288.125 232.797L286.281 230.469L293.062 225.156H296.125V248ZM319.109 248H303.641V245.234L309.562 239.234C310.708 238.068 311.651 237.062 312.391 236.219C313.13 235.365 313.677 234.557 314.031 233.797C314.396 233.036 314.578 232.208 314.578 231.312C314.578 230.208 314.26 229.375 313.625 228.812C312.99 228.24 312.151 227.953 311.109 227.953C310.12 227.953 309.203 228.151 308.359 228.547C307.526 228.932 306.661 229.484 305.766 230.203L303.75 227.781C304.385 227.24 305.062 226.745 305.781 226.297C306.51 225.849 307.323 225.495 308.219 225.234C309.115 224.964 310.135 224.828 311.281 224.828C312.729 224.828 313.979 225.089 315.031 225.609C316.083 226.12 316.891 226.833 317.453 227.75C318.026 228.667 318.312 229.734 318.312 230.953C318.312 232.182 318.068 233.318 317.578 234.359C317.089 235.401 316.391 236.432 315.484 237.453C314.578 238.464 313.5 239.562 312.25 240.75L308.297 244.609V244.781H319.109V248ZM322.609 246.062C322.609 245.208 322.828 244.609 323.266 244.266C323.714 243.911 324.255 243.734 324.891 243.734C325.526 243.734 326.068 243.911 326.516 244.266C326.974 244.609 327.203 245.208 327.203 246.062C327.203 246.896 326.974 247.5 326.516 247.875C326.068 248.24 325.526 248.422 324.891 248.422C324.255 248.422 323.714 248.24 323.266 247.875C322.828 247.5 322.609 246.896 322.609 246.062ZM345.328 230.375C345.328 231.406 345.12 232.302 344.703 233.062C344.286 233.823 343.714 234.448 342.984 234.938C342.266 235.417 341.432 235.76 340.484 235.969V236.078C342.307 236.307 343.682 236.88 344.609 237.797C345.547 238.714 346.016 239.927 346.016 241.438C346.016 242.76 345.698 243.943 345.062 244.984C344.427 246.016 343.453 246.828 342.141 247.422C340.828 248.016 339.141 248.312 337.078 248.312C335.839 248.312 334.688 248.214 333.625 248.016C332.573 247.818 331.573 247.5 330.625 247.062V243.797C331.594 244.276 332.625 244.646 333.719 244.906C334.812 245.167 335.849 245.297 336.828 245.297C338.734 245.297 340.094 244.943 340.906 244.234C341.719 243.516 342.125 242.526 342.125 241.266C342.125 240.453 341.911 239.786 341.484 239.266C341.068 238.745 340.417 238.354 339.531 238.094C338.656 237.833 337.526 237.703 336.141 237.703H334.125V234.75H336.156C337.479 234.75 338.542 234.594 339.344 234.281C340.146 233.958 340.724 233.516 341.078 232.953C341.443 232.391 341.625 231.734 341.625 230.984C341.625 230.005 341.307 229.245 340.672 228.703C340.036 228.151 339.094 227.875 337.844 227.875C337.073 227.875 336.37 227.964 335.734 228.141C335.109 228.318 334.531 228.542 334 228.812C333.469 229.083 332.964 229.375 332.484 229.688L330.719 227.141C331.583 226.495 332.615 225.948 333.812 225.5C335.01 225.052 336.406 224.828 338 224.828C340.344 224.828 342.151 225.333 343.422 226.344C344.693 227.344 345.328 228.688 345.328 230.375Z" fill="#33BBFF"/>
<path d="M350.266 235.844V242.156C350.266 242.365 350.258 242.62 350.242 242.922C350.227 243.219 350.214 243.482 350.203 243.711H350.258C350.367 243.576 350.526 243.375 350.734 243.109C350.948 242.844 351.128 242.63 351.273 242.469L354.117 239.438H355.641L352.195 243.094L355.891 248H354.328L351.305 243.945L350.266 244.898V248H348.977V235.844H350.266ZM361.438 239.281C362.453 239.281 363.221 239.531 363.742 240.031C364.263 240.526 364.523 241.323 364.523 242.422V248H363.242V242.508C363.242 241.794 363.078 241.26 362.75 240.906C362.427 240.552 361.93 240.375 361.258 240.375C360.31 240.375 359.643 240.643 359.258 241.18C358.872 241.716 358.68 242.495 358.68 243.516V248H357.383V239.438H358.43L358.625 240.672H358.695C358.878 240.37 359.109 240.117 359.391 239.914C359.672 239.706 359.987 239.549 360.336 239.445C360.685 239.336 361.052 239.281 361.438 239.281Z" fill="white" fill-opacity="0.5"/>
<path d="M296.125 433.25H292.438V418.547C292.438 418.057 292.443 417.568 292.453 417.078C292.464 416.589 292.474 416.109 292.484 415.641C292.505 415.172 292.531 414.724 292.562 414.297C292.344 414.536 292.073 414.797 291.75 415.078C291.438 415.359 291.104 415.651 290.75 415.953L288.125 418.047L286.281 415.719L293.062 410.406H296.125V433.25ZM319.109 433.25H303.641V430.484L309.562 424.484C310.708 423.318 311.651 422.312 312.391 421.469C313.13 420.615 313.677 419.807 314.031 419.047C314.396 418.286 314.578 417.458 314.578 416.562C314.578 415.458 314.26 414.625 313.625 414.062C312.99 413.49 312.151 413.203 311.109 413.203C310.12 413.203 309.203 413.401 308.359 413.797C307.526 414.182 306.661 414.734 305.766 415.453L303.75 413.031C304.385 412.49 305.062 411.995 305.781 411.547C306.51 411.099 307.323 410.745 308.219 410.484C309.115 410.214 310.135 410.078 311.281 410.078C312.729 410.078 313.979 410.339 315.031 410.859C316.083 411.37 316.891 412.083 317.453 413C318.026 413.917 318.312 414.984 318.312 416.203C318.312 417.432 318.068 418.568 317.578 419.609C317.089 420.651 316.391 421.682 315.484 422.703C314.578 423.714 313.5 424.812 312.25 426L308.297 429.859V430.031H319.109V433.25ZM322.609 431.312C322.609 430.458 322.828 429.859 323.266 429.516C323.714 429.161 324.255 428.984 324.891 428.984C325.526 428.984 326.068 429.161 326.516 429.516C326.974 429.859 327.203 430.458 327.203 431.312C327.203 432.146 326.974 432.75 326.516 433.125C326.068 433.49 325.526 433.672 324.891 433.672C324.255 433.672 323.714 433.49 323.266 433.125C322.828 432.75 322.609 432.146 322.609 431.312ZM345.328 415.625C345.328 416.656 345.12 417.552 344.703 418.312C344.286 419.073 343.714 419.698 342.984 420.188C342.266 420.667 341.432 421.01 340.484 421.219V421.328C342.307 421.557 343.682 422.13 344.609 423.047C345.547 423.964 346.016 425.177 346.016 426.688C346.016 428.01 345.698 429.193 345.062 430.234C344.427 431.266 343.453 432.078 342.141 432.672C340.828 433.266 339.141 433.562 337.078 433.562C335.839 433.562 334.688 433.464 333.625 433.266C332.573 433.068 331.573 432.75 330.625 432.312V429.047C331.594 429.526 332.625 429.896 333.719 430.156C334.812 430.417 335.849 430.547 336.828 430.547C338.734 430.547 340.094 430.193 340.906 429.484C341.719 428.766 342.125 427.776 342.125 426.516C342.125 425.703 341.911 425.036 341.484 424.516C341.068 423.995 340.417 423.604 339.531 423.344C338.656 423.083 337.526 422.953 336.141 422.953H334.125V420H336.156C337.479 420 338.542 419.844 339.344 419.531C340.146 419.208 340.724 418.766 341.078 418.203C341.443 417.641 341.625 416.984 341.625 416.234C341.625 415.255 341.307 414.495 340.672 413.953C340.036 413.401 339.094 413.125 337.844 413.125C337.073 413.125 336.37 413.214 335.734 413.391C335.109 413.568 334.531 413.792 334 414.062C333.469 414.333 332.964 414.625 332.484 414.938L330.719 412.391C331.583 411.745 332.615 411.198 333.812 410.75C335.01 410.302 336.406 410.078 338 410.078C340.344 410.078 342.151 410.583 343.422 411.594C344.693 412.594 345.328 413.938 345.328 415.625Z" fill="#33BBFF"/>
<path d="M350.266 421.094V427.406C350.266 427.615 350.258 427.87 350.242 428.172C350.227 428.469 350.214 428.732 350.203 428.961H350.258C350.367 428.826 350.526 428.625 350.734 428.359C350.948 428.094 351.128 427.88 351.273 427.719L354.117 424.688H355.641L352.195 428.344L355.891 433.25H354.328L351.305 429.195L350.266 430.148V433.25H348.977V421.094H350.266ZM361.438 424.531C362.453 424.531 363.221 424.781 363.742 425.281C364.263 425.776 364.523 426.573 364.523 427.672V433.25H363.242V427.758C363.242 427.044 363.078 426.51 362.75 426.156C362.427 425.802 361.93 425.625 361.258 425.625C360.31 425.625 359.643 425.893 359.258 426.43C358.872 426.966 358.68 427.745 358.68 428.766V433.25H357.383V424.688H358.43L358.625 425.922H358.695C358.878 425.62 359.109 425.367 359.391 425.164C359.672 424.956 359.987 424.799 360.336 424.695C360.685 424.586 361.052 424.531 361.438 424.531Z" fill="white" fill-opacity="0.5"/>
<path d="M296.125 375.062H292.438V360.359C292.438 359.87 292.443 359.38 292.453 358.891C292.464 358.401 292.474 357.922 292.484 357.453C292.505 356.984 292.531 356.536 292.562 356.109C292.344 356.349 292.073 356.609 291.75 356.891C291.438 357.172 291.104 357.464 290.75 357.766L288.125 359.859L286.281 357.531L293.062 352.219H296.125V375.062ZM319.109 375.062H303.641V372.297L309.562 366.297C310.708 365.13 311.651 364.125 312.391 363.281C313.13 362.427 313.677 361.62 314.031 360.859C314.396 360.099 314.578 359.271 314.578 358.375C314.578 357.271 314.26 356.438 313.625 355.875C312.99 355.302 312.151 355.016 311.109 355.016C310.12 355.016 309.203 355.214 308.359 355.609C307.526 355.995 306.661 356.547 305.766 357.266L303.75 354.844C304.385 354.302 305.062 353.807 305.781 353.359C306.51 352.911 307.323 352.557 308.219 352.297C309.115 352.026 310.135 351.891 311.281 351.891C312.729 351.891 313.979 352.151 315.031 352.672C316.083 353.182 316.891 353.896 317.453 354.812C318.026 355.729 318.312 356.797 318.312 358.016C318.312 359.245 318.068 360.38 317.578 361.422C317.089 362.464 316.391 363.495 315.484 364.516C314.578 365.526 313.5 366.625 312.25 367.812L308.297 371.672V371.844H319.109V375.062ZM322.609 373.125C322.609 372.271 322.828 371.672 323.266 371.328C323.714 370.974 324.255 370.797 324.891 370.797C325.526 370.797 326.068 370.974 326.516 371.328C326.974 371.672 327.203 372.271 327.203 373.125C327.203 373.958 326.974 374.562 326.516 374.938C326.068 375.302 325.526 375.484 324.891 375.484C324.255 375.484 323.714 375.302 323.266 374.938C322.828 374.562 322.609 373.958 322.609 373.125ZM345.328 357.438C345.328 358.469 345.12 359.365 344.703 360.125C344.286 360.885 343.714 361.51 342.984 362C342.266 362.479 341.432 362.823 340.484 363.031V363.141C342.307 363.37 343.682 363.943 344.609 364.859C345.547 365.776 346.016 366.99 346.016 368.5C346.016 369.823 345.698 371.005 345.062 372.047C344.427 373.078 343.453 373.891 342.141 374.484C340.828 375.078 339.141 375.375 337.078 375.375C335.839 375.375 334.688 375.276 333.625 375.078C332.573 374.88 331.573 374.562 330.625 374.125V370.859C331.594 371.339 332.625 371.708 333.719 371.969C334.812 372.229 335.849 372.359 336.828 372.359C338.734 372.359 340.094 372.005 340.906 371.297C341.719 370.578 342.125 369.589 342.125 368.328C342.125 367.516 341.911 366.849 341.484 366.328C341.068 365.807 340.417 365.417 339.531 365.156C338.656 364.896 337.526 364.766 336.141 364.766H334.125V361.812H336.156C337.479 361.812 338.542 361.656 339.344 361.344C340.146 361.021 340.724 360.578 341.078 360.016C341.443 359.453 341.625 358.797 341.625 358.047C341.625 357.068 341.307 356.307 340.672 355.766C340.036 355.214 339.094 354.938 337.844 354.938C337.073 354.938 336.37 355.026 335.734 355.203C335.109 355.38 334.531 355.604 334 355.875C333.469 356.146 332.964 356.438 332.484 356.75L330.719 354.203C331.583 353.557 332.615 353.01 333.812 352.562C335.01 352.115 336.406 351.891 338 351.891C340.344 351.891 342.151 352.396 343.422 353.406C344.693 354.406 345.328 355.75 345.328 357.438Z" fill="#33BBFF"/>
<path d="M350.266 362.906V369.219C350.266 369.427 350.258 369.682 350.242 369.984C350.227 370.281 350.214 370.544 350.203 370.773H350.258C350.367 370.638 350.526 370.438 350.734 370.172C350.948 369.906 351.128 369.693 351.273 369.531L354.117 366.5H355.641L352.195 370.156L355.891 375.062H354.328L351.305 371.008L350.266 371.961V375.062H348.977V362.906H350.266ZM361.438 366.344C362.453 366.344 363.221 366.594 363.742 367.094C364.263 367.589 364.523 368.385 364.523 369.484V375.062H363.242V369.57C363.242 368.857 363.078 368.323 362.75 367.969C362.427 367.615 361.93 367.438 361.258 367.438C360.31 367.438 359.643 367.706 359.258 368.242C358.872 368.779 358.68 369.557 358.68 370.578V375.062H357.383V366.5H358.43L358.625 367.734H358.695C358.878 367.432 359.109 367.18 359.391 366.977C359.672 366.768 359.987 366.612 360.336 366.508C360.685 366.398 361.052 366.344 361.438 366.344Z" fill="white" fill-opacity="0.5"/>
<rect x="273.156" y="264.5" width="-1.1875" height="102.125" rx="-0.593748" transform="rotate(-90 273.156 264.5)" fill="white" fill-opacity="0.12"/>
<rect x="273.156" y="391.562" width="-1.1875" height="102.125" rx="-0.593748" transform="rotate(-90 273.156 391.562)" fill="white" fill-opacity="0.12"/>
<path d="M200.323 236L231.99 261.333L231.99 248.667L250.99 248.667L250.99 223.333L231.99 223.333L231.99 210.667L200.323 236Z" fill="#33BBFF"/>
<path d="M450.49 421.25L418.823 395.917V408.583H399.823V433.917H418.823V446.583L450.49 421.25Z" fill="#33BBFF"/>
<path d="M325.406 280.729L300.073 312.396H312.74V331.396H338.073V312.396H350.74L325.406 280.729Z" fill="#33BBFF"/>
<defs>
<clipPath id="clip0_1_7182">
<rect width="396.5" height="396.5" fill="white" transform="translate(61.0865 227.406) rotate(-25.76)"/>
</clipPath>
</defs>
</svg>
