<svg width="315" height="255" viewBox="0 0 315 255" fill="none" xmlns="http://www.w3.org/2000/svg">
<path d="M0 2C0 0.89543 0.895431 0 2 0H313C314.105 0 315 0.895431 315 2V253C315 254.105 314.105 255 313 255H2C0.89543 255 0 254.105 0 253V2Z" fill="#404040"/>
<rect x="4" y="23" width="307" height="1" rx="0.5" fill="white" fill-opacity="0.12"/>
<path d="M27.2559 8.43359L25.0176 17H23.4824L22.0527 11.8672C22.0176 11.7422 21.9785 11.5938 21.9355 11.4219C21.8926 11.25 21.8496 11.0742 21.8066 10.8945C21.7676 10.7148 21.7324 10.5508 21.7012 10.4023C21.6738 10.25 21.6543 10.1328 21.6426 10.0508C21.6348 10.1328 21.6172 10.248 21.5898 10.3965C21.5625 10.5449 21.5293 10.709 21.4902 10.8887C21.4551 11.0645 21.416 11.2402 21.373 11.416C21.3301 11.5879 21.291 11.7402 21.2559 11.873L19.8496 17H18.3203L16.0879 8.43359H17.5L18.7363 13.4551C18.7754 13.6152 18.8145 13.7891 18.8535 13.9766C18.8965 14.1602 18.9355 14.3457 18.9707 14.5332C19.0098 14.7207 19.0449 14.9043 19.0762 15.084C19.1074 15.2598 19.1328 15.4199 19.1523 15.5645C19.1719 15.416 19.1973 15.252 19.2285 15.0723C19.2598 14.8887 19.293 14.7031 19.3281 14.5156C19.3672 14.3242 19.4062 14.1406 19.4453 13.9648C19.4883 13.7891 19.5312 13.6309 19.5742 13.4902L20.9688 8.43359H22.3398L23.7637 13.5078C23.8066 13.6523 23.8477 13.8145 23.8867 13.9941C23.9297 14.1738 23.9707 14.3574 24.0098 14.5449C24.0488 14.7324 24.084 14.9141 24.1152 15.0898C24.1465 15.2656 24.1719 15.4238 24.1914 15.5645C24.2188 15.373 24.2539 15.1543 24.2969 14.9082C24.3398 14.6621 24.3887 14.4121 24.4434 14.1582C24.498 13.9043 24.5527 13.6699 24.6074 13.4551L25.8379 8.43359H27.2559ZM34.4453 17H29.5938V8.43359H34.4453V9.61719H31V11.9434H34.2285V13.1211H31V15.8105H34.4453V17ZM42.7305 17L41.8926 14.6211H38.6172L37.7793 17H36.2969L39.4844 8.39844H41.043L44.2246 17H42.7305ZM41.5293 13.4141L40.7148 11.0703C40.6836 10.9688 40.6387 10.8262 40.5801 10.6426C40.5215 10.4551 40.4629 10.2656 40.4043 10.0742C40.3457 9.87891 40.2969 9.71484 40.2578 9.58203C40.2188 9.74219 40.1699 9.92188 40.1113 10.1211C40.0566 10.3164 40.002 10.5 39.9473 10.6719C39.8965 10.8438 39.8574 10.9766 39.8301 11.0703L39.0098 13.4141H41.5293ZM49.4512 17H48.0391V9.62891H45.5312V8.43359H51.9531V9.62891H49.4512V17ZM61.1465 17H59.7461V13.1328H55.7969V17H54.3906V8.43359H55.7969V11.9375H59.7461V8.43359H61.1465V17ZM69.3906 17H64.5391V8.43359H69.3906V9.61719H65.9453V11.9434H69.1738V13.1211H65.9453V15.8105H69.3906V17ZM74.7754 8.43359C75.5137 8.43359 76.123 8.52344 76.6035 8.70312C77.0879 8.88281 77.4473 9.15625 77.6816 9.52344C77.9199 9.89062 78.0391 10.3574 78.0391 10.9238C78.0391 11.3457 77.9609 11.7051 77.8047 12.002C77.6484 12.2988 77.4434 12.5449 77.1895 12.7402C76.9355 12.9355 76.6641 13.0918 76.375 13.209L78.8066 17H77.2188L75.1504 13.5664H73.7734V17H72.3672V8.43359H74.7754ZM74.6816 9.60547H73.7734V12.4062H74.7461C75.3984 12.4062 75.8711 12.2852 76.1641 12.043C76.4609 11.8008 76.6094 11.4434 76.6094 10.9707C76.6094 10.4746 76.4512 10.123 76.1348 9.91602C75.8223 9.70898 75.3379 9.60547 74.6816 9.60547Z" fill="white" fill-opacity="0.5"/>
<path d="M30.5391 44.5781L27.4844 56H26.1484L23.8828 48.3125C23.8151 48.0938 23.75 47.875 23.6875 47.6562C23.6302 47.4323 23.5755 47.2214 23.5234 47.0234C23.4714 46.8203 23.4271 46.6432 23.3906 46.4922C23.3594 46.3359 23.3359 46.2188 23.3203 46.1406C23.3099 46.2188 23.2891 46.3333 23.2578 46.4844C23.2318 46.6354 23.1953 46.8099 23.1484 47.0078C23.1068 47.2057 23.0547 47.4167 22.9922 47.6406C22.9349 47.8646 22.8724 48.0911 22.8047 48.3203L20.6016 56H19.2656L16.2344 44.5781H17.6172L19.4531 51.7422C19.5156 51.9818 19.5729 52.2188 19.625 52.4531C19.6823 52.6823 19.7318 52.9062 19.7734 53.125C19.8203 53.3438 19.862 53.5573 19.8984 53.7656C19.9349 53.974 19.9688 54.1771 20 54.375C20.026 54.1719 20.0599 53.9609 20.1016 53.7422C20.1432 53.5182 20.1875 53.2917 20.2344 53.0625C20.2865 52.8333 20.3411 52.6016 20.3984 52.3672C20.4609 52.1328 20.526 51.8984 20.5938 51.6641L22.6484 44.5781H24.0156L26.1562 51.7188C26.2292 51.9635 26.2969 52.2057 26.3594 52.4453C26.4219 52.6849 26.4766 52.9193 26.5234 53.1484C26.5755 53.3724 26.6198 53.5885 26.6562 53.7969C26.6979 54 26.7344 54.1927 26.7656 54.375C26.8021 54.1198 26.8464 53.8516 26.8984 53.5703C26.9505 53.2891 27.0104 52.9948 27.0781 52.6875C27.151 52.3802 27.2292 52.0625 27.3125 51.7344L29.1484 44.5781H30.5391ZM35.3516 47.2969C36.3724 47.2969 37.1302 47.526 37.625 47.9844C38.1198 48.4427 38.3672 49.1745 38.3672 50.1797V56H37.4219L37.1719 54.7344H37.1094C36.8698 55.0469 36.6198 55.3099 36.3594 55.5234C36.099 55.7318 35.7969 55.8906 35.4531 56C35.1146 56.1042 34.6979 56.1562 34.2031 56.1562C33.6823 56.1562 33.2188 56.0651 32.8125 55.8828C32.4115 55.7005 32.0938 55.4245 31.8594 55.0547C31.6302 54.6849 31.5156 54.2161 31.5156 53.6484C31.5156 52.7943 31.8542 52.138 32.5312 51.6797C33.2083 51.2214 34.2396 50.9714 35.625 50.9297L37.1016 50.8672V50.3438C37.1016 49.6042 36.9427 49.0859 36.625 48.7891C36.3073 48.4922 35.8594 48.3438 35.2812 48.3438C34.8333 48.3438 34.4062 48.4089 34 48.5391C33.5938 48.6693 33.2083 48.8229 32.8438 49L32.4453 48.0156C32.8307 47.8177 33.2734 47.6484 33.7734 47.5078C34.2734 47.3672 34.7995 47.2969 35.3516 47.2969ZM37.0859 51.7812L35.7812 51.8359C34.7135 51.8776 33.9609 52.0521 33.5234 52.3594C33.0859 52.6667 32.8672 53.1016 32.8672 53.6641C32.8672 54.1536 33.0156 54.5156 33.3125 54.75C33.6094 54.9844 34.0026 55.1016 34.4922 55.1016C35.2526 55.1016 35.875 54.8906 36.3594 54.4688C36.8438 54.0469 37.0859 53.4141 37.0859 52.5703V51.7812ZM43.8047 55.0938C44.0182 55.0938 44.237 55.0755 44.4609 55.0391C44.6849 55.0026 44.8672 54.9583 45.0078 54.9062V55.9141C44.8568 55.9818 44.6458 56.0391 44.375 56.0859C44.1094 56.1328 43.849 56.1562 43.5938 56.1562C43.1406 56.1562 42.7292 56.0781 42.3594 55.9219C41.9896 55.7604 41.6927 55.4896 41.4688 55.1094C41.25 54.7292 41.1406 54.2031 41.1406 53.5312V48.4531H39.9219V47.8203L41.1484 47.3125L41.6641 45.4531H42.4453V47.4375H44.9531V48.4531H42.4453V53.4922C42.4453 54.0286 42.5677 54.4297 42.8125 54.6953C43.0625 54.9609 43.3932 55.0938 43.8047 55.0938ZM50.0391 47.2812C50.7682 47.2812 51.3932 47.4427 51.9141 47.7656C52.4349 48.0885 52.8333 48.5417 53.1094 49.125C53.3854 49.7031 53.5234 50.3802 53.5234 51.1562V51.9609H47.6094C47.625 52.9661 47.875 53.7318 48.3594 54.2578C48.8438 54.7839 49.526 55.0469 50.4062 55.0469C50.9479 55.0469 51.4271 54.9974 51.8438 54.8984C52.2604 54.7995 52.6927 54.6536 53.1406 54.4609V55.6016C52.7083 55.7943 52.2786 55.9349 51.8516 56.0234C51.4297 56.112 50.9297 56.1562 50.3516 56.1562C49.5286 56.1562 48.8099 55.9896 48.1953 55.6562C47.5859 55.3177 47.112 54.8229 46.7734 54.1719C46.4349 53.5208 46.2656 52.724 46.2656 51.7812C46.2656 50.8594 46.4193 50.0625 46.7266 49.3906C47.0391 48.7135 47.4766 48.1927 48.0391 47.8281C48.6068 47.4635 49.2734 47.2812 50.0391 47.2812ZM50.0234 48.3438C49.3307 48.3438 48.7786 48.5703 48.3672 49.0234C47.9557 49.4766 47.7109 50.1094 47.6328 50.9219H52.1641C52.1589 50.4115 52.0781 49.9635 51.9219 49.5781C51.7708 49.1875 51.5391 48.8854 51.2266 48.6719C50.9141 48.4531 50.513 48.3438 50.0234 48.3438ZM59.6172 47.2812C59.7891 47.2812 59.9688 47.2917 60.1562 47.3125C60.3438 47.3281 60.5104 47.3516 60.6562 47.3828L60.4922 48.5859C60.3516 48.5495 60.1953 48.5208 60.0234 48.5C59.8516 48.4792 59.6901 48.4688 59.5391 48.4688C59.1953 48.4688 58.8698 48.5391 58.5625 48.6797C58.2604 48.8151 57.9948 49.013 57.7656 49.2734C57.5365 49.5286 57.3568 49.8385 57.2266 50.2031C57.0964 50.5625 57.0312 50.9635 57.0312 51.4062V56H55.7266V47.4375H56.8047L56.9453 49.0156H57C57.1771 48.6979 57.3906 48.4089 57.6406 48.1484C57.8906 47.8828 58.1797 47.6719 58.5078 47.5156C58.8411 47.3594 59.2109 47.2812 59.6172 47.2812ZM69.1953 55.0938C69.4089 55.0938 69.6276 55.0755 69.8516 55.0391C70.0755 55.0026 70.2578 54.9583 70.3984 54.9062V55.9141C70.2474 55.9818 70.0365 56.0391 69.7656 56.0859C69.5 56.1328 69.2396 56.1562 68.9844 56.1562C68.5312 56.1562 68.1198 56.0781 67.75 55.9219C67.3802 55.7604 67.0833 55.4896 66.8594 55.1094C66.6406 54.7292 66.5312 54.2031 66.5312 53.5312V48.4531H65.3125V47.8203L66.5391 47.3125L67.0547 45.4531H67.8359V47.4375H70.3438V48.4531H67.8359V53.4922C67.8359 54.0286 67.9583 54.4297 68.2031 54.6953C68.4531 54.9609 68.7839 55.0938 69.1953 55.0938ZM75.4297 47.2812C76.1589 47.2812 76.7839 47.4427 77.3047 47.7656C77.8255 48.0885 78.224 48.5417 78.5 49.125C78.776 49.7031 78.9141 50.3802 78.9141 51.1562V51.9609H73C73.0156 52.9661 73.2656 53.7318 73.75 54.2578C74.2344 54.7839 74.9167 55.0469 75.7969 55.0469C76.3385 55.0469 76.8177 54.9974 77.2344 54.8984C77.651 54.7995 78.0833 54.6536 78.5312 54.4609V55.6016C78.099 55.7943 77.6693 55.9349 77.2422 56.0234C76.8203 56.112 76.3203 56.1562 75.7422 56.1562C74.9193 56.1562 74.2005 55.9896 73.5859 55.6562C72.9766 55.3177 72.5026 54.8229 72.1641 54.1719C71.8255 53.5208 71.6562 52.724 71.6562 51.7812C71.6562 50.8594 71.8099 50.0625 72.1172 49.3906C72.4297 48.7135 72.8672 48.1927 73.4297 47.8281C73.9974 47.4635 74.6641 47.2812 75.4297 47.2812ZM75.4141 48.3438C74.7214 48.3438 74.1693 48.5703 73.7578 49.0234C73.3464 49.4766 73.1016 50.1094 73.0234 50.9219H77.5547C77.5495 50.4115 77.4688 49.9635 77.3125 49.5781C77.1615 49.1875 76.9297 48.8854 76.6172 48.6719C76.3047 48.4531 75.9036 48.3438 75.4141 48.3438ZM90.4141 47.2812C91.3568 47.2812 92.0677 47.5286 92.5469 48.0234C93.026 48.513 93.2656 49.3021 93.2656 50.3906V56H91.9844V50.4531C91.9844 49.7604 91.8333 49.2422 91.5312 48.8984C91.2344 48.5495 90.7917 48.375 90.2031 48.375C89.375 48.375 88.7734 48.6146 88.3984 49.0938C88.0234 49.5729 87.8359 50.2786 87.8359 51.2109V56H86.5469V50.4531C86.5469 49.9896 86.4792 49.6042 86.3438 49.2969C86.2135 48.9896 86.0156 48.7604 85.75 48.6094C85.4896 48.4531 85.1589 48.375 84.7578 48.375C84.1901 48.375 83.7344 48.4922 83.3906 48.7266C83.0469 48.9609 82.7969 49.3099 82.6406 49.7734C82.4896 50.2318 82.4141 50.7969 82.4141 51.4688V56H81.1172V47.4375H82.1641L82.3594 48.6484H82.4297C82.6016 48.3516 82.8177 48.1016 83.0781 47.8984C83.3385 47.6953 83.6302 47.5417 83.9531 47.4375C84.276 47.3333 84.6198 47.2812 84.9844 47.2812C85.6354 47.2812 86.1797 47.4036 86.6172 47.6484C87.0599 47.888 87.3802 48.2552 87.5781 48.75H87.6484C87.9297 48.2552 88.3151 47.888 88.8047 47.6484C89.2943 47.4036 89.8307 47.2812 90.4141 47.2812ZM99.9531 47.2812C101.021 47.2812 101.872 47.6484 102.508 48.3828C103.143 49.1172 103.461 50.2214 103.461 51.6953C103.461 52.6693 103.315 53.487 103.023 54.1484C102.732 54.8099 102.32 55.3099 101.789 55.6484C101.263 55.987 100.641 56.1562 99.9219 56.1562C99.4688 56.1562 99.0703 56.0964 98.7266 55.9766C98.3828 55.8568 98.0885 55.6953 97.8438 55.4922C97.599 55.2891 97.3958 55.0677 97.2344 54.8281H97.1406C97.1562 55.0312 97.1745 55.276 97.1953 55.5625C97.2214 55.849 97.2344 56.099 97.2344 56.3125V59.8281H95.9297V47.4375H97L97.1719 48.7031H97.2344C97.401 48.4427 97.6042 48.2057 97.8438 47.9922C98.0833 47.7734 98.375 47.6016 98.7188 47.4766C99.0677 47.3464 99.4792 47.2812 99.9531 47.2812ZM99.7266 48.375C99.1328 48.375 98.6536 48.4896 98.2891 48.7188C97.9297 48.9479 97.6667 49.2917 97.5 49.75C97.3333 50.2031 97.2448 50.7734 97.2344 51.4609V51.7109C97.2344 52.4349 97.3125 53.0469 97.4688 53.5469C97.6302 54.0469 97.8932 54.4271 98.2578 54.6875C98.6276 54.9479 99.1224 55.0781 99.7422 55.0781C100.273 55.0781 100.716 54.9349 101.07 54.6484C101.424 54.362 101.688 53.9635 101.859 53.4531C102.036 52.9375 102.125 52.3464 102.125 51.6797C102.125 50.6693 101.927 49.8672 101.531 49.2734C101.141 48.6745 100.539 48.375 99.7266 48.375Z" fill="white" fill-opacity="0.5"/>
<path d="M252.188 56H250.344V48.6484C250.344 48.4036 250.346 48.1589 250.352 47.9141C250.357 47.6693 250.362 47.4297 250.367 47.1953C250.378 46.9609 250.391 46.737 250.406 46.5234C250.297 46.6432 250.161 46.7734 250 46.9141C249.844 47.0547 249.677 47.2005 249.5 47.3516L248.188 48.3984L247.266 47.2344L250.656 44.5781H252.188V56ZM263.664 49.4453C263.664 50.1224 263.615 50.7865 263.516 51.4375C263.422 52.0885 263.255 52.6979 263.016 53.2656C262.781 53.8333 262.456 54.3359 262.039 54.7734C261.628 55.2057 261.107 55.5443 260.477 55.7891C259.846 56.0339 259.086 56.1562 258.195 56.1562C257.971 56.1562 257.711 56.1432 257.414 56.1172C257.122 56.0964 256.883 56.0651 256.695 56.0234V54.4922C256.893 54.5495 257.115 54.5964 257.359 54.6328C257.609 54.6641 257.857 54.6797 258.102 54.6797C259.065 54.6797 259.815 54.5 260.352 54.1406C260.893 53.7812 261.276 53.2865 261.5 52.6562C261.729 52.026 261.859 51.3099 261.891 50.5078H261.797C261.646 50.7578 261.456 50.987 261.227 51.1953C260.997 51.3984 260.714 51.5625 260.375 51.6875C260.036 51.8073 259.625 51.8672 259.141 51.8672C258.484 51.8672 257.911 51.7292 257.422 51.4531C256.938 51.1771 256.56 50.776 256.289 50.25C256.023 49.7188 255.891 49.0807 255.891 48.3359C255.891 47.5286 256.044 46.8333 256.352 46.25C256.659 45.6667 257.094 45.2188 257.656 44.9062C258.219 44.5885 258.88 44.4297 259.641 44.4297C260.214 44.4297 260.742 44.5339 261.227 44.7422C261.716 44.9453 262.143 45.2578 262.508 45.6797C262.872 46.0964 263.156 46.6198 263.359 47.25C263.562 47.875 263.664 48.6068 263.664 49.4453ZM259.664 45.9453C259.086 45.9453 258.615 46.1406 258.25 46.5312C257.885 46.9167 257.703 47.5104 257.703 48.3125C257.703 48.9635 257.859 49.4792 258.172 49.8594C258.484 50.2396 258.964 50.4297 259.609 50.4297C260.057 50.4297 260.443 50.3385 260.766 50.1562C261.094 49.9688 261.346 49.7318 261.523 49.4453C261.706 49.1589 261.797 48.8672 261.797 48.5703C261.797 48.263 261.753 47.9557 261.664 47.6484C261.581 47.3411 261.451 47.0599 261.273 46.8047C261.096 46.5495 260.872 46.3438 260.602 46.1875C260.336 46.026 260.023 45.9453 259.664 45.9453ZM265.43 55.0312C265.43 54.6042 265.539 54.3047 265.758 54.1328C265.982 53.9557 266.253 53.8672 266.57 53.8672C266.888 53.8672 267.159 53.9557 267.383 54.1328C267.612 54.3047 267.727 54.6042 267.727 55.0312C267.727 55.4479 267.612 55.75 267.383 55.9375C267.159 56.1198 266.888 56.2109 266.57 56.2109C266.253 56.2109 265.982 56.1198 265.758 55.9375C265.539 55.75 265.43 55.4479 265.43 55.0312ZM276.789 47.1875C276.789 47.7031 276.685 48.151 276.477 48.5312C276.268 48.9115 275.982 49.224 275.617 49.4688C275.258 49.7083 274.841 49.8802 274.367 49.9844V50.0391C275.279 50.1536 275.966 50.4401 276.43 50.8984C276.898 51.3568 277.133 51.9635 277.133 52.7188C277.133 53.3802 276.974 53.9714 276.656 54.4922C276.339 55.0078 275.852 55.4141 275.195 55.7109C274.539 56.0078 273.695 56.1562 272.664 56.1562C272.044 56.1562 271.469 56.1068 270.938 56.0078C270.411 55.9089 269.911 55.75 269.438 55.5312V53.8984C269.922 54.138 270.438 54.3229 270.984 54.4531C271.531 54.5833 272.049 54.6484 272.539 54.6484C273.492 54.6484 274.172 54.4714 274.578 54.1172C274.984 53.7578 275.188 53.263 275.188 52.6328C275.188 52.2266 275.081 51.8932 274.867 51.6328C274.659 51.3724 274.333 51.1771 273.891 51.0469C273.453 50.9167 272.888 50.8516 272.195 50.8516H271.188V49.375H272.203C272.865 49.375 273.396 49.2969 273.797 49.1406C274.198 48.9792 274.487 48.7578 274.664 48.4766C274.846 48.1953 274.938 47.8672 274.938 47.4922C274.938 47.0026 274.779 46.6224 274.461 46.3516C274.143 46.0755 273.672 45.9375 273.047 45.9375C272.661 45.9375 272.31 45.9818 271.992 46.0703C271.68 46.1589 271.391 46.2708 271.125 46.4062C270.859 46.5417 270.607 46.6875 270.367 46.8438L269.484 45.5703C269.917 45.2474 270.432 44.974 271.031 44.75C271.63 44.526 272.328 44.4141 273.125 44.4141C274.297 44.4141 275.201 44.6667 275.836 45.1719C276.471 45.6719 276.789 46.3438 276.789 47.1875Z" fill="#33BBFF"/>
<path d="M285.422 49.2891C284.922 49.2891 284.484 49.1875 284.109 48.9844C283.734 48.7812 283.44 48.4974 283.227 48.1328C283.018 47.763 282.914 47.3385 282.914 46.8594C282.914 46.375 283.016 45.9505 283.219 45.5859C283.427 45.2161 283.719 44.9297 284.094 44.7266C284.469 44.5182 284.911 44.4141 285.422 44.4141C285.917 44.4141 286.352 44.5182 286.727 44.7266C287.107 44.9297 287.404 45.2161 287.617 45.5859C287.831 45.9505 287.938 46.375 287.938 46.8594C287.938 47.3385 287.831 47.763 287.617 48.1328C287.404 48.4974 287.107 48.7812 286.727 48.9844C286.352 49.1875 285.917 49.2891 285.422 49.2891ZM285.438 48.3984C285.948 48.3984 286.331 48.2578 286.586 47.9766C286.841 47.6901 286.969 47.3177 286.969 46.8594C286.969 46.3802 286.836 46 286.57 45.7188C286.31 45.4323 285.932 45.2891 285.438 45.2891C284.911 45.2891 284.521 45.4323 284.266 45.7188C284.01 46 283.883 46.3802 283.883 46.8594C283.883 47.3177 284.008 47.6901 284.258 47.9766C284.513 48.2578 284.906 48.3984 285.438 48.3984ZM295.305 45.5859C294.674 45.5859 294.107 45.6953 293.602 45.9141C293.102 46.1276 292.674 46.4401 292.32 46.8516C291.971 47.2578 291.703 47.75 291.516 48.3281C291.328 48.9062 291.234 49.5573 291.234 50.2812C291.234 51.2396 291.383 52.0729 291.68 52.7812C291.982 53.4844 292.43 54.0286 293.023 54.4141C293.622 54.7995 294.37 54.9922 295.266 54.9922C295.776 54.9922 296.255 54.9505 296.703 54.8672C297.156 54.7786 297.596 54.6693 298.023 54.5391V55.6953C297.607 55.8516 297.169 55.9661 296.711 56.0391C296.253 56.1172 295.708 56.1562 295.078 56.1562C293.917 56.1562 292.945 55.9167 292.164 55.4375C291.388 54.9531 290.805 54.2708 290.414 53.3906C290.029 52.5104 289.836 51.4714 289.836 50.2734C289.836 49.4089 289.956 48.6198 290.195 47.9062C290.44 47.1875 290.794 46.5677 291.258 46.0469C291.727 45.526 292.299 45.125 292.977 44.8438C293.659 44.5573 294.44 44.4141 295.32 44.4141C295.898 44.4141 296.456 44.4714 296.992 44.5859C297.529 44.7005 298.013 44.8646 298.445 45.0781L297.914 46.2031C297.549 46.0365 297.148 45.8932 296.711 45.7734C296.279 45.6484 295.81 45.5859 295.305 45.5859Z" fill="white" fill-opacity="0.5"/>
<rect width="283" height="1" rx="0.5" transform="matrix(1 0 0 -1 16 73)" fill="white" fill-opacity="0.12"/>
<path d="M24.7266 101L23.3203 97.375H18.7422L17.3438 101H16L20.4688 89.5312H21.6641L26.1016 101H24.7266ZM22.9219 96.1953L21.5859 92.5938C21.5547 92.5 21.5026 92.3464 21.4297 92.1328C21.362 91.9193 21.2917 91.6979 21.2188 91.4688C21.1458 91.2396 21.0859 91.0547 21.0391 90.9141C20.987 91.1276 20.9297 91.3411 20.8672 91.5547C20.8099 91.763 20.7526 91.9583 20.6953 92.1406C20.638 92.3177 20.5885 92.4688 20.5469 92.5938L19.1875 96.1953H22.9219ZM28.7891 92.4375V101H27.4922V92.4375H28.7891ZM28.1562 89.2344C28.3698 89.2344 28.5521 89.3047 28.7031 89.4453C28.8594 89.5807 28.9375 89.7943 28.9375 90.0859C28.9375 90.3724 28.8594 90.5859 28.7031 90.7266C28.5521 90.8672 28.3698 90.9375 28.1562 90.9375C27.9323 90.9375 27.7448 90.8672 27.5938 90.7266C27.4479 90.5859 27.375 90.3724 27.375 90.0859C27.375 89.7943 27.4479 89.5807 27.5938 89.4453C27.7448 89.3047 27.9323 89.2344 28.1562 89.2344ZM35.4297 92.2812C35.6016 92.2812 35.7812 92.2917 35.9688 92.3125C36.1562 92.3281 36.3229 92.3516 36.4688 92.3828L36.3047 93.5859C36.1641 93.5495 36.0078 93.5208 35.8359 93.5C35.6641 93.4792 35.5026 93.4688 35.3516 93.4688C35.0078 93.4688 34.6823 93.5391 34.375 93.6797C34.0729 93.8151 33.8073 94.013 33.5781 94.2734C33.349 94.5286 33.1693 94.8385 33.0391 95.2031C32.9089 95.5625 32.8438 95.9635 32.8438 96.4062V101H31.5391V92.4375H32.6172L32.7578 94.0156H32.8125C32.9896 93.6979 33.2031 93.4089 33.4531 93.1484C33.7031 92.8828 33.9922 92.6719 34.3203 92.5156C34.6536 92.3594 35.0234 92.2812 35.4297 92.2812ZM45.0078 100.094C45.2214 100.094 45.4401 100.076 45.6641 100.039C45.888 100.003 46.0703 99.9583 46.2109 99.9062V100.914C46.0599 100.982 45.849 101.039 45.5781 101.086C45.3125 101.133 45.0521 101.156 44.7969 101.156C44.3438 101.156 43.9323 101.078 43.5625 100.922C43.1927 100.76 42.8958 100.49 42.6719 100.109C42.4531 99.7292 42.3438 99.2031 42.3438 98.5312V93.4531H41.125V92.8203L42.3516 92.3125L42.8672 90.4531H43.6484V92.4375H46.1562V93.4531H43.6484V98.4922C43.6484 99.0286 43.7708 99.4297 44.0156 99.6953C44.2656 99.9609 44.5964 100.094 45.0078 100.094ZM51.2422 92.2812C51.9714 92.2812 52.5964 92.4427 53.1172 92.7656C53.638 93.0885 54.0365 93.5417 54.3125 94.125C54.5885 94.7031 54.7266 95.3802 54.7266 96.1562V96.9609H48.8125C48.8281 97.9661 49.0781 98.7318 49.5625 99.2578C50.0469 99.7839 50.7292 100.047 51.6094 100.047C52.151 100.047 52.6302 99.9974 53.0469 99.8984C53.4635 99.7995 53.8958 99.6536 54.3438 99.4609V100.602C53.9115 100.794 53.4818 100.935 53.0547 101.023C52.6328 101.112 52.1328 101.156 51.5547 101.156C50.7318 101.156 50.013 100.99 49.3984 100.656C48.7891 100.318 48.3151 99.8229 47.9766 99.1719C47.638 98.5208 47.4688 97.724 47.4688 96.7812C47.4688 95.8594 47.6224 95.0625 47.9297 94.3906C48.2422 93.7135 48.6797 93.1927 49.2422 92.8281C49.8099 92.4635 50.4766 92.2812 51.2422 92.2812ZM51.2266 93.3438C50.5339 93.3438 49.9818 93.5703 49.5703 94.0234C49.1589 94.4766 48.9141 95.1094 48.8359 95.9219H53.3672C53.362 95.4115 53.2812 94.9635 53.125 94.5781C52.974 94.1875 52.7422 93.8854 52.4297 93.6719C52.1172 93.4531 51.7161 93.3438 51.2266 93.3438ZM66.2266 92.2812C67.1693 92.2812 67.8802 92.5286 68.3594 93.0234C68.8385 93.513 69.0781 94.3021 69.0781 95.3906V101H67.7969V95.4531C67.7969 94.7604 67.6458 94.2422 67.3438 93.8984C67.0469 93.5495 66.6042 93.375 66.0156 93.375C65.1875 93.375 64.5859 93.6146 64.2109 94.0938C63.8359 94.5729 63.6484 95.2786 63.6484 96.2109V101H62.3594V95.4531C62.3594 94.9896 62.2917 94.6042 62.1562 94.2969C62.026 93.9896 61.8281 93.7604 61.5625 93.6094C61.3021 93.4531 60.9714 93.375 60.5703 93.375C60.0026 93.375 59.5469 93.4922 59.2031 93.7266C58.8594 93.9609 58.6094 94.3099 58.4531 94.7734C58.3021 95.2318 58.2266 95.7969 58.2266 96.4688V101H56.9297V92.4375H57.9766L58.1719 93.6484H58.2422C58.4141 93.3516 58.6302 93.1016 58.8906 92.8984C59.151 92.6953 59.4427 92.5417 59.7656 92.4375C60.0885 92.3333 60.4323 92.2812 60.7969 92.2812C61.4479 92.2812 61.9922 92.4036 62.4297 92.6484C62.8724 92.888 63.1927 93.2552 63.3906 93.75H63.4609C63.7422 93.2552 64.1276 92.888 64.6172 92.6484C65.1068 92.4036 65.6432 92.2812 66.2266 92.2812ZM75.7656 92.2812C76.8333 92.2812 77.6849 92.6484 78.3203 93.3828C78.9557 94.1172 79.2734 95.2214 79.2734 96.6953C79.2734 97.6693 79.1276 98.487 78.8359 99.1484C78.5443 99.8099 78.1328 100.31 77.6016 100.648C77.0755 100.987 76.4531 101.156 75.7344 101.156C75.2812 101.156 74.8828 101.096 74.5391 100.977C74.1953 100.857 73.901 100.695 73.6562 100.492C73.4115 100.289 73.2083 100.068 73.0469 99.8281H72.9531C72.9688 100.031 72.987 100.276 73.0078 100.562C73.0339 100.849 73.0469 101.099 73.0469 101.312V104.828H71.7422V92.4375H72.8125L72.9844 93.7031H73.0469C73.2135 93.4427 73.4167 93.2057 73.6562 92.9922C73.8958 92.7734 74.1875 92.6016 74.5312 92.4766C74.8802 92.3464 75.2917 92.2812 75.7656 92.2812ZM75.5391 93.375C74.9453 93.375 74.4661 93.4896 74.1016 93.7188C73.7422 93.9479 73.4792 94.2917 73.3125 94.75C73.1458 95.2031 73.0573 95.7734 73.0469 96.4609V96.7109C73.0469 97.4349 73.125 98.0469 73.2812 98.5469C73.4427 99.0469 73.7057 99.4271 74.0703 99.6875C74.4401 99.9479 74.9349 100.078 75.5547 100.078C76.0859 100.078 76.5286 99.9349 76.8828 99.6484C77.237 99.362 77.5 98.9635 77.6719 98.4531C77.849 97.9375 77.9375 97.3464 77.9375 96.6797C77.9375 95.6693 77.7396 94.8672 77.3438 94.2734C76.9531 93.6745 76.3516 93.375 75.5391 93.375Z" fill="white" fill-opacity="0.5"/>
<path d="M252.188 101H250.344V93.6484C250.344 93.4036 250.346 93.1589 250.352 92.9141C250.357 92.6693 250.362 92.4297 250.367 92.1953C250.378 91.9609 250.391 91.737 250.406 91.5234C250.297 91.6432 250.161 91.7734 250 91.9141C249.844 92.0547 249.677 92.2005 249.5 92.3516L248.188 93.3984L247.266 92.2344L250.656 89.5781H252.188V101ZM263.664 94.4453C263.664 95.1224 263.615 95.7865 263.516 96.4375C263.422 97.0885 263.255 97.6979 263.016 98.2656C262.781 98.8333 262.456 99.3359 262.039 99.7734C261.628 100.206 261.107 100.544 260.477 100.789C259.846 101.034 259.086 101.156 258.195 101.156C257.971 101.156 257.711 101.143 257.414 101.117C257.122 101.096 256.883 101.065 256.695 101.023V99.4922C256.893 99.5495 257.115 99.5964 257.359 99.6328C257.609 99.6641 257.857 99.6797 258.102 99.6797C259.065 99.6797 259.815 99.5 260.352 99.1406C260.893 98.7812 261.276 98.2865 261.5 97.6562C261.729 97.026 261.859 96.3099 261.891 95.5078H261.797C261.646 95.7578 261.456 95.987 261.227 96.1953C260.997 96.3984 260.714 96.5625 260.375 96.6875C260.036 96.8073 259.625 96.8672 259.141 96.8672C258.484 96.8672 257.911 96.7292 257.422 96.4531C256.938 96.1771 256.56 95.776 256.289 95.25C256.023 94.7188 255.891 94.0807 255.891 93.3359C255.891 92.5286 256.044 91.8333 256.352 91.25C256.659 90.6667 257.094 90.2188 257.656 89.9062C258.219 89.5885 258.88 89.4297 259.641 89.4297C260.214 89.4297 260.742 89.5339 261.227 89.7422C261.716 89.9453 262.143 90.2578 262.508 90.6797C262.872 91.0964 263.156 91.6198 263.359 92.25C263.562 92.875 263.664 93.6068 263.664 94.4453ZM259.664 90.9453C259.086 90.9453 258.615 91.1406 258.25 91.5312C257.885 91.9167 257.703 92.5104 257.703 93.3125C257.703 93.9635 257.859 94.4792 258.172 94.8594C258.484 95.2396 258.964 95.4297 259.609 95.4297C260.057 95.4297 260.443 95.3385 260.766 95.1562C261.094 94.9688 261.346 94.7318 261.523 94.4453C261.706 94.1589 261.797 93.8672 261.797 93.5703C261.797 93.263 261.753 92.9557 261.664 92.6484C261.581 92.3411 261.451 92.0599 261.273 91.8047C261.096 91.5495 260.872 91.3438 260.602 91.1875C260.336 91.026 260.023 90.9453 259.664 90.9453ZM265.43 100.031C265.43 99.6042 265.539 99.3047 265.758 99.1328C265.982 98.9557 266.253 98.8672 266.57 98.8672C266.888 98.8672 267.159 98.9557 267.383 99.1328C267.612 99.3047 267.727 99.6042 267.727 100.031C267.727 100.448 267.612 100.75 267.383 100.938C267.159 101.12 266.888 101.211 266.57 101.211C266.253 101.211 265.982 101.12 265.758 100.938C265.539 100.75 265.43 100.448 265.43 100.031ZM276.789 92.1875C276.789 92.7031 276.685 93.151 276.477 93.5312C276.268 93.9115 275.982 94.224 275.617 94.4688C275.258 94.7083 274.841 94.8802 274.367 94.9844V95.0391C275.279 95.1536 275.966 95.4401 276.43 95.8984C276.898 96.3568 277.133 96.9635 277.133 97.7188C277.133 98.3802 276.974 98.9714 276.656 99.4922C276.339 100.008 275.852 100.414 275.195 100.711C274.539 101.008 273.695 101.156 272.664 101.156C272.044 101.156 271.469 101.107 270.938 101.008C270.411 100.909 269.911 100.75 269.438 100.531V98.8984C269.922 99.138 270.438 99.3229 270.984 99.4531C271.531 99.5833 272.049 99.6484 272.539 99.6484C273.492 99.6484 274.172 99.4714 274.578 99.1172C274.984 98.7578 275.188 98.263 275.188 97.6328C275.188 97.2266 275.081 96.8932 274.867 96.6328C274.659 96.3724 274.333 96.1771 273.891 96.0469C273.453 95.9167 272.888 95.8516 272.195 95.8516H271.188V94.375H272.203C272.865 94.375 273.396 94.2969 273.797 94.1406C274.198 93.9792 274.487 93.7578 274.664 93.4766C274.846 93.1953 274.938 92.8672 274.938 92.4922C274.938 92.0026 274.779 91.6224 274.461 91.3516C274.143 91.0755 273.672 90.9375 273.047 90.9375C272.661 90.9375 272.31 90.9818 271.992 91.0703C271.68 91.1589 271.391 91.2708 271.125 91.4062C270.859 91.5417 270.607 91.6875 270.367 91.8438L269.484 90.5703C269.917 90.2474 270.432 89.974 271.031 89.75C271.63 89.526 272.328 89.4141 273.125 89.4141C274.297 89.4141 275.201 89.6667 275.836 90.1719C276.471 90.6719 276.789 91.3438 276.789 92.1875Z" fill="#33BBFF"/>
<path d="M285.422 94.2891C284.922 94.2891 284.484 94.1875 284.109 93.9844C283.734 93.7812 283.44 93.4974 283.227 93.1328C283.018 92.763 282.914 92.3385 282.914 91.8594C282.914 91.375 283.016 90.9505 283.219 90.5859C283.427 90.2161 283.719 89.9297 284.094 89.7266C284.469 89.5182 284.911 89.4141 285.422 89.4141C285.917 89.4141 286.352 89.5182 286.727 89.7266C287.107 89.9297 287.404 90.2161 287.617 90.5859C287.831 90.9505 287.938 91.375 287.938 91.8594C287.938 92.3385 287.831 92.763 287.617 93.1328C287.404 93.4974 287.107 93.7812 286.727 93.9844C286.352 94.1875 285.917 94.2891 285.422 94.2891ZM285.438 93.3984C285.948 93.3984 286.331 93.2578 286.586 92.9766C286.841 92.6901 286.969 92.3177 286.969 91.8594C286.969 91.3802 286.836 91 286.57 90.7188C286.31 90.4323 285.932 90.2891 285.438 90.2891C284.911 90.2891 284.521 90.4323 284.266 90.7188C284.01 91 283.883 91.3802 283.883 91.8594C283.883 92.3177 284.008 92.6901 284.258 92.9766C284.513 93.2578 284.906 93.3984 285.438 93.3984ZM295.305 90.5859C294.674 90.5859 294.107 90.6953 293.602 90.9141C293.102 91.1276 292.674 91.4401 292.32 91.8516C291.971 92.2578 291.703 92.75 291.516 93.3281C291.328 93.9062 291.234 94.5573 291.234 95.2812C291.234 96.2396 291.383 97.0729 291.68 97.7812C291.982 98.4844 292.43 99.0286 293.023 99.4141C293.622 99.7995 294.37 99.9922 295.266 99.9922C295.776 99.9922 296.255 99.9505 296.703 99.8672C297.156 99.7786 297.596 99.6693 298.023 99.5391V100.695C297.607 100.852 297.169 100.966 296.711 101.039C296.253 101.117 295.708 101.156 295.078 101.156C293.917 101.156 292.945 100.917 292.164 100.438C291.388 99.9531 290.805 99.2708 290.414 98.3906C290.029 97.5104 289.836 96.4714 289.836 95.2734C289.836 94.4089 289.956 93.6198 290.195 92.9062C290.44 92.1875 290.794 91.5677 291.258 91.0469C291.727 90.526 292.299 90.125 292.977 89.8438C293.659 89.5573 294.44 89.4141 295.32 89.4141C295.898 89.4141 296.456 89.4714 296.992 89.5859C297.529 89.7005 298.013 89.8646 298.445 90.0781L297.914 91.2031C297.549 91.0365 297.148 90.8932 296.711 90.7734C296.279 90.6484 295.81 90.5859 295.305 90.5859Z" fill="white" fill-opacity="0.5"/>
<path d="M26.2188 129H24.8906V123.617H18.8906V129H17.5625V117.578H18.8906V122.445H24.8906V117.578H26.2188V129ZM36.2344 120.438V129H35.1719L34.9844 127.797H34.9141C34.737 128.094 34.5078 128.344 34.2266 128.547C33.9453 128.75 33.6276 128.901 33.2734 129C32.9245 129.104 32.5521 129.156 32.1562 129.156C31.4792 129.156 30.9115 129.047 30.4531 128.828C29.9948 128.609 29.6484 128.271 29.4141 127.812C29.1849 127.354 29.0703 126.766 29.0703 126.047V120.438H30.3828V125.953C30.3828 126.667 30.5443 127.201 30.8672 127.555C31.1901 127.904 31.6823 128.078 32.3438 128.078C32.9792 128.078 33.4844 127.958 33.8594 127.719C34.2396 127.479 34.513 127.128 34.6797 126.664C34.8464 126.195 34.9297 125.622 34.9297 124.945V120.438H36.2344ZM48.2734 120.281C49.2161 120.281 49.9271 120.529 50.4062 121.023C50.8854 121.513 51.125 122.302 51.125 123.391V129H49.8438V123.453C49.8438 122.76 49.6927 122.242 49.3906 121.898C49.0938 121.549 48.651 121.375 48.0625 121.375C47.2344 121.375 46.6328 121.615 46.2578 122.094C45.8828 122.573 45.6953 123.279 45.6953 124.211V129H44.4062V123.453C44.4062 122.99 44.3385 122.604 44.2031 122.297C44.0729 121.99 43.875 121.76 43.6094 121.609C43.349 121.453 43.0182 121.375 42.6172 121.375C42.0495 121.375 41.5938 121.492 41.25 121.727C40.9062 121.961 40.6562 122.31 40.5 122.773C40.349 123.232 40.2734 123.797 40.2734 124.469V129H38.9766V120.438H40.0234L40.2188 121.648H40.2891C40.4609 121.352 40.6771 121.102 40.9375 120.898C41.1979 120.695 41.4896 120.542 41.8125 120.438C42.1354 120.333 42.4792 120.281 42.8438 120.281C43.4948 120.281 44.0391 120.404 44.4766 120.648C44.9193 120.888 45.2396 121.255 45.4375 121.75H45.5078C45.7891 121.255 46.1745 120.888 46.6641 120.648C47.1536 120.404 47.6901 120.281 48.2734 120.281ZM55.0859 120.438V129H53.7891V120.438H55.0859ZM54.4531 117.234C54.6667 117.234 54.849 117.305 55 117.445C55.1562 117.581 55.2344 117.794 55.2344 118.086C55.2344 118.372 55.1562 118.586 55 118.727C54.849 118.867 54.6667 118.938 54.4531 118.938C54.2292 118.938 54.0417 118.867 53.8906 118.727C53.7448 118.586 53.6719 118.372 53.6719 118.086C53.6719 117.794 53.7448 117.581 53.8906 117.445C54.0417 117.305 54.2292 117.234 54.4531 117.234ZM60.8828 129.156C59.7995 129.156 58.9401 128.786 58.3047 128.047C57.6745 127.307 57.3594 126.208 57.3594 124.75C57.3594 123.276 57.6823 122.164 58.3281 121.414C58.974 120.659 59.8333 120.281 60.9062 120.281C61.3594 120.281 61.7552 120.341 62.0938 120.461C62.4323 120.581 62.724 120.742 62.9688 120.945C63.2135 121.143 63.4193 121.37 63.5859 121.625H63.6797C63.6589 121.464 63.638 121.242 63.6172 120.961C63.5964 120.68 63.5859 120.451 63.5859 120.273V116.844H64.8828V129H63.8359L63.6406 127.781H63.5859C63.4245 128.036 63.2188 128.268 62.9688 128.477C62.724 128.685 62.4297 128.852 62.0859 128.977C61.7474 129.096 61.3464 129.156 60.8828 129.156ZM61.0859 128.078C62.0026 128.078 62.651 127.818 63.0312 127.297C63.4115 126.776 63.6016 126.003 63.6016 124.977V124.742C63.6016 123.654 63.4193 122.818 63.0547 122.234C62.6953 121.651 62.0391 121.359 61.0859 121.359C60.2891 121.359 59.6927 121.667 59.2969 122.281C58.901 122.891 58.7031 123.724 58.7031 124.781C58.7031 125.833 58.8984 126.646 59.2891 127.219C59.6849 127.792 60.2839 128.078 61.0859 128.078ZM68.9297 120.438V129H67.6328V120.438H68.9297ZM68.2969 117.234C68.5104 117.234 68.6927 117.305 68.8438 117.445C69 117.581 69.0781 117.794 69.0781 118.086C69.0781 118.372 69 118.586 68.8438 118.727C68.6927 118.867 68.5104 118.938 68.2969 118.938C68.0729 118.938 67.8854 118.867 67.7344 118.727C67.5885 118.586 67.5156 118.372 67.5156 118.086C67.5156 117.794 67.5885 117.581 67.7344 117.445C67.8854 117.305 68.0729 117.234 68.2969 117.234ZM74.4453 128.094C74.6589 128.094 74.8776 128.076 75.1016 128.039C75.3255 128.003 75.5078 127.958 75.6484 127.906V128.914C75.4974 128.982 75.2865 129.039 75.0156 129.086C74.75 129.133 74.4896 129.156 74.2344 129.156C73.7812 129.156 73.3698 129.078 73 128.922C72.6302 128.76 72.3333 128.49 72.1094 128.109C71.8906 127.729 71.7812 127.203 71.7812 126.531V121.453H70.5625V120.82L71.7891 120.312L72.3047 118.453H73.0859V120.438H75.5938V121.453H73.0859V126.492C73.0859 127.029 73.2083 127.43 73.4531 127.695C73.7031 127.961 74.0339 128.094 74.4453 128.094ZM76.0312 120.438H77.4219L79.3125 125.406C79.4219 125.698 79.5234 125.979 79.6172 126.25C79.7109 126.516 79.7943 126.771 79.8672 127.016C79.9401 127.26 79.9974 127.497 80.0391 127.727H80.0938C80.1667 127.466 80.2708 127.125 80.4062 126.703C80.5417 126.276 80.6875 125.841 80.8438 125.398L82.6328 120.438H84.0312L80.3047 130.258C80.1068 130.784 79.875 131.242 79.6094 131.633C79.349 132.023 79.0312 132.323 78.6562 132.531C78.2812 132.745 77.8281 132.852 77.2969 132.852C77.0521 132.852 76.8359 132.836 76.6484 132.805C76.4609 132.779 76.2995 132.747 76.1641 132.711V131.672C76.2786 131.698 76.4167 131.721 76.5781 131.742C76.7448 131.763 76.9167 131.773 77.0938 131.773C77.4167 131.773 77.6953 131.711 77.9297 131.586C78.1693 131.466 78.375 131.289 78.5469 131.055C78.7188 130.82 78.8672 130.542 78.9922 130.219L79.4609 129.016L76.0312 120.438Z" fill="white" fill-opacity="0.5"/>
<path d="M257.523 123.281C257.523 124.203 257.451 125.029 257.305 125.758C257.164 126.482 256.94 127.096 256.633 127.602C256.326 128.107 255.924 128.492 255.43 128.758C254.935 129.023 254.336 129.156 253.633 129.156C252.753 129.156 252.026 128.924 251.453 128.461C250.88 127.992 250.456 127.32 250.18 126.445C249.904 125.565 249.766 124.51 249.766 123.281C249.766 122.052 249.891 121 250.141 120.125C250.396 119.245 250.807 118.57 251.375 118.102C251.943 117.633 252.695 117.398 253.633 117.398C254.518 117.398 255.247 117.633 255.82 118.102C256.398 118.565 256.826 119.237 257.102 120.117C257.383 120.992 257.523 122.047 257.523 123.281ZM251.617 123.281C251.617 124.245 251.68 125.049 251.805 125.695C251.935 126.341 252.148 126.826 252.445 127.148C252.742 127.466 253.138 127.625 253.633 127.625C254.128 127.625 254.523 127.466 254.82 127.148C255.117 126.831 255.331 126.349 255.461 125.703C255.596 125.057 255.664 124.25 255.664 123.281C255.664 122.323 255.599 121.521 255.469 120.875C255.339 120.229 255.125 119.745 254.828 119.422C254.531 119.094 254.133 118.93 253.633 118.93C253.133 118.93 252.734 119.094 252.438 119.422C252.146 119.745 251.935 120.229 251.805 120.875C251.68 121.521 251.617 122.323 251.617 123.281ZM264.344 129H262.5V121.648C262.5 121.404 262.503 121.159 262.508 120.914C262.513 120.669 262.518 120.43 262.523 120.195C262.534 119.961 262.547 119.737 262.562 119.523C262.453 119.643 262.318 119.773 262.156 119.914C262 120.055 261.833 120.201 261.656 120.352L260.344 121.398L259.422 120.234L262.812 117.578H264.344V129ZM268.43 128.031C268.43 127.604 268.539 127.305 268.758 127.133C268.982 126.956 269.253 126.867 269.57 126.867C269.888 126.867 270.159 126.956 270.383 127.133C270.612 127.305 270.727 127.604 270.727 128.031C270.727 128.448 270.612 128.75 270.383 128.938C270.159 129.12 269.888 129.211 269.57 129.211C269.253 129.211 268.982 129.12 268.758 128.938C268.539 128.75 268.43 128.448 268.43 128.031ZM277.891 129H276.047V121.648C276.047 121.404 276.049 121.159 276.055 120.914C276.06 120.669 276.065 120.43 276.07 120.195C276.081 119.961 276.094 119.737 276.109 119.523C276 119.643 275.865 119.773 275.703 119.914C275.547 120.055 275.38 120.201 275.203 120.352L273.891 121.398L272.969 120.234L276.359 117.578H277.891V129Z" fill="#33BBFF"/>
<path d="M288.117 117.414C288.898 117.414 289.49 117.727 289.891 118.352C290.297 118.971 290.5 119.849 290.5 120.984C290.5 122.12 290.305 123.005 289.914 123.641C289.523 124.271 288.924 124.586 288.117 124.586C287.367 124.586 286.792 124.271 286.391 123.641C285.995 123.005 285.797 122.12 285.797 120.984C285.797 119.849 285.987 118.971 286.367 118.352C286.747 117.727 287.331 117.414 288.117 117.414ZM288.117 118.344C287.695 118.344 287.385 118.565 287.188 119.008C286.99 119.445 286.891 120.104 286.891 120.984C286.891 121.865 286.99 122.529 287.188 122.977C287.385 123.424 287.695 123.648 288.117 123.648C288.555 123.648 288.88 123.424 289.094 122.977C289.307 122.529 289.414 121.865 289.414 120.984C289.414 120.109 289.307 119.451 289.094 119.008C288.885 118.565 288.56 118.344 288.117 118.344ZM295.352 117.578L289.016 129H287.875L294.211 117.578H295.352ZM295.047 121.992C295.823 121.992 296.414 122.305 296.82 122.93C297.227 123.549 297.43 124.427 297.43 125.562C297.43 126.693 297.234 127.576 296.844 128.211C296.453 128.841 295.854 129.156 295.047 129.156C294.292 129.156 293.716 128.841 293.32 128.211C292.924 127.576 292.727 126.693 292.727 125.562C292.727 124.427 292.914 123.549 293.289 122.93C293.669 122.305 294.255 121.992 295.047 121.992ZM295.047 122.93C294.625 122.93 294.315 123.148 294.117 123.586C293.919 124.023 293.82 124.682 293.82 125.562C293.82 126.443 293.919 127.107 294.117 127.555C294.315 127.997 294.625 128.219 295.047 128.219C295.484 128.219 295.81 128 296.023 127.562C296.237 127.12 296.344 126.453 296.344 125.562C296.344 124.688 296.237 124.031 296.023 123.594C295.815 123.151 295.49 122.93 295.047 122.93Z" fill="white" fill-opacity="0.5"/>
<path d="M20.5469 145.578C22.0208 145.578 23.0964 145.867 23.7734 146.445C24.4557 147.018 24.7969 147.841 24.7969 148.914C24.7969 149.398 24.7161 149.859 24.5547 150.297C24.3984 150.729 24.1432 151.112 23.7891 151.445C23.4349 151.773 22.9688 152.034 22.3906 152.227C21.8177 152.414 21.1146 152.508 20.2812 152.508H18.8906V157H17.5625V145.578H20.5469ZM20.4219 146.711H18.8906V151.367H20.1328C20.862 151.367 21.4688 151.289 21.9531 151.133C22.4427 150.977 22.8099 150.724 23.0547 150.375C23.2995 150.021 23.4219 149.552 23.4219 148.969C23.4219 148.208 23.1797 147.643 22.6953 147.273C22.2109 146.898 21.4531 146.711 20.4219 146.711ZM30.8828 148.281C31.0547 148.281 31.2344 148.292 31.4219 148.312C31.6094 148.328 31.776 148.352 31.9219 148.383L31.7578 149.586C31.6172 149.549 31.4609 149.521 31.2891 149.5C31.1172 149.479 30.9557 149.469 30.8047 149.469C30.4609 149.469 30.1354 149.539 29.8281 149.68C29.526 149.815 29.2604 150.013 29.0312 150.273C28.8021 150.529 28.6224 150.839 28.4922 151.203C28.362 151.562 28.2969 151.964 28.2969 152.406V157H26.9922V148.438H28.0703L28.2109 150.016H28.2656C28.4427 149.698 28.6562 149.409 28.9062 149.148C29.1562 148.883 29.4453 148.672 29.7734 148.516C30.1068 148.359 30.4766 148.281 30.8828 148.281ZM36.8359 148.281C37.5651 148.281 38.1901 148.443 38.7109 148.766C39.2318 149.089 39.6302 149.542 39.9062 150.125C40.1823 150.703 40.3203 151.38 40.3203 152.156V152.961H34.4062C34.4219 153.966 34.6719 154.732 35.1562 155.258C35.6406 155.784 36.3229 156.047 37.2031 156.047C37.7448 156.047 38.224 155.997 38.6406 155.898C39.0573 155.799 39.4896 155.654 39.9375 155.461V156.602C39.5052 156.794 39.0755 156.935 38.6484 157.023C38.2266 157.112 37.7266 157.156 37.1484 157.156C36.3255 157.156 35.6068 156.99 34.9922 156.656C34.3828 156.318 33.9089 155.823 33.5703 155.172C33.2318 154.521 33.0625 153.724 33.0625 152.781C33.0625 151.859 33.2161 151.062 33.5234 150.391C33.8359 149.714 34.2734 149.193 34.8359 148.828C35.4036 148.464 36.0703 148.281 36.8359 148.281ZM36.8203 149.344C36.1276 149.344 35.5755 149.57 35.1641 150.023C34.7526 150.477 34.5078 151.109 34.4297 151.922H38.9609C38.9557 151.411 38.875 150.964 38.7188 150.578C38.5677 150.188 38.3359 149.885 38.0234 149.672C37.7109 149.453 37.3099 149.344 36.8203 149.344ZM48.0625 154.656C48.0625 155.203 47.9245 155.664 47.6484 156.039C47.3776 156.409 46.987 156.688 46.4766 156.875C45.9714 157.062 45.3672 157.156 44.6641 157.156C44.0651 157.156 43.5469 157.109 43.1094 157.016C42.6719 156.922 42.2891 156.789 41.9609 156.617V155.422C42.3099 155.594 42.7266 155.75 43.2109 155.891C43.6953 156.031 44.1901 156.102 44.6953 156.102C45.4349 156.102 45.9714 155.982 46.3047 155.742C46.638 155.503 46.8047 155.177 46.8047 154.766C46.8047 154.531 46.737 154.326 46.6016 154.148C46.4714 153.966 46.25 153.792 45.9375 153.625C45.625 153.453 45.1927 153.266 44.6406 153.062C44.0938 152.854 43.6198 152.648 43.2188 152.445C42.8229 152.237 42.5156 151.984 42.2969 151.688C42.0833 151.391 41.9766 151.005 41.9766 150.531C41.9766 149.807 42.2682 149.253 42.8516 148.867C43.4401 148.477 44.2109 148.281 45.1641 148.281C45.6797 148.281 46.1615 148.333 46.6094 148.438C47.0625 148.536 47.4844 148.672 47.875 148.844L47.4375 149.883C47.0833 149.732 46.7057 149.604 46.3047 149.5C45.9036 149.396 45.4948 149.344 45.0781 149.344C44.4792 149.344 44.0182 149.443 43.6953 149.641C43.3776 149.839 43.2188 150.109 43.2188 150.453C43.2188 150.719 43.2917 150.938 43.4375 151.109C43.5885 151.281 43.8281 151.443 44.1562 151.594C44.4844 151.745 44.9167 151.922 45.4531 152.125C45.9896 152.323 46.4531 152.529 46.8438 152.742C47.2344 152.951 47.5339 153.206 47.7422 153.508C47.9557 153.805 48.0625 154.188 48.0625 154.656ZM55.6875 154.656C55.6875 155.203 55.5495 155.664 55.2734 156.039C55.0026 156.409 54.612 156.688 54.1016 156.875C53.5964 157.062 52.9922 157.156 52.2891 157.156C51.6901 157.156 51.1719 157.109 50.7344 157.016C50.2969 156.922 49.9141 156.789 49.5859 156.617V155.422C49.9349 155.594 50.3516 155.75 50.8359 155.891C51.3203 156.031 51.8151 156.102 52.3203 156.102C53.0599 156.102 53.5964 155.982 53.9297 155.742C54.263 155.503 54.4297 155.177 54.4297 154.766C54.4297 154.531 54.362 154.326 54.2266 154.148C54.0964 153.966 53.875 153.792 53.5625 153.625C53.25 153.453 52.8177 153.266 52.2656 153.062C51.7188 152.854 51.2448 152.648 50.8438 152.445C50.4479 152.237 50.1406 151.984 49.9219 151.688C49.7083 151.391 49.6016 151.005 49.6016 150.531C49.6016 149.807 49.8932 149.253 50.4766 148.867C51.0651 148.477 51.8359 148.281 52.7891 148.281C53.3047 148.281 53.7865 148.333 54.2344 148.438C54.6875 148.536 55.1094 148.672 55.5 148.844L55.0625 149.883C54.7083 149.732 54.3307 149.604 53.9297 149.5C53.5286 149.396 53.1198 149.344 52.7031 149.344C52.1042 149.344 51.6432 149.443 51.3203 149.641C51.0026 149.839 50.8438 150.109 50.8438 150.453C50.8438 150.719 50.9167 150.938 51.0625 151.109C51.2135 151.281 51.4531 151.443 51.7812 151.594C52.1094 151.745 52.5417 151.922 53.0781 152.125C53.6146 152.323 54.0781 152.529 54.4688 152.742C54.8594 152.951 55.1589 153.206 55.3672 153.508C55.5807 153.805 55.6875 154.188 55.6875 154.656ZM64.8438 148.438V157H63.7812L63.5938 155.797H63.5234C63.3464 156.094 63.1172 156.344 62.8359 156.547C62.5547 156.75 62.237 156.901 61.8828 157C61.5339 157.104 61.1615 157.156 60.7656 157.156C60.0885 157.156 59.5208 157.047 59.0625 156.828C58.6042 156.609 58.2578 156.271 58.0234 155.812C57.7943 155.354 57.6797 154.766 57.6797 154.047V148.438H58.9922V153.953C58.9922 154.667 59.1536 155.201 59.4766 155.555C59.7995 155.904 60.2917 156.078 60.9531 156.078C61.5885 156.078 62.0938 155.958 62.4688 155.719C62.849 155.479 63.1224 155.128 63.2891 154.664C63.4557 154.195 63.5391 153.622 63.5391 152.945V148.438H64.8438ZM71.4766 148.281C71.6484 148.281 71.8281 148.292 72.0156 148.312C72.2031 148.328 72.3698 148.352 72.5156 148.383L72.3516 149.586C72.2109 149.549 72.0547 149.521 71.8828 149.5C71.7109 149.479 71.5495 149.469 71.3984 149.469C71.0547 149.469 70.7292 149.539 70.4219 149.68C70.1198 149.815 69.8542 150.013 69.625 150.273C69.3958 150.529 69.2161 150.839 69.0859 151.203C68.9557 151.562 68.8906 151.964 68.8906 152.406V157H67.5859V148.438H68.6641L68.8047 150.016H68.8594C69.0365 149.698 69.25 149.409 69.5 149.148C69.75 148.883 70.0391 148.672 70.3672 148.516C70.7005 148.359 71.0703 148.281 71.4766 148.281ZM77.4297 148.281C78.1589 148.281 78.7839 148.443 79.3047 148.766C79.8255 149.089 80.224 149.542 80.5 150.125C80.776 150.703 80.9141 151.38 80.9141 152.156V152.961H75C75.0156 153.966 75.2656 154.732 75.75 155.258C76.2344 155.784 76.9167 156.047 77.7969 156.047C78.3385 156.047 78.8177 155.997 79.2344 155.898C79.651 155.799 80.0833 155.654 80.5312 155.461V156.602C80.099 156.794 79.6693 156.935 79.2422 157.023C78.8203 157.112 78.3203 157.156 77.7422 157.156C76.9193 157.156 76.2005 156.99 75.5859 156.656C74.9766 156.318 74.5026 155.823 74.1641 155.172C73.8255 154.521 73.6562 153.724 73.6562 152.781C73.6562 151.859 73.8099 151.062 74.1172 150.391C74.4297 149.714 74.8672 149.193 75.4297 148.828C75.9974 148.464 76.6641 148.281 77.4297 148.281ZM77.4141 149.344C76.7214 149.344 76.1693 149.57 75.7578 150.023C75.3464 150.477 75.1016 151.109 75.0234 151.922H79.5547C79.5495 151.411 79.4688 150.964 79.3125 150.578C79.1615 150.188 78.9297 149.885 78.6172 149.672C78.3047 149.453 77.9036 149.344 77.4141 149.344Z" fill="white" fill-opacity="0.5"/>
<path d="M222.867 151.281C222.867 152.203 222.794 153.029 222.648 153.758C222.508 154.482 222.284 155.096 221.977 155.602C221.669 156.107 221.268 156.492 220.773 156.758C220.279 157.023 219.68 157.156 218.977 157.156C218.096 157.156 217.37 156.924 216.797 156.461C216.224 155.992 215.799 155.32 215.523 154.445C215.247 153.565 215.109 152.51 215.109 151.281C215.109 150.052 215.234 149 215.484 148.125C215.74 147.245 216.151 146.57 216.719 146.102C217.286 145.633 218.039 145.398 218.977 145.398C219.862 145.398 220.591 145.633 221.164 146.102C221.742 146.565 222.169 147.237 222.445 148.117C222.727 148.992 222.867 150.047 222.867 151.281ZM216.961 151.281C216.961 152.245 217.023 153.049 217.148 153.695C217.279 154.341 217.492 154.826 217.789 155.148C218.086 155.466 218.482 155.625 218.977 155.625C219.471 155.625 219.867 155.466 220.164 155.148C220.461 154.831 220.674 154.349 220.805 153.703C220.94 153.057 221.008 152.25 221.008 151.281C221.008 150.323 220.943 149.521 220.812 148.875C220.682 148.229 220.469 147.745 220.172 147.422C219.875 147.094 219.477 146.93 218.977 146.93C218.477 146.93 218.078 147.094 217.781 147.422C217.49 147.745 217.279 148.229 217.148 148.875C217.023 149.521 216.961 150.323 216.961 151.281ZM232.023 151.281C232.023 152.203 231.951 153.029 231.805 153.758C231.664 154.482 231.44 155.096 231.133 155.602C230.826 156.107 230.424 156.492 229.93 156.758C229.435 157.023 228.836 157.156 228.133 157.156C227.253 157.156 226.526 156.924 225.953 156.461C225.38 155.992 224.956 155.32 224.68 154.445C224.404 153.565 224.266 152.51 224.266 151.281C224.266 150.052 224.391 149 224.641 148.125C224.896 147.245 225.307 146.57 225.875 146.102C226.443 145.633 227.195 145.398 228.133 145.398C229.018 145.398 229.747 145.633 230.32 146.102C230.898 146.565 231.326 147.237 231.602 148.117C231.883 148.992 232.023 150.047 232.023 151.281ZM226.117 151.281C226.117 152.245 226.18 153.049 226.305 153.695C226.435 154.341 226.648 154.826 226.945 155.148C227.242 155.466 227.638 155.625 228.133 155.625C228.628 155.625 229.023 155.466 229.32 155.148C229.617 154.831 229.831 154.349 229.961 153.703C230.096 153.057 230.164 152.25 230.164 151.281C230.164 150.323 230.099 149.521 229.969 148.875C229.839 148.229 229.625 147.745 229.328 147.422C229.031 147.094 228.633 146.93 228.133 146.93C227.633 146.93 227.234 147.094 226.938 147.422C226.646 147.745 226.435 148.229 226.305 148.875C226.18 149.521 226.117 150.323 226.117 151.281ZM238.844 157H237V149.648C237 149.404 237.003 149.159 237.008 148.914C237.013 148.669 237.018 148.43 237.023 148.195C237.034 147.961 237.047 147.737 237.062 147.523C236.953 147.643 236.818 147.773 236.656 147.914C236.5 148.055 236.333 148.201 236.156 148.352L234.844 149.398L233.922 148.234L237.312 145.578H238.844V157ZM250.336 151.281C250.336 152.203 250.263 153.029 250.117 153.758C249.977 154.482 249.753 155.096 249.445 155.602C249.138 156.107 248.737 156.492 248.242 156.758C247.747 157.023 247.148 157.156 246.445 157.156C245.565 157.156 244.839 156.924 244.266 156.461C243.693 155.992 243.268 155.32 242.992 154.445C242.716 153.565 242.578 152.51 242.578 151.281C242.578 150.052 242.703 149 242.953 148.125C243.208 147.245 243.62 146.57 244.188 146.102C244.755 145.633 245.508 145.398 246.445 145.398C247.331 145.398 248.06 145.633 248.633 146.102C249.211 146.565 249.638 147.237 249.914 148.117C250.195 148.992 250.336 150.047 250.336 151.281ZM244.43 151.281C244.43 152.245 244.492 153.049 244.617 153.695C244.747 154.341 244.961 154.826 245.258 155.148C245.555 155.466 245.951 155.625 246.445 155.625C246.94 155.625 247.336 155.466 247.633 155.148C247.93 154.831 248.143 154.349 248.273 153.703C248.409 153.057 248.477 152.25 248.477 151.281C248.477 150.323 248.411 149.521 248.281 148.875C248.151 148.229 247.938 147.745 247.641 147.422C247.344 147.094 246.945 146.93 246.445 146.93C245.945 146.93 245.547 147.094 245.25 147.422C244.958 147.745 244.747 148.229 244.617 148.875C244.492 149.521 244.43 150.323 244.43 151.281ZM252.086 156.031C252.086 155.604 252.195 155.305 252.414 155.133C252.638 154.956 252.909 154.867 253.227 154.867C253.544 154.867 253.815 154.956 254.039 155.133C254.268 155.305 254.383 155.604 254.383 156.031C254.383 156.448 254.268 156.75 254.039 156.938C253.815 157.12 253.544 157.211 253.227 157.211C252.909 157.211 252.638 157.12 252.414 156.938C252.195 156.75 252.086 156.448 252.086 156.031ZM263.867 150.445C263.867 151.122 263.818 151.786 263.719 152.438C263.625 153.089 263.458 153.698 263.219 154.266C262.984 154.833 262.659 155.336 262.242 155.773C261.831 156.206 261.31 156.544 260.68 156.789C260.049 157.034 259.289 157.156 258.398 157.156C258.174 157.156 257.914 157.143 257.617 157.117C257.326 157.096 257.086 157.065 256.898 157.023V155.492C257.096 155.549 257.318 155.596 257.562 155.633C257.812 155.664 258.06 155.68 258.305 155.68C259.268 155.68 260.018 155.5 260.555 155.141C261.096 154.781 261.479 154.286 261.703 153.656C261.932 153.026 262.062 152.31 262.094 151.508H262C261.849 151.758 261.659 151.987 261.43 152.195C261.201 152.398 260.917 152.562 260.578 152.688C260.24 152.807 259.828 152.867 259.344 152.867C258.688 152.867 258.115 152.729 257.625 152.453C257.141 152.177 256.763 151.776 256.492 151.25C256.227 150.719 256.094 150.081 256.094 149.336C256.094 148.529 256.247 147.833 256.555 147.25C256.862 146.667 257.297 146.219 257.859 145.906C258.422 145.589 259.083 145.43 259.844 145.43C260.417 145.43 260.945 145.534 261.43 145.742C261.919 145.945 262.346 146.258 262.711 146.68C263.076 147.096 263.359 147.62 263.562 148.25C263.766 148.875 263.867 149.607 263.867 150.445ZM259.867 146.945C259.289 146.945 258.818 147.141 258.453 147.531C258.089 147.917 257.906 148.51 257.906 149.312C257.906 149.964 258.062 150.479 258.375 150.859C258.688 151.24 259.167 151.43 259.812 151.43C260.26 151.43 260.646 151.339 260.969 151.156C261.297 150.969 261.549 150.732 261.727 150.445C261.909 150.159 262 149.867 262 149.57C262 149.263 261.956 148.956 261.867 148.648C261.784 148.341 261.654 148.06 261.477 147.805C261.299 147.549 261.076 147.344 260.805 147.188C260.539 147.026 260.227 146.945 259.867 146.945Z" fill="#33BBFF"/>
<path d="M271.664 144.844V148.477C271.664 148.685 271.659 148.896 271.648 149.109C271.638 149.318 271.62 149.51 271.594 149.688H271.68C271.857 149.385 272.081 149.133 272.352 148.93C272.628 148.721 272.94 148.565 273.289 148.461C273.638 148.352 274.008 148.297 274.398 148.297C275.086 148.297 275.659 148.406 276.117 148.625C276.581 148.844 276.927 149.182 277.156 149.641C277.391 150.099 277.508 150.693 277.508 151.422V157H276.227V151.508C276.227 150.794 276.062 150.26 275.734 149.906C275.411 149.552 274.914 149.375 274.242 149.375C273.607 149.375 273.099 149.497 272.719 149.742C272.344 149.982 272.073 150.336 271.906 150.805C271.745 151.273 271.664 151.846 271.664 152.523V157H270.367V144.844H271.664ZM283.359 145.578C284.833 145.578 285.909 145.867 286.586 146.445C287.268 147.018 287.609 147.841 287.609 148.914C287.609 149.398 287.529 149.859 287.367 150.297C287.211 150.729 286.956 151.112 286.602 151.445C286.247 151.773 285.781 152.034 285.203 152.227C284.63 152.414 283.927 152.508 283.094 152.508H281.703V157H280.375V145.578H283.359ZM283.234 146.711H281.703V151.367H282.945C283.674 151.367 284.281 151.289 284.766 151.133C285.255 150.977 285.622 150.724 285.867 150.375C286.112 150.021 286.234 149.552 286.234 148.969C286.234 148.208 285.992 147.643 285.508 147.273C285.023 146.898 284.266 146.711 283.234 146.711ZM297.164 157L295.758 153.375H291.18L289.781 157H288.438L292.906 145.531H294.102L298.539 157H297.164ZM295.359 152.195L294.023 148.594C293.992 148.5 293.94 148.346 293.867 148.133C293.799 147.919 293.729 147.698 293.656 147.469C293.583 147.24 293.523 147.055 293.477 146.914C293.424 147.128 293.367 147.341 293.305 147.555C293.247 147.763 293.19 147.958 293.133 148.141C293.076 148.318 293.026 148.469 292.984 148.594L291.625 152.195H295.359Z" fill="white" fill-opacity="0.5"/>
<g clip-path="url(#clip0_1_7089)">
<path d="M0 209C0 207.895 0.895431 207 2 207H313C314.105 207 315 207.895 315 209V253C315 254.105 314.105 255 313 255H2C0.89543 255 0 254.105 0 253V209Z" fill="#3B3B3B"/>
<rect width="157.5" height="48" transform="translate(0 207)" fill="#404040"/>
<rect x="157" y="207" width="1" height="48" fill="white" fill-opacity="0.12"/>
<path d="M67.5703 237H64.4922L59.5234 228.359H59.4531C59.474 228.719 59.4922 229.081 59.5078 229.445C59.5234 229.81 59.5391 230.174 59.5547 230.539C59.5703 230.898 59.5859 231.26 59.6016 231.625V237H57.4375V225.578H60.4922L65.4531 234.133H65.5078C65.4974 233.779 65.4844 233.427 65.4688 233.078C65.4531 232.729 65.4375 232.38 65.4219 232.031C65.4115 231.682 65.401 231.333 65.3906 230.984V225.578H67.5703V237ZM78.2031 232.617C78.2031 233.346 78.1042 233.992 77.9062 234.555C77.7135 235.117 77.4297 235.594 77.0547 235.984C76.6849 236.37 76.237 236.661 75.7109 236.859C75.1901 237.057 74.6016 237.156 73.9453 237.156C73.3307 237.156 72.7656 237.057 72.25 236.859C71.7396 236.661 71.2943 236.37 70.9141 235.984C70.5391 235.594 70.2474 235.117 70.0391 234.555C69.8359 233.992 69.7344 233.346 69.7344 232.617C69.7344 231.648 69.9062 230.828 70.25 230.156C70.5938 229.484 71.0833 228.974 71.7188 228.625C72.3542 228.276 73.112 228.102 73.9922 228.102C74.8099 228.102 75.5339 228.276 76.1641 228.625C76.7995 228.974 77.2969 229.484 77.6562 230.156C78.0208 230.828 78.2031 231.648 78.2031 232.617ZM72.1641 232.617C72.1641 233.19 72.2266 233.672 72.3516 234.062C72.4766 234.453 72.6719 234.747 72.9375 234.945C73.2031 235.143 73.5495 235.242 73.9766 235.242C74.3984 235.242 74.7396 235.143 75 234.945C75.2656 234.747 75.4583 234.453 75.5781 234.062C75.7031 233.672 75.7656 233.19 75.7656 232.617C75.7656 232.039 75.7031 231.56 75.5781 231.18C75.4583 230.794 75.2656 230.505 75 230.312C74.7344 230.12 74.388 230.023 73.9609 230.023C73.3307 230.023 72.8724 230.24 72.5859 230.672C72.3047 231.104 72.1641 231.753 72.1641 232.617ZM87.3516 237L86.6797 233.945C86.6432 233.763 86.5833 233.495 86.5 233.141C86.4167 232.781 86.3255 232.398 86.2266 231.992C86.1328 231.581 86.0443 231.201 85.9609 230.852C85.8828 230.503 85.8255 230.247 85.7891 230.086H85.7188C85.6823 230.247 85.625 230.503 85.5469 230.852C85.4688 231.201 85.3802 231.581 85.2812 231.992C85.1875 232.404 85.099 232.792 85.0156 233.156C84.9323 233.516 84.8698 233.789 84.8281 233.977L84.125 237H81.5625L79.0781 228.266H81.4531L82.4609 232.133C82.5286 232.404 82.5938 232.727 82.6562 233.102C82.7188 233.471 82.7734 233.831 82.8203 234.18C82.8724 234.523 82.9115 234.797 82.9375 235H83C83.0104 234.849 83.0312 234.648 83.0625 234.398C83.099 234.148 83.138 233.891 83.1797 233.625C83.2266 233.354 83.2682 233.112 83.3047 232.898C83.3464 232.68 83.3776 232.531 83.3984 232.453L84.4766 228.266H87.1016L88.125 232.453C88.1615 232.604 88.2083 232.844 88.2656 233.172C88.3281 233.5 88.3828 233.839 88.4297 234.188C88.4766 234.531 88.5026 234.802 88.5078 235H88.5703C88.5911 234.823 88.6276 234.56 88.6797 234.211C88.7318 233.862 88.7917 233.497 88.8594 233.117C88.9323 232.732 89.0052 232.404 89.0781 232.133L90.125 228.266H92.4609L89.9453 237H87.3516Z" fill="white"/>
<rect x="157.5" y="207" width="158" height="1" fill="black" fill-opacity="0.4"/>
<path d="M202.891 237H201.562V225.578H207.922V226.75H202.891V230.938H207.617V232.102H202.891V237ZM217.016 232.703C217.016 233.406 216.924 234.034 216.742 234.586C216.56 235.138 216.297 235.604 215.953 235.984C215.609 236.365 215.193 236.656 214.703 236.859C214.219 237.057 213.669 237.156 213.055 237.156C212.482 237.156 211.956 237.057 211.477 236.859C211.003 236.656 210.591 236.365 210.242 235.984C209.898 235.604 209.63 235.138 209.438 234.586C209.25 234.034 209.156 233.406 209.156 232.703C209.156 231.766 209.315 230.969 209.633 230.312C209.951 229.651 210.404 229.148 210.992 228.805C211.586 228.456 212.292 228.281 213.109 228.281C213.891 228.281 214.573 228.456 215.156 228.805C215.745 229.154 216.201 229.659 216.523 230.32C216.852 230.977 217.016 231.771 217.016 232.703ZM210.5 232.703C210.5 233.391 210.591 233.987 210.773 234.492C210.956 234.997 211.237 235.388 211.617 235.664C211.997 235.94 212.487 236.078 213.086 236.078C213.68 236.078 214.167 235.94 214.547 235.664C214.932 235.388 215.216 234.997 215.398 234.492C215.581 233.987 215.672 233.391 215.672 232.703C215.672 232.021 215.581 231.432 215.398 230.938C215.216 230.438 214.935 230.052 214.555 229.781C214.174 229.51 213.682 229.375 213.078 229.375C212.188 229.375 211.534 229.669 211.117 230.258C210.706 230.846 210.5 231.661 210.5 232.703ZM223.148 228.281C223.32 228.281 223.5 228.292 223.688 228.312C223.875 228.328 224.042 228.352 224.188 228.383L224.023 229.586C223.883 229.549 223.727 229.521 223.555 229.5C223.383 229.479 223.221 229.469 223.07 229.469C222.727 229.469 222.401 229.539 222.094 229.68C221.792 229.815 221.526 230.013 221.297 230.273C221.068 230.529 220.888 230.839 220.758 231.203C220.628 231.562 220.562 231.964 220.562 232.406V237H219.258V228.438H220.336L220.477 230.016H220.531C220.708 229.698 220.922 229.409 221.172 229.148C221.422 228.883 221.711 228.672 222.039 228.516C222.372 228.359 222.742 228.281 223.148 228.281ZM229.102 228.281C229.831 228.281 230.456 228.443 230.977 228.766C231.497 229.089 231.896 229.542 232.172 230.125C232.448 230.703 232.586 231.38 232.586 232.156V232.961H226.672C226.688 233.966 226.938 234.732 227.422 235.258C227.906 235.784 228.589 236.047 229.469 236.047C230.01 236.047 230.49 235.997 230.906 235.898C231.323 235.799 231.755 235.654 232.203 235.461V236.602C231.771 236.794 231.341 236.935 230.914 237.023C230.492 237.112 229.992 237.156 229.414 237.156C228.591 237.156 227.872 236.99 227.258 236.656C226.648 236.318 226.174 235.823 225.836 235.172C225.497 234.521 225.328 233.724 225.328 232.781C225.328 231.859 225.482 231.062 225.789 230.391C226.102 229.714 226.539 229.193 227.102 228.828C227.669 228.464 228.336 228.281 229.102 228.281ZM229.086 229.344C228.393 229.344 227.841 229.57 227.43 230.023C227.018 230.477 226.773 231.109 226.695 231.922H231.227C231.221 231.411 231.141 230.964 230.984 230.578C230.833 230.188 230.602 229.885 230.289 229.672C229.977 229.453 229.576 229.344 229.086 229.344ZM238.219 237.156C237.448 237.156 236.768 236.997 236.18 236.68C235.591 236.362 235.133 235.878 234.805 235.227C234.477 234.576 234.312 233.755 234.312 232.766C234.312 231.729 234.484 230.883 234.828 230.227C235.177 229.565 235.656 229.076 236.266 228.758C236.875 228.44 237.568 228.281 238.344 228.281C238.771 228.281 239.182 228.326 239.578 228.414C239.979 228.497 240.307 228.604 240.562 228.734L240.172 229.82C239.911 229.716 239.609 229.622 239.266 229.539C238.927 229.456 238.609 229.414 238.312 229.414C237.719 229.414 237.224 229.542 236.828 229.797C236.438 230.052 236.143 230.427 235.945 230.922C235.753 231.417 235.656 232.026 235.656 232.75C235.656 233.443 235.75 234.034 235.938 234.523C236.13 235.013 236.414 235.388 236.789 235.648C237.169 235.904 237.643 236.031 238.211 236.031C238.664 236.031 239.073 235.984 239.438 235.891C239.802 235.792 240.133 235.677 240.43 235.547V236.703C240.143 236.849 239.823 236.961 239.469 237.039C239.12 237.117 238.703 237.156 238.219 237.156ZM245.664 228.297C246.685 228.297 247.443 228.526 247.938 228.984C248.432 229.443 248.68 230.174 248.68 231.18V237H247.734L247.484 235.734H247.422C247.182 236.047 246.932 236.31 246.672 236.523C246.411 236.732 246.109 236.891 245.766 237C245.427 237.104 245.01 237.156 244.516 237.156C243.995 237.156 243.531 237.065 243.125 236.883C242.724 236.701 242.406 236.424 242.172 236.055C241.943 235.685 241.828 235.216 241.828 234.648C241.828 233.794 242.167 233.138 242.844 232.68C243.521 232.221 244.552 231.971 245.938 231.93L247.414 231.867V231.344C247.414 230.604 247.255 230.086 246.938 229.789C246.62 229.492 246.172 229.344 245.594 229.344C245.146 229.344 244.719 229.409 244.312 229.539C243.906 229.669 243.521 229.823 243.156 230L242.758 229.016C243.143 228.818 243.586 228.648 244.086 228.508C244.586 228.367 245.112 228.297 245.664 228.297ZM247.398 232.781L246.094 232.836C245.026 232.878 244.273 233.052 243.836 233.359C243.398 233.667 243.18 234.102 243.18 234.664C243.18 235.154 243.328 235.516 243.625 235.75C243.922 235.984 244.315 236.102 244.805 236.102C245.565 236.102 246.188 235.891 246.672 235.469C247.156 235.047 247.398 234.414 247.398 233.57V232.781ZM256.891 234.656C256.891 235.203 256.753 235.664 256.477 236.039C256.206 236.409 255.815 236.688 255.305 236.875C254.799 237.062 254.195 237.156 253.492 237.156C252.893 237.156 252.375 237.109 251.938 237.016C251.5 236.922 251.117 236.789 250.789 236.617V235.422C251.138 235.594 251.555 235.75 252.039 235.891C252.523 236.031 253.018 236.102 253.523 236.102C254.263 236.102 254.799 235.982 255.133 235.742C255.466 235.503 255.633 235.177 255.633 234.766C255.633 234.531 255.565 234.326 255.43 234.148C255.299 233.966 255.078 233.792 254.766 233.625C254.453 233.453 254.021 233.266 253.469 233.062C252.922 232.854 252.448 232.648 252.047 232.445C251.651 232.237 251.344 231.984 251.125 231.688C250.911 231.391 250.805 231.005 250.805 230.531C250.805 229.807 251.096 229.253 251.68 228.867C252.268 228.477 253.039 228.281 253.992 228.281C254.508 228.281 254.99 228.333 255.438 228.438C255.891 228.536 256.312 228.672 256.703 228.844L256.266 229.883C255.911 229.732 255.534 229.604 255.133 229.5C254.732 229.396 254.323 229.344 253.906 229.344C253.307 229.344 252.846 229.443 252.523 229.641C252.206 229.839 252.047 230.109 252.047 230.453C252.047 230.719 252.12 230.938 252.266 231.109C252.417 231.281 252.656 231.443 252.984 231.594C253.312 231.745 253.745 231.922 254.281 232.125C254.818 232.323 255.281 232.529 255.672 232.742C256.062 232.951 256.362 233.206 256.57 233.508C256.784 233.805 256.891 234.188 256.891 234.656ZM261.742 236.094C261.956 236.094 262.174 236.076 262.398 236.039C262.622 236.003 262.805 235.958 262.945 235.906V236.914C262.794 236.982 262.583 237.039 262.312 237.086C262.047 237.133 261.786 237.156 261.531 237.156C261.078 237.156 260.667 237.078 260.297 236.922C259.927 236.76 259.63 236.49 259.406 236.109C259.188 235.729 259.078 235.203 259.078 234.531V229.453H257.859V228.82L259.086 228.312L259.602 226.453H260.383V228.438H262.891V229.453H260.383V234.492C260.383 235.029 260.505 235.43 260.75 235.695C261 235.961 261.331 236.094 261.742 236.094Z" fill="white"/>
</g>
<defs>
<clipPath id="clip0_1_7089">
<path d="M0 209C0 207.895 0.895431 207 2 207H313C314.105 207 315 207.895 315 209V253C315 254.105 314.105 255 313 255H2C0.89543 255 0 254.105 0 253V209Z" fill="white"/>
</clipPath>
</defs>
</svg>
