<svg width="316" height="269" viewBox="0 0 316 269" fill="none" xmlns="http://www.w3.org/2000/svg">
<path d="M0 14C0 12.8954 0.895431 12 2 12H314C315.105 12 316 12.8954 316 14V267C316 268.105 315.105 269 314 269H2C0.895432 269 0 268.105 0 267V14Z" fill="#404040"/>
<rect x="4" y="35" width="308" height="1" rx="0.5" fill="white" fill-opacity="0.12"/>
<path d="M27.2559 20.4336L25.0176 29H23.4824L22.0527 23.8672C22.0176 23.7422 21.9785 23.5938 21.9355 23.4219C21.8926 23.25 21.8496 23.0742 21.8066 22.8945C21.7676 22.7148 21.7324 22.5508 21.7012 22.4023C21.6738 22.25 21.6543 22.1328 21.6426 22.0508C21.6348 22.1328 21.6172 22.248 21.5898 22.3965C21.5625 22.5449 21.5293 22.709 21.4902 22.8887C21.4551 23.0645 21.416 23.2402 21.373 23.416C21.3301 23.5879 21.291 23.7402 21.2559 23.873L19.8496 29H18.3203L16.0879 20.4336H17.5L18.7363 25.4551C18.7754 25.6152 18.8145 25.7891 18.8535 25.9766C18.8965 26.1602 18.9355 26.3457 18.9707 26.5332C19.0098 26.7207 19.0449 26.9043 19.0762 27.084C19.1074 27.2598 19.1328 27.4199 19.1523 27.5645C19.1719 27.416 19.1973 27.252 19.2285 27.0723C19.2598 26.8887 19.293 26.7031 19.3281 26.5156C19.3672 26.3242 19.4062 26.1406 19.4453 25.9648C19.4883 25.7891 19.5312 25.6309 19.5742 25.4902L20.9688 20.4336H22.3398L23.7637 25.5078C23.8066 25.6523 23.8477 25.8145 23.8867 25.9941C23.9297 26.1738 23.9707 26.3574 24.0098 26.5449C24.0488 26.7324 24.084 26.9141 24.1152 27.0898C24.1465 27.2656 24.1719 27.4238 24.1914 27.5645C24.2188 27.373 24.2539 27.1543 24.2969 26.9082C24.3398 26.6621 24.3887 26.4121 24.4434 26.1582C24.498 25.9043 24.5527 25.6699 24.6074 25.4551L25.8379 20.4336H27.2559ZM29.5938 29V20.4336H31V29H29.5938ZM41.5352 29H39.8066L35.6113 22.1621H35.5586C35.5742 22.3926 35.5879 22.6367 35.5996 22.8945C35.6152 23.1523 35.627 23.418 35.6348 23.6914C35.6465 23.9648 35.6562 24.2422 35.6641 24.5234V29H34.3867V20.4336H36.1035L40.293 27.2246H40.334C40.3262 27.0254 40.3164 26.7969 40.3047 26.5391C40.293 26.2812 40.2812 26.0156 40.2695 25.7422C40.2617 25.4648 40.2559 25.1973 40.252 24.9395V20.4336H41.5352V29ZM51.8652 24.6348C51.8652 25.5996 51.6855 26.4062 51.3262 27.0547C50.9668 27.6992 50.4453 28.1855 49.7617 28.5137C49.0781 28.8379 48.2539 29 47.2891 29H44.9102V20.4336H47.5469C48.4336 20.4336 49.1992 20.5938 49.8438 20.9141C50.4883 21.2305 50.9863 21.7012 51.3379 22.3262C51.6895 22.9473 51.8652 23.7168 51.8652 24.6348ZM50.4004 24.6758C50.4004 23.9727 50.2891 23.3945 50.0664 22.9414C49.8477 22.4883 49.5234 22.1523 49.0938 21.9336C48.668 21.7109 48.1426 21.5996 47.5176 21.5996H46.3164V27.8223H47.3125C48.3477 27.8223 49.1211 27.5586 49.6328 27.0312C50.1445 26.5039 50.4004 25.7188 50.4004 24.6758Z" fill="white" fill-opacity="0.5"/>
<path d="M191.224 190.818C223.155 171.916 233.719 130.708 214.817 98.7762C195.916 66.8443 154.708 56.281 122.776 75.1824C90.844 94.0837 80.2807 135.292 99.182 167.224C118.083 199.156 159.292 209.719 191.224 190.818ZM219.174 96.1974C239.499 130.535 228.14 174.849 193.802 195.174C159.465 215.5 115.151 204.141 94.8255 169.803C74.5 135.465 85.8592 91.1514 120.197 70.8259C154.535 50.5003 198.848 61.8596 219.174 96.1974Z" fill="#383838" stroke="#4D4D4D"/>
<path d="M123.031 75.6126L190.969 190.387M214.387 99.0309L99.6123 166.969" stroke="#4D4D4D"/>
<path d="M119.942 70.3956L123.031 75.6126M94.3953 170.057L99.6124 166.969M194.057 195.605L190.969 190.387M219.604 95.9427L214.387 99.0309" stroke="#4D4D4D" stroke-linejoin="round"/>
<path d="M125.204 74.3259L120.857 76.8994L119.942 70.3956L125.204 74.3259Z" fill="white"/>
<mask id="path-8-outside-1_1_7120" maskUnits="userSpaceOnUse" x="188.599" y="52.1768" width="19.3049" height="23.1648" fill="black">
<rect fill="white" x="188.599" y="52.1768" width="19.3049" height="23.1648"/>
<path d="M203.161 55.6259L202.037 54.9601L195.925 65.2806L194.801 64.6149L193.971 69.8631L198.174 66.6121L197.049 65.9464L203.161 55.6259Z"/>
<path d="M206.534 57.6232L206.174 58.2303L202.802 56.233L203.161 55.6259L206.534 57.6232Z"/>
<path d="M205.455 59.4444L205.096 60.0515L201.723 58.0542L202.083 57.4472L205.455 59.4444Z"/>
<path d="M202.69 60.2671L202.331 60.8741L200.645 59.8755L201.004 59.2684L202.69 60.2671Z"/>
</mask>
<path d="M203.161 55.6259L202.037 54.9601L195.925 65.2806L194.801 64.6149L193.971 69.8631L198.174 66.6121L197.049 65.9464L203.161 55.6259Z" fill="#33BBFF"/>
<path d="M206.534 57.6232L206.174 58.2303L202.802 56.233L203.161 55.6259L206.534 57.6232Z" fill="#33BBFF"/>
<path d="M205.455 59.4444L205.096 60.0515L201.723 58.0542L202.083 57.4472L205.455 59.4444Z" fill="#33BBFF"/>
<path d="M202.69 60.2671L202.331 60.8741L200.645 59.8755L201.004 59.2684L202.69 60.2671Z" fill="#33BBFF"/>
<path d="M203.161 55.6259L203.671 54.7655L203.161 55.6259ZM202.037 54.9601L202.546 54.0997L201.686 53.5902L201.176 54.4506L202.037 54.9601ZM195.925 65.2806L195.416 66.1411L196.276 66.6506L196.786 65.7902L195.925 65.2806ZM194.801 64.6149L195.311 63.7544L194.043 63.004L193.813 64.4586L194.801 64.6149ZM193.971 69.8631L192.983 69.7068L192.589 72.1959L194.583 70.6541L193.971 69.8631ZM198.174 66.6121L198.786 67.4031L199.95 66.5021L198.683 65.7517L198.174 66.6121ZM197.049 65.9464L196.189 65.4368L195.679 66.2973L196.54 66.8068L197.049 65.9464ZM206.534 57.6232L207.394 58.1327L207.904 57.2723L207.043 56.7627L206.534 57.6232ZM206.174 58.2303L205.665 59.0907L206.525 59.6002L207.035 58.7398L206.174 58.2303ZM202.802 56.233L201.941 55.7234L201.432 56.5839L202.292 57.0934L202.802 56.233ZM205.455 59.4444L206.316 59.954L206.825 59.0935L205.965 58.584L205.455 59.4444ZM205.096 60.0515L204.586 60.912L205.447 61.4215L205.956 60.5611L205.096 60.0515ZM201.723 58.0542L200.863 57.5447L200.353 58.4051L201.214 58.9147L201.723 58.0542ZM202.083 57.4472L202.592 56.5867L201.732 56.0772L201.222 56.9376L202.083 57.4472ZM202.69 60.2671L203.551 60.7766L204.06 59.9162L203.2 59.4066L202.69 60.2671ZM202.331 60.8741L201.821 61.7346L202.682 62.2441L203.191 61.3837L202.331 60.8741ZM200.645 59.8755L199.784 59.366L199.275 60.2264L200.135 60.7359L200.645 59.8755ZM201.004 59.2684L201.514 58.408L200.653 57.8984L200.144 58.7589L201.004 59.2684ZM203.671 54.7655L202.546 54.0997L201.527 55.8206L202.652 56.4863L203.671 54.7655ZM201.176 54.4506L195.065 64.7711L196.786 65.7902L202.897 55.4697L201.176 54.4506ZM196.435 64.4202L195.311 63.7544L194.291 65.4753L195.416 66.1411L196.435 64.4202ZM193.813 64.4586L192.983 69.7068L194.959 70.0193L195.789 64.7711L193.813 64.4586ZM194.583 70.6541L198.786 67.4031L197.562 65.8211L193.359 69.0721L194.583 70.6541ZM198.683 65.7517L197.559 65.0859L196.54 66.8068L197.664 67.4726L198.683 65.7517ZM197.91 66.4559L204.022 56.1354L202.301 55.1164L196.189 65.4368L197.91 66.4559ZM205.673 57.1136L205.314 57.7207L207.035 58.7398L207.394 58.1327L205.673 57.1136ZM206.684 57.3698L203.311 55.3725L202.292 57.0934L205.665 59.0907L206.684 57.3698ZM203.662 56.7425L204.022 56.1354L202.301 55.1164L201.941 55.7234L203.662 56.7425ZM202.652 56.4863L206.024 58.4836L207.043 56.7627L203.671 54.7655L202.652 56.4863ZM204.595 58.9349L204.235 59.542L205.956 60.5611L206.316 59.954L204.595 58.9349ZM205.605 59.1911L202.233 57.1938L201.214 58.9147L204.586 60.912L205.605 59.1911ZM202.584 58.5638L202.943 57.9567L201.222 56.9376L200.863 57.5447L202.584 58.5638ZM201.573 58.3076L204.946 60.3049L205.965 58.584L202.592 56.5867L201.573 58.3076ZM201.83 59.7575L201.47 60.3646L203.191 61.3837L203.551 60.7766L201.83 59.7575ZM202.84 60.0137L201.154 59.0151L200.135 60.7359L201.821 61.7346L202.84 60.0137ZM201.505 60.385L201.865 59.778L200.144 58.7589L199.784 59.366L201.505 60.385ZM200.495 60.1289L202.181 61.1275L203.2 59.4066L201.514 58.408L200.495 60.1289Z" fill="#404040" mask="url(#path-8-outside-1_1_7120)"/>
<path d="M141.948 115.596C141.948 101.604 152.734 87.8448 157 87.8448C161.267 87.8448 172.052 101.138 172.052 115.596V174.392C172.052 176.47 170.367 178.155 168.289 178.155H145.711C143.633 178.155 141.948 176.47 141.948 174.392V115.596Z" fill="#383838" stroke="#999999"/>
<path fill-rule="evenodd" clip-rule="evenodd" d="M157.5 132.5H172.052V133.5L141.948 133.5V132.5H156.5L156.5 87.8448H157.5L157.5 132.5Z" fill="#999999"/>
<path d="M213.175 91.4971C204.485 79.7344 192.321 70.9964 178.4 66.5154" stroke="#33BBFF" stroke-opacity="0.3" stroke-width="4"/>
<path d="M230.109 227.18C230.109 228.466 229.875 229.542 229.406 230.406C228.938 231.266 228.258 231.914 227.367 232.352C226.482 232.784 225.406 233 224.141 233H221.039V221.578H224.484C225.646 221.578 226.646 221.792 227.484 222.219C228.323 222.641 228.969 223.268 229.422 224.102C229.88 224.93 230.109 225.956 230.109 227.18ZM228.711 227.227C228.711 226.201 228.539 225.354 228.195 224.688C227.857 224.021 227.357 223.526 226.695 223.203C226.039 222.875 225.234 222.711 224.281 222.711H222.367V231.859H223.984C225.557 231.859 226.737 231.471 227.523 230.695C228.315 229.919 228.711 228.763 228.711 227.227ZM233.75 224.438V233H232.453V224.438H233.75ZM233.117 221.234C233.331 221.234 233.513 221.305 233.664 221.445C233.82 221.581 233.898 221.794 233.898 222.086C233.898 222.372 233.82 222.586 233.664 222.727C233.513 222.867 233.331 222.938 233.117 222.938C232.893 222.938 232.706 222.867 232.555 222.727C232.409 222.586 232.336 222.372 232.336 222.086C232.336 221.794 232.409 221.581 232.555 221.445C232.706 221.305 232.893 221.234 233.117 221.234ZM240.391 224.281C240.562 224.281 240.742 224.292 240.93 224.312C241.117 224.328 241.284 224.352 241.43 224.383L241.266 225.586C241.125 225.549 240.969 225.521 240.797 225.5C240.625 225.479 240.464 225.469 240.312 225.469C239.969 225.469 239.643 225.539 239.336 225.68C239.034 225.815 238.768 226.013 238.539 226.273C238.31 226.529 238.13 226.839 238 227.203C237.87 227.562 237.805 227.964 237.805 228.406V233H236.5V224.438H237.578L237.719 226.016H237.773C237.951 225.698 238.164 225.409 238.414 225.148C238.664 224.883 238.953 224.672 239.281 224.516C239.615 224.359 239.984 224.281 240.391 224.281ZM246.344 224.281C247.073 224.281 247.698 224.443 248.219 224.766C248.74 225.089 249.138 225.542 249.414 226.125C249.69 226.703 249.828 227.38 249.828 228.156V228.961H243.914C243.93 229.966 244.18 230.732 244.664 231.258C245.148 231.784 245.831 232.047 246.711 232.047C247.253 232.047 247.732 231.997 248.148 231.898C248.565 231.799 248.997 231.654 249.445 231.461V232.602C249.013 232.794 248.583 232.935 248.156 233.023C247.734 233.112 247.234 233.156 246.656 233.156C245.833 233.156 245.115 232.99 244.5 232.656C243.891 232.318 243.417 231.823 243.078 231.172C242.74 230.521 242.57 229.724 242.57 228.781C242.57 227.859 242.724 227.062 243.031 226.391C243.344 225.714 243.781 225.193 244.344 224.828C244.911 224.464 245.578 224.281 246.344 224.281ZM246.328 225.344C245.635 225.344 245.083 225.57 244.672 226.023C244.26 226.477 244.016 227.109 243.938 227.922H248.469C248.464 227.411 248.383 226.964 248.227 226.578C248.076 226.188 247.844 225.885 247.531 225.672C247.219 225.453 246.818 225.344 246.328 225.344ZM255.461 233.156C254.69 233.156 254.01 232.997 253.422 232.68C252.833 232.362 252.375 231.878 252.047 231.227C251.719 230.576 251.555 229.755 251.555 228.766C251.555 227.729 251.727 226.883 252.07 226.227C252.419 225.565 252.898 225.076 253.508 224.758C254.117 224.44 254.81 224.281 255.586 224.281C256.013 224.281 256.424 224.326 256.82 224.414C257.221 224.497 257.549 224.604 257.805 224.734L257.414 225.82C257.154 225.716 256.852 225.622 256.508 225.539C256.169 225.456 255.852 225.414 255.555 225.414C254.961 225.414 254.466 225.542 254.07 225.797C253.68 226.052 253.385 226.427 253.188 226.922C252.995 227.417 252.898 228.026 252.898 228.75C252.898 229.443 252.992 230.034 253.18 230.523C253.372 231.013 253.656 231.388 254.031 231.648C254.411 231.904 254.885 232.031 255.453 232.031C255.906 232.031 256.315 231.984 256.68 231.891C257.044 231.792 257.375 231.677 257.672 231.547V232.703C257.385 232.849 257.065 232.961 256.711 233.039C256.362 233.117 255.945 233.156 255.461 233.156ZM262.469 232.094C262.682 232.094 262.901 232.076 263.125 232.039C263.349 232.003 263.531 231.958 263.672 231.906V232.914C263.521 232.982 263.31 233.039 263.039 233.086C262.773 233.133 262.513 233.156 262.258 233.156C261.805 233.156 261.393 233.078 261.023 232.922C260.654 232.76 260.357 232.49 260.133 232.109C259.914 231.729 259.805 231.203 259.805 230.531V225.453H258.586V224.82L259.812 224.312L260.328 222.453H261.109V224.438H263.617V225.453H261.109V230.492C261.109 231.029 261.232 231.43 261.477 231.695C261.727 231.961 262.057 232.094 262.469 232.094ZM266.703 224.438V233H265.406V224.438H266.703ZM266.07 221.234C266.284 221.234 266.466 221.305 266.617 221.445C266.773 221.581 266.852 221.794 266.852 222.086C266.852 222.372 266.773 222.586 266.617 222.727C266.466 222.867 266.284 222.938 266.07 222.938C265.846 222.938 265.659 222.867 265.508 222.727C265.362 222.586 265.289 222.372 265.289 222.086C265.289 221.794 265.362 221.581 265.508 221.445C265.659 221.305 265.846 221.234 266.07 221.234ZM276.836 228.703C276.836 229.406 276.745 230.034 276.562 230.586C276.38 231.138 276.117 231.604 275.773 231.984C275.43 232.365 275.013 232.656 274.523 232.859C274.039 233.057 273.49 233.156 272.875 233.156C272.302 233.156 271.776 233.057 271.297 232.859C270.823 232.656 270.411 232.365 270.062 231.984C269.719 231.604 269.451 231.138 269.258 230.586C269.07 230.034 268.977 229.406 268.977 228.703C268.977 227.766 269.135 226.969 269.453 226.312C269.771 225.651 270.224 225.148 270.812 224.805C271.406 224.456 272.112 224.281 272.93 224.281C273.711 224.281 274.393 224.456 274.977 224.805C275.565 225.154 276.021 225.659 276.344 226.32C276.672 226.977 276.836 227.771 276.836 228.703ZM270.32 228.703C270.32 229.391 270.411 229.987 270.594 230.492C270.776 230.997 271.057 231.388 271.438 231.664C271.818 231.94 272.307 232.078 272.906 232.078C273.5 232.078 273.987 231.94 274.367 231.664C274.753 231.388 275.036 230.997 275.219 230.492C275.401 229.987 275.492 229.391 275.492 228.703C275.492 228.021 275.401 227.432 275.219 226.938C275.036 226.438 274.755 226.052 274.375 225.781C273.995 225.51 273.503 225.375 272.898 225.375C272.008 225.375 271.354 225.669 270.938 226.258C270.526 226.846 270.32 227.661 270.32 228.703ZM283.133 224.281C284.148 224.281 284.917 224.531 285.438 225.031C285.958 225.526 286.219 226.323 286.219 227.422V233H284.938V227.508C284.938 226.794 284.773 226.26 284.445 225.906C284.122 225.552 283.625 225.375 282.953 225.375C282.005 225.375 281.339 225.643 280.953 226.18C280.568 226.716 280.375 227.495 280.375 228.516V233H279.078V224.438H280.125L280.32 225.672H280.391C280.573 225.37 280.805 225.117 281.086 224.914C281.367 224.706 281.682 224.549 282.031 224.445C282.38 224.336 282.747 224.281 283.133 224.281Z" fill="white" fill-opacity="0.5"/>
<path d="M261.453 247.281C261.453 248.203 261.38 249.029 261.234 249.758C261.094 250.482 260.87 251.096 260.562 251.602C260.255 252.107 259.854 252.492 259.359 252.758C258.865 253.023 258.266 253.156 257.562 253.156C256.682 253.156 255.956 252.924 255.383 252.461C254.81 251.992 254.385 251.32 254.109 250.445C253.833 249.565 253.695 248.51 253.695 247.281C253.695 246.052 253.82 245 254.07 244.125C254.326 243.245 254.737 242.57 255.305 242.102C255.872 241.633 256.625 241.398 257.562 241.398C258.448 241.398 259.177 241.633 259.75 242.102C260.328 242.565 260.755 243.237 261.031 244.117C261.312 244.992 261.453 246.047 261.453 247.281ZM255.547 247.281C255.547 248.245 255.609 249.049 255.734 249.695C255.865 250.341 256.078 250.826 256.375 251.148C256.672 251.466 257.068 251.625 257.562 251.625C258.057 251.625 258.453 251.466 258.75 251.148C259.047 250.831 259.26 250.349 259.391 249.703C259.526 249.057 259.594 248.25 259.594 247.281C259.594 246.323 259.529 245.521 259.398 244.875C259.268 244.229 259.055 243.745 258.758 243.422C258.461 243.094 258.062 242.93 257.562 242.93C257.062 242.93 256.664 243.094 256.367 243.422C256.076 243.745 255.865 244.229 255.734 244.875C255.609 245.521 255.547 246.323 255.547 247.281ZM270.609 253H262.875V251.617L265.836 248.617C266.409 248.034 266.88 247.531 267.25 247.109C267.62 246.682 267.893 246.279 268.07 245.898C268.253 245.518 268.344 245.104 268.344 244.656C268.344 244.104 268.185 243.688 267.867 243.406C267.549 243.12 267.13 242.977 266.609 242.977C266.115 242.977 265.656 243.076 265.234 243.273C264.818 243.466 264.385 243.742 263.938 244.102L262.93 242.891C263.247 242.62 263.586 242.372 263.945 242.148C264.31 241.924 264.716 241.747 265.164 241.617C265.612 241.482 266.122 241.414 266.695 241.414C267.419 241.414 268.044 241.544 268.57 241.805C269.096 242.06 269.5 242.417 269.781 242.875C270.068 243.333 270.211 243.867 270.211 244.477C270.211 245.091 270.089 245.659 269.844 246.18C269.599 246.701 269.25 247.216 268.797 247.727C268.344 248.232 267.805 248.781 267.18 249.375L265.203 251.305V251.391H270.609V253ZM272.047 248.133C272.047 247.461 272.094 246.799 272.188 246.148C272.286 245.497 272.453 244.888 272.688 244.32C272.922 243.753 273.245 243.253 273.656 242.82C274.073 242.388 274.596 242.049 275.227 241.805C275.857 241.555 276.615 241.43 277.5 241.43C277.729 241.43 277.987 241.44 278.273 241.461C278.56 241.482 278.797 241.516 278.984 241.562V243.086C278.781 243.029 278.557 242.984 278.312 242.953C278.073 242.922 277.833 242.906 277.594 242.906C276.635 242.906 275.888 243.089 275.352 243.453C274.815 243.812 274.432 244.307 274.203 244.938C273.974 245.562 273.841 246.279 273.805 247.086H273.898C274.055 246.826 274.25 246.594 274.484 246.391C274.719 246.188 275.005 246.026 275.344 245.906C275.682 245.781 276.076 245.719 276.523 245.719C277.19 245.719 277.771 245.859 278.266 246.141C278.76 246.417 279.141 246.818 279.406 247.344C279.677 247.87 279.812 248.508 279.812 249.258C279.812 250.065 279.659 250.76 279.352 251.344C279.049 251.927 278.617 252.375 278.055 252.688C277.497 253 276.833 253.156 276.062 253.156C275.495 253.156 274.966 253.052 274.477 252.844C273.992 252.635 273.568 252.323 273.203 251.906C272.839 251.49 272.555 250.969 272.352 250.344C272.148 249.714 272.047 248.977 272.047 248.133ZM276.031 251.641C276.625 251.641 277.102 251.448 277.461 251.062C277.826 250.672 278.008 250.076 278.008 249.273C278.008 248.622 277.846 248.107 277.523 247.727C277.206 247.346 276.727 247.156 276.086 247.156C275.648 247.156 275.266 247.25 274.938 247.438C274.609 247.625 274.354 247.862 274.172 248.148C273.995 248.435 273.906 248.727 273.906 249.023C273.906 249.326 273.951 249.63 274.039 249.938C274.128 250.245 274.26 250.529 274.438 250.789C274.615 251.044 274.836 251.25 275.102 251.406C275.367 251.562 275.677 251.641 276.031 251.641ZM283.891 246.547C283.37 246.547 282.909 246.44 282.508 246.227C282.112 246.008 281.802 245.706 281.578 245.32C281.354 244.935 281.242 244.49 281.242 243.984C281.242 243.484 281.352 243.042 281.57 242.656C281.794 242.266 282.104 241.961 282.5 241.742C282.901 241.523 283.365 241.414 283.891 241.414C284.417 241.414 284.878 241.523 285.273 241.742C285.669 241.961 285.979 242.263 286.203 242.648C286.432 243.034 286.547 243.479 286.547 243.984C286.547 244.49 286.432 244.935 286.203 245.32C285.979 245.706 285.669 246.008 285.273 246.227C284.878 246.44 284.417 246.547 283.891 246.547ZM283.898 245.359C284.326 245.359 284.661 245.234 284.906 244.984C285.151 244.734 285.273 244.401 285.273 243.984C285.273 243.552 285.148 243.211 284.898 242.961C284.648 242.711 284.315 242.586 283.898 242.586C283.471 242.586 283.133 242.711 282.883 242.961C282.638 243.211 282.516 243.552 282.516 243.984C282.516 244.401 282.638 244.734 282.883 244.984C283.128 245.234 283.466 245.359 283.898 245.359Z" fill="#33BBFF"/>
<path d="M27.8359 229.961C27.8359 230.638 27.6667 231.216 27.3281 231.695C26.9948 232.169 26.526 232.531 25.9219 232.781C25.3177 233.031 24.6068 233.156 23.7891 233.156C23.3568 233.156 22.9479 233.135 22.5625 233.094C22.1771 233.052 21.8229 232.992 21.5 232.914C21.1771 232.836 20.8932 232.74 20.6484 232.625V231.352C21.0391 231.513 21.5156 231.664 22.0781 231.805C22.6406 231.94 23.2292 232.008 23.8438 232.008C24.4167 232.008 24.901 231.932 25.2969 231.781C25.6927 231.625 25.9922 231.404 26.1953 231.117C26.4036 230.826 26.5078 230.477 26.5078 230.07C26.5078 229.68 26.4219 229.354 26.25 229.094C26.0781 228.828 25.7917 228.589 25.3906 228.375C24.9948 228.156 24.4531 227.924 23.7656 227.68C23.2812 227.508 22.8542 227.32 22.4844 227.117C22.1146 226.909 21.8047 226.674 21.5547 226.414C21.3047 226.154 21.1146 225.852 20.9844 225.508C20.8594 225.164 20.7969 224.771 20.7969 224.328C20.7969 223.719 20.9505 223.198 21.2578 222.766C21.5703 222.328 22 221.995 22.5469 221.766C23.099 221.531 23.7318 221.414 24.4453 221.414C25.0547 221.414 25.6172 221.471 26.1328 221.586C26.6536 221.701 27.1302 221.854 27.5625 222.047L27.1484 223.188C26.737 223.016 26.2995 222.872 25.8359 222.758C25.3776 222.643 24.9036 222.586 24.4141 222.586C23.9245 222.586 23.5104 222.659 23.1719 222.805C22.8385 222.945 22.5833 223.146 22.4062 223.406C22.2292 223.667 22.1406 223.977 22.1406 224.336C22.1406 224.737 22.224 225.07 22.3906 225.336C22.5625 225.602 22.8333 225.839 23.2031 226.047C23.5781 226.25 24.0729 226.464 24.6875 226.688C25.3594 226.932 25.9297 227.193 26.3984 227.469C26.8672 227.74 27.224 228.073 27.4688 228.469C27.7135 228.859 27.8359 229.357 27.8359 229.961ZM34 224.281C35.0677 224.281 35.9193 224.648 36.5547 225.383C37.1901 226.117 37.5078 227.221 37.5078 228.695C37.5078 229.669 37.362 230.487 37.0703 231.148C36.7786 231.81 36.3672 232.31 35.8359 232.648C35.3099 232.987 34.6875 233.156 33.9688 233.156C33.5156 233.156 33.1172 233.096 32.7734 232.977C32.4297 232.857 32.1354 232.695 31.8906 232.492C31.6458 232.289 31.4427 232.068 31.2812 231.828H31.1875C31.2031 232.031 31.2214 232.276 31.2422 232.562C31.2682 232.849 31.2812 233.099 31.2812 233.312V236.828H29.9766V224.438H31.0469L31.2188 225.703H31.2812C31.4479 225.443 31.651 225.206 31.8906 224.992C32.1302 224.773 32.4219 224.602 32.7656 224.477C33.1146 224.346 33.526 224.281 34 224.281ZM33.7734 225.375C33.1797 225.375 32.7005 225.49 32.3359 225.719C31.9766 225.948 31.7135 226.292 31.5469 226.75C31.3802 227.203 31.2917 227.773 31.2812 228.461V228.711C31.2812 229.435 31.3594 230.047 31.5156 230.547C31.6771 231.047 31.9401 231.427 32.3047 231.688C32.6745 231.948 33.1693 232.078 33.7891 232.078C34.3203 232.078 34.763 231.935 35.1172 231.648C35.4714 231.362 35.7344 230.964 35.9062 230.453C36.0833 229.938 36.1719 229.346 36.1719 228.68C36.1719 227.669 35.974 226.867 35.5781 226.273C35.1875 225.674 34.5859 225.375 33.7734 225.375ZM43.0703 224.281C43.7995 224.281 44.4245 224.443 44.9453 224.766C45.4661 225.089 45.8646 225.542 46.1406 226.125C46.4167 226.703 46.5547 227.38 46.5547 228.156V228.961H40.6406C40.6562 229.966 40.9062 230.732 41.3906 231.258C41.875 231.784 42.5573 232.047 43.4375 232.047C43.9792 232.047 44.4583 231.997 44.875 231.898C45.2917 231.799 45.724 231.654 46.1719 231.461V232.602C45.7396 232.794 45.3099 232.935 44.8828 233.023C44.4609 233.112 43.9609 233.156 43.3828 233.156C42.5599 233.156 41.8411 232.99 41.2266 232.656C40.6172 232.318 40.1432 231.823 39.8047 231.172C39.4661 230.521 39.2969 229.724 39.2969 228.781C39.2969 227.859 39.4505 227.062 39.7578 226.391C40.0703 225.714 40.5078 225.193 41.0703 224.828C41.638 224.464 42.3047 224.281 43.0703 224.281ZM43.0547 225.344C42.362 225.344 41.8099 225.57 41.3984 226.023C40.987 226.477 40.7422 227.109 40.6641 227.922H45.1953C45.1901 227.411 45.1094 226.964 44.9531 226.578C44.8021 226.188 44.5703 225.885 44.2578 225.672C43.9453 225.453 43.5443 225.344 43.0547 225.344ZM52.0547 224.281C52.7839 224.281 53.4089 224.443 53.9297 224.766C54.4505 225.089 54.849 225.542 55.125 226.125C55.401 226.703 55.5391 227.38 55.5391 228.156V228.961H49.625C49.6406 229.966 49.8906 230.732 50.375 231.258C50.8594 231.784 51.5417 232.047 52.4219 232.047C52.9635 232.047 53.4427 231.997 53.8594 231.898C54.276 231.799 54.7083 231.654 55.1562 231.461V232.602C54.724 232.794 54.2943 232.935 53.8672 233.023C53.4453 233.112 52.9453 233.156 52.3672 233.156C51.5443 233.156 50.8255 232.99 50.2109 232.656C49.6016 232.318 49.1276 231.823 48.7891 231.172C48.4505 230.521 48.2812 229.724 48.2812 228.781C48.2812 227.859 48.4349 227.062 48.7422 226.391C49.0547 225.714 49.4922 225.193 50.0547 224.828C50.6224 224.464 51.2891 224.281 52.0547 224.281ZM52.0391 225.344C51.3464 225.344 50.7943 225.57 50.3828 226.023C49.9714 226.477 49.7266 227.109 49.6484 227.922H54.1797C54.1745 227.411 54.0938 226.964 53.9375 226.578C53.7865 226.188 53.5547 225.885 53.2422 225.672C52.9297 225.453 52.5286 225.344 52.0391 225.344ZM60.7891 233.156C59.7057 233.156 58.8464 232.786 58.2109 232.047C57.5807 231.307 57.2656 230.208 57.2656 228.75C57.2656 227.276 57.5885 226.164 58.2344 225.414C58.8802 224.659 59.7396 224.281 60.8125 224.281C61.2656 224.281 61.6615 224.341 62 224.461C62.3385 224.581 62.6302 224.742 62.875 224.945C63.1198 225.143 63.3255 225.37 63.4922 225.625H63.5859C63.5651 225.464 63.5443 225.242 63.5234 224.961C63.5026 224.68 63.4922 224.451 63.4922 224.273V220.844H64.7891V233H63.7422L63.5469 231.781H63.4922C63.3307 232.036 63.125 232.268 62.875 232.477C62.6302 232.685 62.3359 232.852 61.9922 232.977C61.6536 233.096 61.2526 233.156 60.7891 233.156ZM60.9922 232.078C61.9089 232.078 62.5573 231.818 62.9375 231.297C63.3177 230.776 63.5078 230.003 63.5078 228.977V228.742C63.5078 227.654 63.3255 226.818 62.9609 226.234C62.6016 225.651 61.9453 225.359 60.9922 225.359C60.1953 225.359 59.599 225.667 59.2031 226.281C58.8073 226.891 58.6094 227.724 58.6094 228.781C58.6094 229.833 58.8047 230.646 59.1953 231.219C59.5911 231.792 60.1901 232.078 60.9922 232.078Z" fill="white" fill-opacity="0.5"/>
<path d="M24.0703 241.422C24.7318 241.422 25.3281 241.526 25.8594 241.734C26.3906 241.938 26.8125 242.242 27.125 242.648C27.4375 243.055 27.5938 243.557 27.5938 244.156C27.5938 244.62 27.4974 245.023 27.3047 245.367C27.1172 245.711 26.862 246.013 26.5391 246.273C26.2161 246.529 25.8542 246.755 25.4531 246.953C25.901 247.172 26.3125 247.424 26.6875 247.711C27.0677 247.992 27.3724 248.323 27.6016 248.703C27.8359 249.083 27.9531 249.529 27.9531 250.039C27.9531 250.68 27.7891 251.234 27.4609 251.703C27.138 252.167 26.6875 252.526 26.1094 252.781C25.5312 253.031 24.8568 253.156 24.0859 253.156C23.2578 253.156 22.5521 253.034 21.9688 252.789C21.3854 252.544 20.9427 252.195 20.6406 251.742C20.3385 251.284 20.1875 250.737 20.1875 250.102C20.1875 249.576 20.2917 249.12 20.5 248.734C20.7083 248.349 20.987 248.016 21.3359 247.734C21.6901 247.453 22.0781 247.216 22.5 247.023C22.1406 246.81 21.8125 246.57 21.5156 246.305C21.2188 246.034 20.9818 245.724 20.8047 245.375C20.6328 245.021 20.5469 244.612 20.5469 244.148C20.5469 243.555 20.7057 243.057 21.0234 242.656C21.3411 242.25 21.7656 241.943 22.2969 241.734C22.8333 241.526 23.4245 241.422 24.0703 241.422ZM21.9375 250.031C21.9375 250.531 22.1146 250.943 22.4688 251.266C22.8229 251.589 23.3516 251.75 24.0547 251.75C24.7526 251.75 25.2839 251.591 25.6484 251.273C26.013 250.956 26.1953 250.536 26.1953 250.016C26.1953 249.682 26.1016 249.388 25.9141 249.133C25.7318 248.878 25.4844 248.651 25.1719 248.453C24.8646 248.25 24.5234 248.062 24.1484 247.891L23.8984 247.789C23.4922 247.961 23.1432 248.156 22.8516 248.375C22.5599 248.589 22.3333 248.831 22.1719 249.102C22.0156 249.372 21.9375 249.682 21.9375 250.031ZM24.0547 242.836C23.5495 242.836 23.1328 242.961 22.8047 243.211C22.4818 243.456 22.3203 243.81 22.3203 244.273C22.3203 244.602 22.3984 244.883 22.5547 245.117C22.7161 245.352 22.9323 245.555 23.2031 245.727C23.474 245.893 23.7734 246.049 24.1016 246.195C24.4193 246.055 24.7057 245.901 24.9609 245.734C25.2214 245.562 25.4271 245.359 25.5781 245.125C25.7344 244.885 25.8125 244.599 25.8125 244.266C25.8125 243.807 25.6484 243.456 25.3203 243.211C24.9974 242.961 24.5755 242.836 24.0547 242.836ZM29.7031 252.031C29.7031 251.604 29.8125 251.305 30.0312 251.133C30.2552 250.956 30.526 250.867 30.8438 250.867C31.1615 250.867 31.4323 250.956 31.6562 251.133C31.8854 251.305 32 251.604 32 252.031C32 252.448 31.8854 252.75 31.6562 252.938C31.4323 253.12 31.1615 253.211 30.8438 253.211C30.526 253.211 30.2552 253.12 30.0312 252.938C29.8125 252.75 29.7031 252.448 29.7031 252.031ZM37.6484 245.859C38.3828 245.859 39.0286 245.992 39.5859 246.258C40.1484 246.518 40.5859 246.904 40.8984 247.414C41.2109 247.919 41.3672 248.539 41.3672 249.273C41.3672 250.076 41.1979 250.768 40.8594 251.352C40.5208 251.93 40.0234 252.375 39.3672 252.688C38.7109 253 37.9115 253.156 36.9688 253.156C36.3698 253.156 35.8099 253.104 35.2891 253C34.7734 252.896 34.3281 252.74 33.9531 252.531V250.875C34.3438 251.094 34.8125 251.273 35.3594 251.414C35.9062 251.549 36.4297 251.617 36.9297 251.617C37.4609 251.617 37.9167 251.539 38.2969 251.383C38.6771 251.227 38.9688 250.987 39.1719 250.664C39.3802 250.341 39.4844 249.932 39.4844 249.438C39.4844 248.781 39.2734 248.276 38.8516 247.922C38.4349 247.562 37.7812 247.383 36.8906 247.383C36.5781 247.383 36.2448 247.411 35.8906 247.469C35.5417 247.521 35.25 247.578 35.0156 247.641L34.2109 247.164L34.6406 241.578H40.5781V243.195H36.2578L36.0078 246.039C36.1953 245.997 36.4193 245.958 36.6797 245.922C36.9401 245.88 37.263 245.859 37.6484 245.859Z" fill="#33BBFF"/>
<path d="M45.1562 240.844V247.156C45.1562 247.365 45.1484 247.62 45.1328 247.922C45.1172 248.219 45.1042 248.482 45.0938 248.711H45.1484C45.2578 248.576 45.4167 248.375 45.625 248.109C45.8385 247.844 46.0182 247.63 46.1641 247.469L49.0078 244.438H50.5312L47.0859 248.094L50.7812 253H49.2188L46.1953 248.945L45.1562 249.898V253H43.8672V240.844H45.1562ZM56.3281 244.281C57.3438 244.281 58.112 244.531 58.6328 245.031C59.1536 245.526 59.4141 246.323 59.4141 247.422V253H58.1328V247.508C58.1328 246.794 57.9688 246.26 57.6406 245.906C57.3177 245.552 56.8203 245.375 56.1484 245.375C55.2005 245.375 54.5339 245.643 54.1484 246.18C53.763 246.716 53.5703 247.495 53.5703 248.516V253H52.2734V244.438H53.3203L53.5156 245.672H53.5859C53.7682 245.37 54 245.117 54.2812 244.914C54.5625 244.706 54.8776 244.549 55.2266 244.445C55.5755 244.336 55.9427 244.281 56.3281 244.281Z" fill="white" fill-opacity="0.5"/>
</svg>
